<ttFont>
    <TTGlyph name=".notdef" xMin="96" yMin="0" xMax="1161" yMax="1462">
      <contour>
        <pt x="1161" y="1462" on="1"/>
        <pt x="852" y="0" on="1"/>
        <pt x="96" y="0" on="1"/>
        <pt x="406" y="1462" on="1"/>
      </contour>
      <contour>
        <pt x="782" y="90" on="1"/>
        <pt x="1055" y="1372" on="1"/>
        <pt x="477" y="1372" on="1"/>
        <pt x="205" y="90" on="1"/>
      </contour>
    </TTGlyph>
    <TTGlyph name="A" xMin="-78" yMin="0" xMax="651" yMax="1468">
      <contour>
        <pt x="555" y="530" on="1"/>
        <pt x="248" y="530" on="1"/>
        <pt x="27" y="0" on="1"/>
        <pt x="-78" y="0" on="1"/>
        <pt x="528" y="1468" on="1"/>
        <pt x="651" y="1468" on="1"/>
        <pt x="651" y="0" on="1"/>
        <pt x="555" y="0" on="1"/>
      </contour>
      <contour>
        <pt x="555" y="629" on="1"/>
        <pt x="555" y="999" on="1"/>
        <pt x="561" y="1354" on="1"/>
        <pt x="546" y="1300" on="0"/>
        <pt x="465" y="1083" on="0"/>
        <pt x="283" y="629" on="1"/>
      </contour>
    </TTGlyph>
    <TTGlyph name="AE" xMin="-76" yMin="0" xMax="1180" yMax="1462">
      <contour>
        <pt x="393" y="0" on="1"/>
        <pt x="506" y="530" on="1"/>
        <pt x="270" y="530" on="1"/>
        <pt x="25" y="0" on="1"/>
        <pt x="-76" y="0" on="1"/>
        <pt x="608" y="1462" on="1"/>
        <pt x="1180" y="1462" on="1"/>
        <pt x="1159" y="1366" on="1"/>
        <pt x="782" y="1366" on="1"/>
        <pt x="666" y="813" on="1"/>
        <pt x="1022" y="813" on="1"/>
        <pt x="1001" y="719" on="1"/>
        <pt x="645" y="719" on="1"/>
        <pt x="512" y="94" on="1"/>
        <pt x="889" y="94" on="1"/>
        <pt x="870" y="0" on="1"/>
      </contour>
      <contour>
        <pt x="526" y="629" on="1"/>
        <pt x="682" y="1364" on="1"/>
        <pt x="653" y="1364" on="1"/>
        <pt x="313" y="629" on="1"/>
      </contour>
    </TTGlyph>
    <TTGlyph name="Aacute" xMin="-78" yMin="0" xMax="882" yMax="1907">
      <contour>
        <pt x="520" y="1579" on="1"/>
        <pt x="520" y="1595" on="1"/>
        <pt x="673" y="1779" on="0"/>
        <pt x="743" y="1907" on="1"/>
        <pt x="882" y="1907" on="1"/>
        <pt x="882" y="1890" on="1"/>
        <pt x="839" y="1826" on="0"/>
        <pt x="648" y="1637" on="0"/>
        <pt x="571" y="1579" on="1"/>
      </contour>
      <contour>
        <pt x="651" y="1468" on="1"/>
        <pt x="651" y="0" on="1"/>
        <pt x="555" y="0" on="1"/>
        <pt x="555" y="530" on="1"/>
        <pt x="248" y="530" on="1"/>
        <pt x="27" y="0" on="1"/>
        <pt x="-78" y="0" on="1"/>
        <pt x="528" y="1468" on="1"/>
      </contour>
      <contour>
        <pt x="555" y="629" on="1"/>
        <pt x="555" y="999" on="1"/>
        <pt x="561" y="1354" on="1"/>
        <pt x="546" y="1300" on="0"/>
        <pt x="465" y="1083" on="0"/>
        <pt x="283" y="629" on="1"/>
      </contour>
    </TTGlyph>
    <TTGlyph name="Acircumflex" xMin="-78" yMin="0" xMax="814" yMax="1907">
      <contour>
        <pt x="810" y="1579" on="1"/>
        <pt x="763" y="1579" on="1"/>
        <pt x="697" y="1679" on="0"/>
        <pt x="638" y="1782" on="1"/>
        <pt x="503" y="1647" on="0"/>
        <pt x="419" y="1579" on="1"/>
        <pt x="374" y="1579" on="1"/>
        <pt x="378" y="1598" on="1"/>
        <pt x="535" y="1776" on="0"/>
        <pt x="617" y="1907" on="1"/>
        <pt x="703" y="1907" on="1"/>
        <pt x="713" y="1860" on="0"/>
        <pt x="750" y="1756" on="1"/>
        <pt x="791" y="1648" on="0"/>
        <pt x="814" y="1598" on="1"/>
      </contour>
      <contour>
        <pt x="651" y="1468" on="1"/>
        <pt x="651" y="0" on="1"/>
        <pt x="555" y="0" on="1"/>
        <pt x="555" y="530" on="1"/>
        <pt x="248" y="530" on="1"/>
        <pt x="27" y="0" on="1"/>
        <pt x="-78" y="0" on="1"/>
        <pt x="528" y="1468" on="1"/>
      </contour>
      <contour>
        <pt x="555" y="629" on="1"/>
        <pt x="555" y="999" on="1"/>
        <pt x="561" y="1354" on="1"/>
        <pt x="546" y="1300" on="0"/>
        <pt x="465" y="1083" on="0"/>
        <pt x="283" y="629" on="1"/>
      </contour>
    </TTGlyph>
    <TTGlyph name="Adieresis" xMin="-78" yMin="0" xMax="824" yMax="1813">
      <contour>
        <pt x="423" y="1700" on="1"/>
        <pt x="423" y="1749" on="0"/>
        <pt x="469" y="1813" on="0"/>
        <pt x="505" y="1813" on="1"/>
        <pt x="552" y="1813" on="0"/>
        <pt x="552" y="1701" on="0"/>
        <pt x="509" y="1636" on="0"/>
        <pt x="472" y="1636" on="1"/>
        <pt x="423" y="1636" on="0"/>
      </contour>
      <contour>
        <pt x="695" y="1700" on="1"/>
        <pt x="695" y="1749" on="0"/>
        <pt x="741" y="1813" on="0"/>
        <pt x="777" y="1813" on="1"/>
        <pt x="824" y="1813" on="0"/>
        <pt x="824" y="1701" on="0"/>
        <pt x="781" y="1636" on="0"/>
        <pt x="744" y="1636" on="1"/>
        <pt x="695" y="1636" on="0"/>
      </contour>
      <contour>
        <pt x="651" y="1468" on="1"/>
        <pt x="651" y="0" on="1"/>
        <pt x="555" y="0" on="1"/>
        <pt x="555" y="530" on="1"/>
        <pt x="248" y="530" on="1"/>
        <pt x="27" y="0" on="1"/>
        <pt x="-78" y="0" on="1"/>
        <pt x="528" y="1468" on="1"/>
      </contour>
      <contour>
        <pt x="555" y="629" on="1"/>
        <pt x="555" y="999" on="1"/>
        <pt x="561" y="1354" on="1"/>
        <pt x="546" y="1300" on="0"/>
        <pt x="465" y="1083" on="0"/>
        <pt x="283" y="629" on="1"/>
      </contour>
    </TTGlyph>
    <TTGlyph name="Agrave" xMin="-78" yMin="0" xMax="679" yMax="1907">
      <contour>
        <pt x="679" y="1579" on="1"/>
        <pt x="640" y="1579" on="1"/>
        <pt x="591" y="1637" on="0"/>
        <pt x="483" y="1828" on="0"/>
        <pt x="468" y="1890" on="1"/>
        <pt x="468" y="1907" on="1"/>
        <pt x="595" y="1907" on="1"/>
        <pt x="620" y="1751" on="0"/>
        <pt x="679" y="1598" on="1"/>
      </contour>
      <contour>
        <pt x="651" y="1468" on="1"/>
        <pt x="651" y="0" on="1"/>
        <pt x="555" y="0" on="1"/>
        <pt x="555" y="530" on="1"/>
        <pt x="248" y="530" on="1"/>
        <pt x="27" y="0" on="1"/>
        <pt x="-78" y="0" on="1"/>
        <pt x="528" y="1468" on="1"/>
      </contour>
      <contour>
        <pt x="555" y="629" on="1"/>
        <pt x="555" y="999" on="1"/>
        <pt x="561" y="1354" on="1"/>
        <pt x="546" y="1300" on="0"/>
        <pt x="465" y="1083" on="0"/>
        <pt x="283" y="629" on="1"/>
      </contour>
    </TTGlyph>
    <TTGlyph name="Aring" xMin="-78" yMin="0" xMax="781" yMax="1780">
      <contour>
        <pt x="400" y="1594" on="1"/>
        <pt x="400" y="1679" on="0"/>
        <pt x="502" y="1780" on="0"/>
        <pt x="676" y="1780" on="0"/>
        <pt x="781" y="1678" on="0"/>
        <pt x="781" y="1527" on="0"/>
        <pt x="712" y="1431" on="0"/>
        <pt x="651" y="1414" on="1"/>
        <pt x="651" y="0" on="1"/>
        <pt x="555" y="0" on="1"/>
        <pt x="555" y="530" on="1"/>
        <pt x="248" y="530" on="1"/>
        <pt x="27" y="0" on="1"/>
        <pt x="-78" y="0" on="1"/>
        <pt x="509" y="1421" on="1"/>
        <pt x="457" y="1441" on="0"/>
        <pt x="400" y="1531" on="0"/>
      </contour>
      <contour>
        <pt x="591" y="1475" on="1"/>
        <pt x="644" y="1475" on="0"/>
        <pt x="710" y="1540" on="0"/>
        <pt x="710" y="1647" on="0"/>
        <pt x="646" y="1715" on="0"/>
        <pt x="536" y="1715" on="0"/>
        <pt x="472" y="1647" on="0"/>
        <pt x="472" y="1594" on="1"/>
        <pt x="472" y="1475" on="0"/>
      </contour>
      <contour>
        <pt x="555" y="629" on="1"/>
        <pt x="555" y="999" on="1"/>
        <pt x="561" y="1354" on="1"/>
        <pt x="546" y="1300" on="0"/>
        <pt x="465" y="1083" on="0"/>
        <pt x="283" y="629" on="1"/>
      </contour>
    </TTGlyph>
    <TTGlyph name="Atilde" xMin="-78" yMin="0" xMax="896" yMax="1821">
      <contour>
        <pt x="738" y="1589" on="1"/>
        <pt x="707" y="1589" on="0"/>
        <pt x="640" y="1630" on="0"/>
        <pt x="616" y="1654" on="1"/>
        <pt x="552" y="1720" on="0"/>
        <pt x="475" y="1720" on="0"/>
        <pt x="430" y="1655" on="0"/>
        <pt x="411" y="1587" on="1"/>
        <pt x="341" y="1587" on="1"/>
        <pt x="400" y="1817" on="0"/>
        <pt x="521" y="1817" on="1"/>
        <pt x="553" y="1817" on="0"/>
        <pt x="618" y="1776" on="0"/>
        <pt x="640" y="1752" on="1"/>
        <pt x="701" y="1686" on="0"/>
        <pt x="769" y="1686" on="0"/>
        <pt x="785" y="1708" on="1"/>
        <pt x="804" y="1731" on="0"/>
        <pt x="826" y="1821" on="1"/>
        <pt x="896" y="1821" on="1"/>
        <pt x="868" y="1688" on="0"/>
        <pt x="794" y="1589" on="0"/>
      </contour>
      <contour>
        <pt x="651" y="1468" on="1"/>
        <pt x="651" y="0" on="1"/>
        <pt x="555" y="0" on="1"/>
        <pt x="555" y="530" on="1"/>
        <pt x="248" y="530" on="1"/>
        <pt x="27" y="0" on="1"/>
        <pt x="-78" y="0" on="1"/>
        <pt x="528" y="1468" on="1"/>
      </contour>
      <contour>
        <pt x="555" y="629" on="1"/>
        <pt x="555" y="999" on="1"/>
        <pt x="561" y="1354" on="1"/>
        <pt x="546" y="1300" on="0"/>
        <pt x="465" y="1083" on="0"/>
        <pt x="283" y="629" on="1"/>
      </contour>
    </TTGlyph>
    <TTGlyph name="B" xMin="66" yMin="0" xMax="887" yMax="1462">
      <contour>
        <pt x="600" y="1462" on="1"/>
        <pt x="730" y="1462" on="0"/>
        <pt x="887" y="1312" on="0"/>
        <pt x="887" y="1188" on="1"/>
        <pt x="887" y="1022" on="0"/>
        <pt x="739" y="798" on="0"/>
        <pt x="608" y="772" on="1"/>
        <pt x="606" y="766" on="1"/>
        <pt x="679" y="747" on="0"/>
        <pt x="770" y="606" on="0"/>
        <pt x="770" y="506" on="1"/>
        <pt x="770" y="279" on="0"/>
        <pt x="540" y="0" on="0"/>
        <pt x="346" y="0" on="1"/>
        <pt x="342" y="0" on="0"/>
        <pt x="338" y="0" on="1"/>
        <pt x="66" y="0" on="1"/>
        <pt x="375" y="1462" on="1"/>
      </contour>
      <contour>
        <pt x="490" y="813" on="1"/>
        <pt x="618" y="813" on="0"/>
        <pt x="784" y="1016" on="0"/>
        <pt x="784" y="1169" on="1"/>
        <pt x="784" y="1172" on="0"/>
        <pt x="784" y="1176" on="1"/>
        <pt x="784" y="1273" on="0"/>
        <pt x="682" y="1366" on="0"/>
        <pt x="578" y="1366" on="1"/>
        <pt x="455" y="1366" on="1"/>
        <pt x="336" y="813" on="1"/>
        <pt x="483" y="813" on="1"/>
        <pt x="487" y="813" on="0"/>
      </contour>
      <contour>
        <pt x="342" y="94" on="1"/>
        <pt x="496" y="94" on="0"/>
        <pt x="582" y="201" on="1"/>
        <pt x="668" y="310" on="0"/>
        <pt x="668" y="494" on="1"/>
        <pt x="668" y="599" on="0"/>
        <pt x="565" y="719" on="0"/>
        <pt x="475" y="719" on="1"/>
        <pt x="317" y="719" on="1"/>
        <pt x="184" y="94" on="1"/>
      </contour>
    </TTGlyph>
    <TTGlyph name="C" xMin="135" yMin="-20" xMax="946" yMax="1485">
      <contour>
        <pt x="739" y="1389" on="1"/>
        <pt x="608" y="1389" on="0"/>
        <pt x="379" y="1133" on="0"/>
        <pt x="233" y="678" on="0"/>
        <pt x="233" y="261" on="0"/>
        <pt x="338" y="72" on="0"/>
        <pt x="457" y="72" on="1"/>
        <pt x="533" y="72" on="0"/>
        <pt x="629" y="111" on="1"/>
        <pt x="629" y="16" on="1"/>
        <pt x="534" y="-20" on="0"/>
        <pt x="442" y="-20" on="1"/>
        <pt x="135" y="-20" on="0"/>
        <pt x="135" y="449" on="1"/>
        <pt x="135" y="707" on="0"/>
        <pt x="305" y="1200" on="0"/>
        <pt x="587" y="1485" on="0"/>
        <pt x="750" y="1485" on="1"/>
        <pt x="872" y="1485" on="0"/>
        <pt x="946" y="1423" on="1"/>
        <pt x="885" y="1337" on="1"/>
        <pt x="826" y="1389" on="0"/>
      </contour>
    </TTGlyph>
    <TTGlyph name="Ccedilla" xMin="135" yMin="-492" xMax="946" yMax="1485">
      <contour>
        <pt x="135" y="449" on="1"/>
        <pt x="135" y="707" on="0"/>
        <pt x="305" y="1200" on="0"/>
        <pt x="587" y="1485" on="0"/>
        <pt x="750" y="1485" on="1"/>
        <pt x="872" y="1485" on="0"/>
        <pt x="946" y="1423" on="1"/>
        <pt x="885" y="1337" on="1"/>
        <pt x="826" y="1389" on="0"/>
        <pt x="739" y="1389" on="1"/>
        <pt x="608" y="1389" on="0"/>
        <pt x="379" y="1133" on="0"/>
        <pt x="233" y="678" on="0"/>
        <pt x="233" y="261" on="0"/>
        <pt x="338" y="72" on="0"/>
        <pt x="457" y="72" on="1"/>
        <pt x="533" y="72" on="0"/>
        <pt x="629" y="111" on="1"/>
        <pt x="629" y="16" on="1"/>
        <pt x="539" y="-19" on="0"/>
        <pt x="450" y="-20" on="1"/>
        <pt x="385" y="-115" on="1"/>
        <pt x="449" y="-133" on="0"/>
        <pt x="520" y="-213" on="0"/>
        <pt x="520" y="-266" on="1"/>
        <pt x="520" y="-366" on="0"/>
        <pt x="384" y="-492" on="0"/>
        <pt x="272" y="-492" on="1"/>
        <pt x="244" y="-492" on="0"/>
        <pt x="175" y="-485" on="0"/>
        <pt x="163" y="-481" on="1"/>
        <pt x="163" y="-403" on="1"/>
        <pt x="190" y="-414" on="0"/>
        <pt x="344" y="-414" on="0"/>
        <pt x="432" y="-342" on="0"/>
        <pt x="432" y="-279" on="1"/>
        <pt x="432" y="-233" on="0"/>
        <pt x="360" y="-175" on="0"/>
        <pt x="280" y="-160" on="1"/>
        <pt x="374" y="-14" on="1"/>
        <pt x="135" y="34" on="0"/>
      </contour>
    </TTGlyph>
    <TTGlyph name="D" xMin="66" yMin="0" xMax="913" yMax="1462">
      <contour>
        <pt x="592" y="1462" on="1"/>
        <pt x="747" y="1462" on="0"/>
        <pt x="913" y="1250" on="0"/>
        <pt x="913" y="1047" on="1"/>
        <pt x="913" y="748" on="0"/>
        <pt x="748" y="258" on="0"/>
        <pt x="453" y="0" on="0"/>
        <pt x="256" y="0" on="1"/>
        <pt x="66" y="0" on="1"/>
        <pt x="375" y="1462" on="1"/>
      </contour>
      <contour>
        <pt x="276" y="94" on="1"/>
        <pt x="427" y="94" on="0"/>
        <pt x="667" y="326" on="0"/>
        <pt x="809" y="784" on="0"/>
        <pt x="809" y="1047" on="1"/>
        <pt x="809" y="1366" on="0"/>
        <pt x="578" y="1366" on="1"/>
        <pt x="455" y="1366" on="1"/>
        <pt x="184" y="94" on="1"/>
      </contour>
    </TTGlyph>
    <TTGlyph name="E" xMin="66" yMin="0" xMax="852" yMax="1462">
      <contour>
        <pt x="66" y="0" on="1"/>
        <pt x="375" y="1462" on="1"/>
        <pt x="852" y="1462" on="1"/>
        <pt x="831" y="1366" on="1"/>
        <pt x="455" y="1366" on="1"/>
        <pt x="338" y="813" on="1"/>
        <pt x="692" y="813" on="1"/>
        <pt x="672" y="719" on="1"/>
        <pt x="317" y="719" on="1"/>
        <pt x="184" y="94" on="1"/>
        <pt x="561" y="94" on="1"/>
        <pt x="543" y="0" on="1"/>
      </contour>
    </TTGlyph>
    <TTGlyph name="Eacute" xMin="66" yMin="0" xMax="895" yMax="1907">
      <contour>
        <pt x="533" y="1579" on="1"/>
        <pt x="533" y="1595" on="1"/>
        <pt x="686" y="1779" on="0"/>
        <pt x="756" y="1907" on="1"/>
        <pt x="895" y="1907" on="1"/>
        <pt x="895" y="1890" on="1"/>
        <pt x="852" y="1826" on="0"/>
        <pt x="661" y="1637" on="0"/>
        <pt x="584" y="1579" on="1"/>
      </contour>
      <contour>
        <pt x="375" y="1462" on="1"/>
        <pt x="852" y="1462" on="1"/>
        <pt x="831" y="1366" on="1"/>
        <pt x="455" y="1366" on="1"/>
        <pt x="338" y="813" on="1"/>
        <pt x="692" y="813" on="1"/>
        <pt x="672" y="719" on="1"/>
        <pt x="317" y="719" on="1"/>
        <pt x="184" y="94" on="1"/>
        <pt x="561" y="94" on="1"/>
        <pt x="543" y="0" on="1"/>
        <pt x="66" y="0" on="1"/>
      </contour>
    </TTGlyph>
    <TTGlyph name="Ecircumflex" xMin="66" yMin="0" xMax="852" yMax="1907">
      <contour>
        <pt x="841" y="1579" on="1"/>
        <pt x="794" y="1579" on="1"/>
        <pt x="728" y="1679" on="0"/>
        <pt x="669" y="1782" on="1"/>
        <pt x="534" y="1647" on="0"/>
        <pt x="450" y="1579" on="1"/>
        <pt x="405" y="1579" on="1"/>
        <pt x="409" y="1598" on="1"/>
        <pt x="566" y="1776" on="0"/>
        <pt x="648" y="1907" on="1"/>
        <pt x="734" y="1907" on="1"/>
        <pt x="744" y="1860" on="0"/>
        <pt x="781" y="1756" on="1"/>
        <pt x="822" y="1648" on="0"/>
        <pt x="845" y="1598" on="1"/>
      </contour>
      <contour>
        <pt x="375" y="1462" on="1"/>
        <pt x="852" y="1462" on="1"/>
        <pt x="831" y="1366" on="1"/>
        <pt x="455" y="1366" on="1"/>
        <pt x="338" y="813" on="1"/>
        <pt x="692" y="813" on="1"/>
        <pt x="672" y="719" on="1"/>
        <pt x="317" y="719" on="1"/>
        <pt x="184" y="94" on="1"/>
        <pt x="561" y="94" on="1"/>
        <pt x="543" y="0" on="1"/>
        <pt x="66" y="0" on="1"/>
      </contour>
    </TTGlyph>
    <TTGlyph name="Edieresis" xMin="66" yMin="0" xMax="852" yMax="1813">
      <contour>
        <pt x="450" y="1700" on="1"/>
        <pt x="450" y="1749" on="0"/>
        <pt x="496" y="1813" on="0"/>
        <pt x="532" y="1813" on="1"/>
        <pt x="579" y="1813" on="0"/>
        <pt x="579" y="1701" on="0"/>
        <pt x="536" y="1636" on="0"/>
        <pt x="499" y="1636" on="1"/>
        <pt x="450" y="1636" on="0"/>
      </contour>
      <contour>
        <pt x="722" y="1700" on="1"/>
        <pt x="722" y="1749" on="0"/>
        <pt x="768" y="1813" on="0"/>
        <pt x="804" y="1813" on="1"/>
        <pt x="851" y="1813" on="0"/>
        <pt x="851" y="1701" on="0"/>
        <pt x="808" y="1636" on="0"/>
        <pt x="771" y="1636" on="1"/>
        <pt x="722" y="1636" on="0"/>
      </contour>
      <contour>
        <pt x="375" y="1462" on="1"/>
        <pt x="852" y="1462" on="1"/>
        <pt x="831" y="1366" on="1"/>
        <pt x="455" y="1366" on="1"/>
        <pt x="338" y="813" on="1"/>
        <pt x="692" y="813" on="1"/>
        <pt x="672" y="719" on="1"/>
        <pt x="317" y="719" on="1"/>
        <pt x="184" y="94" on="1"/>
        <pt x="561" y="94" on="1"/>
        <pt x="543" y="0" on="1"/>
        <pt x="66" y="0" on="1"/>
      </contour>
    </TTGlyph>
    <TTGlyph name="Egrave" xMin="66" yMin="0" xMax="852" yMax="1907">
      <contour>
        <pt x="685" y="1579" on="1"/>
        <pt x="646" y="1579" on="1"/>
        <pt x="597" y="1637" on="0"/>
        <pt x="489" y="1828" on="0"/>
        <pt x="474" y="1890" on="1"/>
        <pt x="474" y="1907" on="1"/>
        <pt x="601" y="1907" on="1"/>
        <pt x="626" y="1751" on="0"/>
        <pt x="685" y="1598" on="1"/>
      </contour>
      <contour>
        <pt x="375" y="1462" on="1"/>
        <pt x="852" y="1462" on="1"/>
        <pt x="831" y="1366" on="1"/>
        <pt x="455" y="1366" on="1"/>
        <pt x="338" y="813" on="1"/>
        <pt x="692" y="813" on="1"/>
        <pt x="672" y="719" on="1"/>
        <pt x="317" y="719" on="1"/>
        <pt x="184" y="94" on="1"/>
        <pt x="561" y="94" on="1"/>
        <pt x="543" y="0" on="1"/>
        <pt x="66" y="0" on="1"/>
      </contour>
    </TTGlyph>
    <TTGlyph name="Euro" xMin="43" yMin="-20" xMax="915" yMax="1485">
      <contour>
        <pt x="729" y="1389" on="1"/>
        <pt x="608" y="1389" on="0"/>
        <pt x="397" y="1129" on="0"/>
        <pt x="332" y="899" on="1"/>
        <pt x="655" y="899" on="1"/>
        <pt x="637" y="817" on="1"/>
        <pt x="311" y="817" on="1"/>
        <pt x="293" y="739" on="0"/>
        <pt x="276" y="616" on="1"/>
        <pt x="567" y="616" on="1"/>
        <pt x="549" y="535" on="1"/>
        <pt x="270" y="535" on="1"/>
        <pt x="270" y="467" on="1"/>
        <pt x="270" y="254" on="0"/>
        <pt x="362" y="72" on="0"/>
        <pt x="467" y="72" on="1"/>
        <pt x="558" y="72" on="0"/>
        <pt x="625" y="111" on="1"/>
        <pt x="641" y="20" on="1"/>
        <pt x="564" y="-20" on="0"/>
        <pt x="446" y="-20" on="1"/>
        <pt x="310" y="-20" on="0"/>
        <pt x="172" y="219" on="0"/>
        <pt x="172" y="449" on="1"/>
        <pt x="174" y="535" on="1"/>
        <pt x="43" y="535" on="1"/>
        <pt x="61" y="616" on="1"/>
        <pt x="180" y="616" on="1"/>
        <pt x="190" y="721" on="0"/>
        <pt x="211" y="817" on="1"/>
        <pt x="102" y="817" on="1"/>
        <pt x="121" y="899" on="1"/>
        <pt x="231" y="899" on="1"/>
        <pt x="304" y="1170" on="0"/>
        <pt x="576" y="1485" on="0"/>
        <pt x="735" y="1485" on="1"/>
        <pt x="850" y="1485" on="0"/>
        <pt x="915" y="1423" on="1"/>
        <pt x="860" y="1337" on="1"/>
        <pt x="808" y="1389" on="0"/>
      </contour>
    </TTGlyph>
    <TTGlyph name="F" xMin="66" yMin="0" xMax="854" yMax="1462">
      <contour>
        <pt x="66" y="0" on="1"/>
        <pt x="375" y="1462" on="1"/>
        <pt x="854" y="1462" on="1"/>
        <pt x="834" y="1366" on="1"/>
        <pt x="455" y="1366" on="1"/>
        <pt x="326" y="752" on="1"/>
        <pt x="682" y="752" on="1"/>
        <pt x="662" y="657" on="1"/>
        <pt x="305" y="657" on="1"/>
        <pt x="166" y="0" on="1"/>
      </contour>
    </TTGlyph>
    <TTGlyph name="G" xMin="135" yMin="-20" xMax="1065" yMax="1485">
      <contour>
        <pt x="500" y="-20" on="1"/>
        <pt x="135" y="-20" on="0"/>
        <pt x="135" y="438" on="1"/>
        <pt x="135" y="622" on="0"/>
        <pt x="237" y="1032" on="0"/>
        <pt x="324" y="1184" on="1"/>
        <pt x="497" y="1485" on="0"/>
        <pt x="764" y="1485" on="1"/>
        <pt x="935" y="1485" on="0"/>
        <pt x="1065" y="1391" on="1"/>
        <pt x="1001" y="1303" on="1"/>
        <pt x="935" y="1351" on="0"/>
        <pt x="823" y="1389" on="0"/>
        <pt x="758" y="1389" on="1"/>
        <pt x="535" y="1389" on="0"/>
        <pt x="388" y="1108" on="1"/>
        <pt x="317" y="970" on="0"/>
        <pt x="233" y="602" on="0"/>
        <pt x="233" y="243" on="0"/>
        <pt x="368" y="72" on="0"/>
        <pt x="510" y="72" on="1"/>
        <pt x="612" y="72" on="0"/>
        <pt x="702" y="100" on="1"/>
        <pt x="819" y="647" on="1"/>
        <pt x="625" y="647" on="1"/>
        <pt x="645" y="741" on="1"/>
        <pt x="940" y="741" on="1"/>
        <pt x="788" y="33" on="1"/>
        <pt x="650" y="-20" on="0"/>
      </contour>
    </TTGlyph>
    <TTGlyph name="H" xMin="66" yMin="0" xMax="1012" yMax="1462">
      <contour>
        <pt x="604" y="0" on="1"/>
        <pt x="756" y="717" on="1"/>
        <pt x="315" y="717" on="1"/>
        <pt x="164" y="0" on="1"/>
        <pt x="66" y="0" on="1"/>
        <pt x="375" y="1462" on="1"/>
        <pt x="473" y="1462" on="1"/>
        <pt x="336" y="815" on="1"/>
        <pt x="776" y="815" on="1"/>
        <pt x="913" y="1462" on="1"/>
        <pt x="1012" y="1462" on="1"/>
        <pt x="702" y="0" on="1"/>
      </contour>
    </TTGlyph>
    <TTGlyph name="I" xMin="66" yMin="0" xMax="473" yMax="1462">
      <contour>
        <pt x="375" y="1462" on="1"/>
        <pt x="473" y="1462" on="1"/>
        <pt x="164" y="0" on="1"/>
        <pt x="66" y="0" on="1"/>
      </contour>
    </TTGlyph>
    <TTGlyph name="Iacute" xMin="66" yMin="0" xMax="761" yMax="1907">
      <contour>
        <pt x="399" y="1579" on="1"/>
        <pt x="399" y="1595" on="1"/>
        <pt x="552" y="1779" on="0"/>
        <pt x="622" y="1907" on="1"/>
        <pt x="761" y="1907" on="1"/>
        <pt x="761" y="1890" on="1"/>
        <pt x="718" y="1826" on="0"/>
        <pt x="527" y="1637" on="0"/>
        <pt x="450" y="1579" on="1"/>
      </contour>
      <contour>
        <pt x="473" y="1462" on="1"/>
        <pt x="164" y="0" on="1"/>
        <pt x="66" y="0" on="1"/>
        <pt x="375" y="1462" on="1"/>
      </contour>
    </TTGlyph>
    <TTGlyph name="Icircumflex" xMin="66" yMin="0" xMax="654" yMax="1907">
      <contour>
        <pt x="650" y="1579" on="1"/>
        <pt x="603" y="1579" on="1"/>
        <pt x="537" y="1679" on="0"/>
        <pt x="478" y="1782" on="1"/>
        <pt x="343" y="1647" on="0"/>
        <pt x="259" y="1579" on="1"/>
        <pt x="214" y="1579" on="1"/>
        <pt x="218" y="1598" on="1"/>
        <pt x="375" y="1776" on="0"/>
        <pt x="457" y="1907" on="1"/>
        <pt x="543" y="1907" on="1"/>
        <pt x="553" y="1860" on="0"/>
        <pt x="590" y="1756" on="1"/>
        <pt x="631" y="1648" on="0"/>
        <pt x="654" y="1598" on="1"/>
      </contour>
      <contour>
        <pt x="473" y="1462" on="1"/>
        <pt x="164" y="0" on="1"/>
        <pt x="66" y="0" on="1"/>
        <pt x="375" y="1462" on="1"/>
      </contour>
    </TTGlyph>
    <TTGlyph name="Idieresis" xMin="66" yMin="0" xMax="656" yMax="1813">
      <contour>
        <pt x="255" y="1700" on="1"/>
        <pt x="255" y="1749" on="0"/>
        <pt x="301" y="1813" on="0"/>
        <pt x="337" y="1813" on="1"/>
        <pt x="384" y="1813" on="0"/>
        <pt x="384" y="1701" on="0"/>
        <pt x="341" y="1636" on="0"/>
        <pt x="304" y="1636" on="1"/>
        <pt x="255" y="1636" on="0"/>
      </contour>
      <contour>
        <pt x="527" y="1700" on="1"/>
        <pt x="527" y="1749" on="0"/>
        <pt x="573" y="1813" on="0"/>
        <pt x="609" y="1813" on="1"/>
        <pt x="656" y="1813" on="0"/>
        <pt x="656" y="1701" on="0"/>
        <pt x="613" y="1636" on="0"/>
        <pt x="576" y="1636" on="1"/>
        <pt x="527" y="1636" on="0"/>
      </contour>
      <contour>
        <pt x="473" y="1462" on="1"/>
        <pt x="164" y="0" on="1"/>
        <pt x="66" y="0" on="1"/>
        <pt x="375" y="1462" on="1"/>
      </contour>
    </TTGlyph>
    <TTGlyph name="Igrave" xMin="66" yMin="0" xMax="473" yMax="1907">
      <contour>
        <pt x="466" y="1579" on="1"/>
        <pt x="427" y="1579" on="1"/>
        <pt x="378" y="1637" on="0"/>
        <pt x="270" y="1828" on="0"/>
        <pt x="255" y="1890" on="1"/>
        <pt x="255" y="1907" on="1"/>
        <pt x="382" y="1907" on="1"/>
        <pt x="408" y="1751" on="0"/>
        <pt x="466" y="1598" on="1"/>
      </contour>
      <contour>
        <pt x="473" y="1462" on="1"/>
        <pt x="164" y="0" on="1"/>
        <pt x="66" y="0" on="1"/>
        <pt x="375" y="1462" on="1"/>
      </contour>
    </TTGlyph>
    <TTGlyph name="J" xMin="-227" yMin="-369" xMax="475" yMax="1462">
      <contour>
        <pt x="-113" y="-369" on="1"/>
        <pt x="-184" y="-369" on="0"/>
        <pt x="-227" y="-344" on="1"/>
        <pt x="-199" y="-252" on="1"/>
        <pt x="-156" y="-272" on="0"/>
        <pt x="-109" y="-272" on="1"/>
        <pt x="-42" y="-272" on="0"/>
        <pt x="32" y="-164" on="0"/>
        <pt x="59" y="-35" on="1"/>
        <pt x="377" y="1462" on="1"/>
        <pt x="475" y="1462" on="1"/>
        <pt x="154" y="-57" on="1"/>
        <pt x="120" y="-219" on="0"/>
        <pt x="-8" y="-369" on="0"/>
      </contour>
    </TTGlyph>
    <TTGlyph name="K" xMin="66" yMin="0" xMax="948" yMax="1462">
      <contour>
        <pt x="565" y="0" on="1"/>
        <pt x="416" y="709" on="1"/>
        <pt x="287" y="580" on="1"/>
        <pt x="164" y="0" on="1"/>
        <pt x="66" y="0" on="1"/>
        <pt x="375" y="1462" on="1"/>
        <pt x="473" y="1462" on="1"/>
        <pt x="309" y="688" on="1"/>
        <pt x="432" y="868" on="1"/>
        <pt x="848" y="1462" on="1"/>
        <pt x="948" y="1462" on="1"/>
        <pt x="496" y="795" on="1"/>
        <pt x="666" y="0" on="1"/>
      </contour>
    </TTGlyph>
    <TTGlyph name="L" xMin="66" yMin="0" xMax="543" yMax="1462">
      <contour>
        <pt x="375" y="1462" on="1"/>
        <pt x="473" y="1462" on="1"/>
        <pt x="184" y="94" on="1"/>
        <pt x="543" y="94" on="1"/>
        <pt x="524" y="0" on="1"/>
        <pt x="66" y="0" on="1"/>
      </contour>
    </TTGlyph>
    <TTGlyph name="M" xMin="66" yMin="0" xMax="1343" yMax="1462">
      <contour>
        <pt x="442" y="1331" on="1"/>
        <pt x="436" y="1331" on="1"/>
        <pt x="392" y="1091" on="1"/>
        <pt x="162" y="0" on="1"/>
        <pt x="66" y="0" on="1"/>
        <pt x="375" y="1462" on="1"/>
        <pt x="535" y="1462" on="1"/>
        <pt x="569" y="354" on="1"/>
        <pt x="573" y="190" on="1"/>
        <pt x="571" y="102" on="1"/>
        <pt x="573" y="102" on="1"/>
        <pt x="589" y="151" on="0"/>
        <pt x="680" y="352" on="1"/>
        <pt x="1174" y="1462" on="1"/>
        <pt x="1343" y="1462" on="1"/>
        <pt x="1034" y="0" on="1"/>
        <pt x="934" y="0" on="1"/>
        <pt x="1172" y="1122" on="1"/>
        <pt x="1221" y="1329" on="1"/>
        <pt x="1217" y="1329" on="1"/>
        <pt x="621" y="0" on="1"/>
        <pt x="494" y="0" on="1"/>
      </contour>
    </TTGlyph>
    <TTGlyph name="N" xMin="66" yMin="0" xMax="1069" yMax="1462">
      <contour>
        <pt x="639" y="0" on="1"/>
        <pt x="438" y="1311" on="1"/>
        <pt x="430" y="1311" on="1"/>
        <pt x="417" y="1197" on="0"/>
        <pt x="385" y="1049" on="1"/>
        <pt x="164" y="0" on="1"/>
        <pt x="66" y="0" on="1"/>
        <pt x="375" y="1462" on="1"/>
        <pt x="506" y="1462" on="1"/>
        <pt x="698" y="166" on="1"/>
        <pt x="705" y="166" on="1"/>
        <pt x="719" y="252" on="1"/>
        <pt x="754" y="440" on="1"/>
        <pt x="971" y="1462" on="1"/>
        <pt x="1069" y="1462" on="1"/>
        <pt x="760" y="0" on="1"/>
      </contour>
    </TTGlyph>
    <TTGlyph name="Ntilde" xMin="66" yMin="0" xMax="1069" yMax="1821">
      <contour>
        <pt x="868" y="1589" on="1"/>
        <pt x="837" y="1589" on="0"/>
        <pt x="770" y="1630" on="0"/>
        <pt x="746" y="1654" on="1"/>
        <pt x="682" y="1720" on="0"/>
        <pt x="605" y="1720" on="0"/>
        <pt x="560" y="1655" on="0"/>
        <pt x="541" y="1587" on="1"/>
        <pt x="471" y="1587" on="1"/>
        <pt x="530" y="1817" on="0"/>
        <pt x="651" y="1817" on="1"/>
        <pt x="683" y="1817" on="0"/>
        <pt x="748" y="1776" on="0"/>
        <pt x="770" y="1752" on="1"/>
        <pt x="831" y="1686" on="0"/>
        <pt x="899" y="1686" on="0"/>
        <pt x="915" y="1708" on="1"/>
        <pt x="934" y="1731" on="0"/>
        <pt x="956" y="1821" on="1"/>
        <pt x="1026" y="1821" on="1"/>
        <pt x="998" y="1688" on="0"/>
        <pt x="924" y="1589" on="0"/>
      </contour>
      <contour>
        <pt x="438" y="1311" on="1"/>
        <pt x="430" y="1311" on="1"/>
        <pt x="417" y="1197" on="0"/>
        <pt x="385" y="1049" on="1"/>
        <pt x="164" y="0" on="1"/>
        <pt x="66" y="0" on="1"/>
        <pt x="375" y="1462" on="1"/>
        <pt x="506" y="1462" on="1"/>
        <pt x="698" y="166" on="1"/>
        <pt x="705" y="166" on="1"/>
        <pt x="719" y="252" on="1"/>
        <pt x="754" y="440" on="1"/>
        <pt x="971" y="1462" on="1"/>
        <pt x="1069" y="1462" on="1"/>
        <pt x="760" y="0" on="1"/>
        <pt x="639" y="0" on="1"/>
      </contour>
    </TTGlyph>
    <TTGlyph name="O" xMin="135" yMin="-20" xMax="977" yMax="1483">
      <contour>
        <pt x="412" y="-20" on="1"/>
        <pt x="135" y="-20" on="0"/>
        <pt x="135" y="379" on="1"/>
        <pt x="135" y="578" on="0"/>
        <pt x="228" y="1014" on="0"/>
        <pt x="305" y="1169" on="1"/>
        <pt x="461" y="1483" on="0"/>
        <pt x="702" y="1483" on="1"/>
        <pt x="977" y="1483" on="0"/>
        <pt x="977" y="1100" on="1"/>
        <pt x="977" y="818" on="0"/>
        <pt x="818" y="271" on="0"/>
        <pt x="563" y="-20" on="0"/>
      </contour>
      <contour>
        <pt x="233" y="377" on="1"/>
        <pt x="233" y="74" on="0"/>
        <pt x="420" y="74" on="1"/>
        <pt x="512" y="74" on="0"/>
        <pt x="675" y="234" on="0"/>
        <pt x="801" y="534" on="0"/>
        <pt x="879" y="934" on="0"/>
        <pt x="879" y="1100" on="1"/>
        <pt x="879" y="1389" on="0"/>
        <pt x="504" y="1389" on="0"/>
        <pt x="376" y="1095" on="1"/>
        <pt x="314" y="953" on="0"/>
        <pt x="233" y="543" on="0"/>
      </contour>
    </TTGlyph>
    <TTGlyph name="OE" xMin="135" yMin="-6" xMax="1247" yMax="1468">
      <contour>
        <pt x="135" y="395" on="1"/>
        <pt x="135" y="654" on="0"/>
        <pt x="286" y="1184" on="0"/>
        <pt x="544" y="1468" on="0"/>
        <pt x="707" y="1468" on="1"/>
        <pt x="895" y="1462" on="1"/>
        <pt x="1247" y="1462" on="1"/>
        <pt x="1227" y="1366" on="1"/>
        <pt x="850" y="1366" on="1"/>
        <pt x="733" y="813" on="1"/>
        <pt x="1087" y="813" on="1"/>
        <pt x="1067" y="719" on="1"/>
        <pt x="713" y="719" on="1"/>
        <pt x="580" y="94" on="1"/>
        <pt x="956" y="94" on="1"/>
        <pt x="938" y="0" on="1"/>
        <pt x="590" y="0" on="1"/>
        <pt x="438" y="-6" on="1"/>
        <pt x="294" y="-6" on="0"/>
        <pt x="135" y="203" on="0"/>
      </contour>
      <contour>
        <pt x="690" y="1374" on="1"/>
        <pt x="595" y="1374" on="0"/>
        <pt x="433" y="1223" on="0"/>
        <pt x="311" y="947" on="0"/>
        <pt x="233" y="562" on="0"/>
        <pt x="233" y="227" on="0"/>
        <pt x="350" y="86" on="0"/>
        <pt x="479" y="86" on="1"/>
        <pt x="750" y="1372" on="1"/>
        <pt x="720" y="1374" on="1"/>
      </contour>
    </TTGlyph>
    <TTGlyph name="Oacute" xMin="135" yMin="-20" xMax="1024" yMax="1907">
      <contour>
        <pt x="662" y="1579" on="1"/>
        <pt x="662" y="1595" on="1"/>
        <pt x="815" y="1779" on="0"/>
        <pt x="885" y="1907" on="1"/>
        <pt x="1024" y="1907" on="1"/>
        <pt x="1024" y="1890" on="1"/>
        <pt x="981" y="1826" on="0"/>
        <pt x="790" y="1637" on="0"/>
        <pt x="713" y="1579" on="1"/>
      </contour>
      <contour>
        <pt x="412" y="-20" on="1"/>
        <pt x="135" y="-20" on="0"/>
        <pt x="135" y="379" on="1"/>
        <pt x="135" y="578" on="0"/>
        <pt x="228" y="1014" on="0"/>
        <pt x="305" y="1169" on="1"/>
        <pt x="461" y="1483" on="0"/>
        <pt x="702" y="1483" on="1"/>
        <pt x="977" y="1483" on="0"/>
        <pt x="977" y="1100" on="1"/>
        <pt x="977" y="818" on="0"/>
        <pt x="818" y="271" on="0"/>
        <pt x="563" y="-20" on="0"/>
      </contour>
      <contour>
        <pt x="233" y="377" on="1"/>
        <pt x="233" y="74" on="0"/>
        <pt x="420" y="74" on="1"/>
        <pt x="512" y="74" on="0"/>
        <pt x="675" y="234" on="0"/>
        <pt x="801" y="534" on="0"/>
        <pt x="879" y="934" on="0"/>
        <pt x="879" y="1100" on="1"/>
        <pt x="879" y="1389" on="0"/>
        <pt x="504" y="1389" on="0"/>
        <pt x="376" y="1095" on="1"/>
        <pt x="314" y="953" on="0"/>
        <pt x="233" y="543" on="0"/>
      </contour>
    </TTGlyph>
    <TTGlyph name="Ocircumflex" xMin="135" yMin="-20" xMax="977" yMax="1907">
      <contour>
        <pt x="924" y="1579" on="1"/>
        <pt x="877" y="1579" on="1"/>
        <pt x="811" y="1679" on="0"/>
        <pt x="752" y="1782" on="1"/>
        <pt x="617" y="1647" on="0"/>
        <pt x="533" y="1579" on="1"/>
        <pt x="488" y="1579" on="1"/>
        <pt x="492" y="1598" on="1"/>
        <pt x="649" y="1776" on="0"/>
        <pt x="731" y="1907" on="1"/>
        <pt x="817" y="1907" on="1"/>
        <pt x="827" y="1860" on="0"/>
        <pt x="864" y="1756" on="1"/>
        <pt x="905" y="1648" on="0"/>
        <pt x="928" y="1598" on="1"/>
      </contour>
      <contour>
        <pt x="412" y="-20" on="1"/>
        <pt x="135" y="-20" on="0"/>
        <pt x="135" y="379" on="1"/>
        <pt x="135" y="578" on="0"/>
        <pt x="228" y="1014" on="0"/>
        <pt x="305" y="1169" on="1"/>
        <pt x="461" y="1483" on="0"/>
        <pt x="702" y="1483" on="1"/>
        <pt x="977" y="1483" on="0"/>
        <pt x="977" y="1100" on="1"/>
        <pt x="977" y="818" on="0"/>
        <pt x="818" y="271" on="0"/>
        <pt x="563" y="-20" on="0"/>
      </contour>
      <contour>
        <pt x="233" y="377" on="1"/>
        <pt x="233" y="74" on="0"/>
        <pt x="420" y="74" on="1"/>
        <pt x="512" y="74" on="0"/>
        <pt x="675" y="234" on="0"/>
        <pt x="801" y="534" on="0"/>
        <pt x="879" y="934" on="0"/>
        <pt x="879" y="1100" on="1"/>
        <pt x="879" y="1389" on="0"/>
        <pt x="504" y="1389" on="0"/>
        <pt x="376" y="1095" on="1"/>
        <pt x="314" y="953" on="0"/>
        <pt x="233" y="543" on="0"/>
      </contour>
    </TTGlyph>
    <TTGlyph name="Odieresis" xMin="135" yMin="-20" xMax="977" yMax="1813">
      <contour>
        <pt x="547" y="1700" on="1"/>
        <pt x="547" y="1749" on="0"/>
        <pt x="593" y="1813" on="0"/>
        <pt x="629" y="1813" on="1"/>
        <pt x="676" y="1813" on="0"/>
        <pt x="676" y="1701" on="0"/>
        <pt x="633" y="1636" on="0"/>
        <pt x="596" y="1636" on="1"/>
        <pt x="547" y="1636" on="0"/>
      </contour>
      <contour>
        <pt x="819" y="1700" on="1"/>
        <pt x="819" y="1749" on="0"/>
        <pt x="865" y="1813" on="0"/>
        <pt x="901" y="1813" on="1"/>
        <pt x="948" y="1813" on="0"/>
        <pt x="948" y="1701" on="0"/>
        <pt x="905" y="1636" on="0"/>
        <pt x="868" y="1636" on="1"/>
        <pt x="819" y="1636" on="0"/>
      </contour>
      <contour>
        <pt x="412" y="-20" on="1"/>
        <pt x="135" y="-20" on="0"/>
        <pt x="135" y="379" on="1"/>
        <pt x="135" y="578" on="0"/>
        <pt x="228" y="1014" on="0"/>
        <pt x="305" y="1169" on="1"/>
        <pt x="461" y="1483" on="0"/>
        <pt x="702" y="1483" on="1"/>
        <pt x="977" y="1483" on="0"/>
        <pt x="977" y="1100" on="1"/>
        <pt x="977" y="818" on="0"/>
        <pt x="818" y="271" on="0"/>
        <pt x="563" y="-20" on="0"/>
      </contour>
      <contour>
        <pt x="233" y="377" on="1"/>
        <pt x="233" y="74" on="0"/>
        <pt x="420" y="74" on="1"/>
        <pt x="512" y="74" on="0"/>
        <pt x="675" y="234" on="0"/>
        <pt x="801" y="534" on="0"/>
        <pt x="879" y="934" on="0"/>
        <pt x="879" y="1100" on="1"/>
        <pt x="879" y="1389" on="0"/>
        <pt x="504" y="1389" on="0"/>
        <pt x="376" y="1095" on="1"/>
        <pt x="314" y="953" on="0"/>
        <pt x="233" y="543" on="0"/>
      </contour>
    </TTGlyph>
    <TTGlyph name="Ograve" xMin="135" yMin="-20" xMax="977" yMax="1907">
      <contour>
        <pt x="800" y="1579" on="1"/>
        <pt x="761" y="1579" on="1"/>
        <pt x="712" y="1637" on="0"/>
        <pt x="604" y="1828" on="0"/>
        <pt x="589" y="1890" on="1"/>
        <pt x="589" y="1907" on="1"/>
        <pt x="716" y="1907" on="1"/>
        <pt x="742" y="1751" on="0"/>
        <pt x="800" y="1598" on="1"/>
      </contour>
      <contour>
        <pt x="412" y="-20" on="1"/>
        <pt x="135" y="-20" on="0"/>
        <pt x="135" y="379" on="1"/>
        <pt x="135" y="578" on="0"/>
        <pt x="228" y="1014" on="0"/>
        <pt x="305" y="1169" on="1"/>
        <pt x="461" y="1483" on="0"/>
        <pt x="702" y="1483" on="1"/>
        <pt x="977" y="1483" on="0"/>
        <pt x="977" y="1100" on="1"/>
        <pt x="977" y="818" on="0"/>
        <pt x="818" y="271" on="0"/>
        <pt x="563" y="-20" on="0"/>
      </contour>
      <contour>
        <pt x="233" y="377" on="1"/>
        <pt x="233" y="74" on="0"/>
        <pt x="420" y="74" on="1"/>
        <pt x="512" y="74" on="0"/>
        <pt x="675" y="234" on="0"/>
        <pt x="801" y="534" on="0"/>
        <pt x="879" y="934" on="0"/>
        <pt x="879" y="1100" on="1"/>
        <pt x="879" y="1389" on="0"/>
        <pt x="504" y="1389" on="0"/>
        <pt x="376" y="1095" on="1"/>
        <pt x="314" y="953" on="0"/>
        <pt x="233" y="543" on="0"/>
      </contour>
    </TTGlyph>
    <TTGlyph name="Oslash" xMin="23" yMin="-94" xMax="1096" yMax="1546">
      <contour>
        <pt x="977" y="1100" on="1"/>
        <pt x="977" y="818" on="0"/>
        <pt x="818" y="271" on="0"/>
        <pt x="563" y="-20" on="0"/>
        <pt x="274" y="-20" on="0"/>
        <pt x="203" y="82" on="1"/>
        <pt x="92" y="-94" on="1"/>
        <pt x="23" y="-53" on="1"/>
        <pt x="162" y="170" on="1"/>
        <pt x="135" y="252" on="0"/>
        <pt x="135" y="379" on="1"/>
        <pt x="135" y="578" on="0"/>
        <pt x="228" y="1014" on="0"/>
        <pt x="305" y="1169" on="1"/>
        <pt x="461" y="1483" on="0"/>
        <pt x="702" y="1483" on="1"/>
        <pt x="848" y="1483" on="0"/>
        <pt x="915" y="1374" on="1"/>
        <pt x="1024" y="1546" on="1"/>
        <pt x="1096" y="1501" on="1"/>
        <pt x="956" y="1280" on="1"/>
        <pt x="977" y="1200" on="0"/>
      </contour>
      <contour>
        <pt x="692" y="1389" on="1"/>
        <pt x="504" y="1389" on="0"/>
        <pt x="376" y="1095" on="1"/>
        <pt x="314" y="953" on="0"/>
        <pt x="233" y="543" on="0"/>
        <pt x="233" y="377" on="1"/>
        <pt x="233" y="319" on="0"/>
        <pt x="238" y="291" on="1"/>
        <pt x="852" y="1272" on="1"/>
        <pt x="807" y="1389" on="0"/>
      </contour>
      <contour>
        <pt x="420" y="74" on="1"/>
        <pt x="512" y="74" on="0"/>
        <pt x="675" y="234" on="0"/>
        <pt x="801" y="534" on="0"/>
        <pt x="879" y="934" on="0"/>
        <pt x="879" y="1100" on="1"/>
        <pt x="877" y="1153" on="1"/>
        <pt x="264" y="180" on="1"/>
        <pt x="309" y="74" on="0"/>
      </contour>
    </TTGlyph>
    <TTGlyph name="Otilde" xMin="135" yMin="-20" xMax="1005" yMax="1821">
      <contour>
        <pt x="847" y="1589" on="1"/>
        <pt x="816" y="1589" on="0"/>
        <pt x="749" y="1630" on="0"/>
        <pt x="725" y="1654" on="1"/>
        <pt x="661" y="1720" on="0"/>
        <pt x="584" y="1720" on="0"/>
        <pt x="539" y="1655" on="0"/>
        <pt x="520" y="1587" on="1"/>
        <pt x="450" y="1587" on="1"/>
        <pt x="509" y="1817" on="0"/>
        <pt x="630" y="1817" on="1"/>
        <pt x="662" y="1817" on="0"/>
        <pt x="728" y="1776" on="0"/>
        <pt x="750" y="1752" on="1"/>
        <pt x="809" y="1686" on="0"/>
        <pt x="878" y="1686" on="0"/>
        <pt x="894" y="1708" on="1"/>
        <pt x="913" y="1731" on="0"/>
        <pt x="935" y="1821" on="1"/>
        <pt x="1005" y="1821" on="1"/>
        <pt x="976" y="1688" on="0"/>
        <pt x="903" y="1589" on="0"/>
      </contour>
      <contour>
        <pt x="412" y="-20" on="1"/>
        <pt x="135" y="-20" on="0"/>
        <pt x="135" y="379" on="1"/>
        <pt x="135" y="578" on="0"/>
        <pt x="228" y="1014" on="0"/>
        <pt x="305" y="1169" on="1"/>
        <pt x="461" y="1483" on="0"/>
        <pt x="702" y="1483" on="1"/>
        <pt x="977" y="1483" on="0"/>
        <pt x="977" y="1100" on="1"/>
        <pt x="977" y="818" on="0"/>
        <pt x="818" y="271" on="0"/>
        <pt x="563" y="-20" on="0"/>
      </contour>
      <contour>
        <pt x="233" y="377" on="1"/>
        <pt x="233" y="74" on="0"/>
        <pt x="420" y="74" on="1"/>
        <pt x="512" y="74" on="0"/>
        <pt x="675" y="234" on="0"/>
        <pt x="801" y="534" on="0"/>
        <pt x="879" y="934" on="0"/>
        <pt x="879" y="1100" on="1"/>
        <pt x="879" y="1389" on="0"/>
        <pt x="504" y="1389" on="0"/>
        <pt x="376" y="1095" on="1"/>
        <pt x="314" y="953" on="0"/>
        <pt x="233" y="543" on="0"/>
      </contour>
    </TTGlyph>
    <TTGlyph name="P" xMin="66" yMin="0" xMax="858" yMax="1462">
      <contour>
        <pt x="545" y="1462" on="1"/>
        <pt x="690" y="1462" on="0"/>
        <pt x="774" y="1378" on="1"/>
        <pt x="858" y="1296" on="0"/>
        <pt x="858" y="1155" on="1"/>
        <pt x="858" y="1152" on="0"/>
        <pt x="858" y="1150" on="1"/>
        <pt x="858" y="997" on="0"/>
        <pt x="744" y="747" on="0"/>
        <pt x="530" y="604" on="0"/>
        <pt x="394" y="604" on="1"/>
        <pt x="391" y="604" on="0"/>
        <pt x="387" y="604" on="1"/>
        <pt x="291" y="604" on="1"/>
        <pt x="164" y="0" on="1"/>
        <pt x="66" y="0" on="1"/>
        <pt x="375" y="1462" on="1"/>
      </contour>
      <contour>
        <pt x="381" y="698" on="1"/>
        <pt x="559" y="698" on="0"/>
        <pt x="754" y="929" on="0"/>
        <pt x="754" y="1139" on="1"/>
        <pt x="754" y="1247" on="0"/>
        <pt x="637" y="1366" on="0"/>
        <pt x="530" y="1366" on="1"/>
        <pt x="453" y="1366" on="1"/>
        <pt x="311" y="698" on="1"/>
      </contour>
    </TTGlyph>
    <TTGlyph name="Q" xMin="135" yMin="-348" xMax="977" yMax="1483">
      <contour>
        <pt x="135" y="379" on="1"/>
        <pt x="135" y="578" on="0"/>
        <pt x="228" y="1014" on="0"/>
        <pt x="305" y="1169" on="1"/>
        <pt x="461" y="1483" on="0"/>
        <pt x="702" y="1483" on="1"/>
        <pt x="977" y="1483" on="0"/>
        <pt x="977" y="1081" on="1"/>
        <pt x="977" y="849" on="0"/>
        <pt x="857" y="371" on="0"/>
        <pt x="759" y="214" on="1"/>
        <pt x="661" y="59" on="0"/>
        <pt x="541" y="8" on="1"/>
        <pt x="655" y="-348" on="1"/>
        <pt x="539" y="-348" on="1"/>
        <pt x="442" y="-18" on="1"/>
        <pt x="412" y="-20" on="1"/>
        <pt x="135" y="-20" on="0"/>
      </contour>
      <contour>
        <pt x="233" y="371" on="1"/>
        <pt x="233" y="74" on="0"/>
        <pt x="420" y="74" on="1"/>
        <pt x="544" y="74" on="0"/>
        <pt x="752" y="369" on="0"/>
        <pt x="879" y="880" on="0"/>
        <pt x="879" y="1108" on="1"/>
        <pt x="879" y="1389" on="0"/>
        <pt x="692" y="1389" on="1"/>
        <pt x="566" y="1389" on="0"/>
        <pt x="359" y="1110" on="0"/>
        <pt x="233" y="594" on="0"/>
      </contour>
    </TTGlyph>
    <TTGlyph name="R" xMin="66" yMin="0" xMax="856" yMax="1462">
      <contour>
        <pt x="555" y="1462" on="1"/>
        <pt x="696" y="1462" on="0"/>
        <pt x="775" y="1380" on="1"/>
        <pt x="856" y="1298" on="0"/>
        <pt x="856" y="1153" on="1"/>
        <pt x="856" y="1150" on="0"/>
        <pt x="856" y="1147" on="1"/>
        <pt x="856" y="1031" on="0"/>
        <pt x="779" y="818" on="0"/>
        <pt x="635" y="672" on="0"/>
        <pt x="547" y="657" on="1"/>
        <pt x="668" y="0" on="1"/>
        <pt x="561" y="0" on="1"/>
        <pt x="444" y="639" on="1"/>
        <pt x="299" y="639" on="1"/>
        <pt x="164" y="0" on="1"/>
        <pt x="66" y="0" on="1"/>
        <pt x="375" y="1462" on="1"/>
      </contour>
      <contour>
        <pt x="422" y="729" on="1"/>
        <pt x="579" y="729" on="0"/>
        <pt x="754" y="947" on="0"/>
        <pt x="754" y="1145" on="1"/>
        <pt x="754" y="1252" on="0"/>
        <pt x="638" y="1366" on="0"/>
        <pt x="530" y="1366" on="1"/>
        <pt x="453" y="1366" on="1"/>
        <pt x="317" y="729" on="1"/>
      </contour>
    </TTGlyph>
    <TTGlyph name="S" xMin="10" yMin="-20" xMax="844" yMax="1483">
      <contour>
        <pt x="583" y="1386" on="1"/>
        <pt x="466" y="1386" on="0"/>
        <pt x="315" y="1224" on="0"/>
        <pt x="315" y="1103" on="1"/>
        <pt x="315" y="1025" on="0"/>
        <pt x="375" y="899" on="0"/>
        <pt x="461" y="813" on="1"/>
        <pt x="555" y="716" on="0"/>
        <pt x="585" y="666" on="1"/>
        <pt x="655" y="550" on="0"/>
        <pt x="655" y="399" on="1"/>
        <pt x="655" y="204" on="0"/>
        <pt x="448" y="-20" on="0"/>
        <pt x="264" y="-20" on="1"/>
        <pt x="188" y="-20" on="0"/>
        <pt x="48" y="13" on="0"/>
        <pt x="10" y="37" on="1"/>
        <pt x="10" y="145" on="1"/>
        <pt x="132" y="74" on="0"/>
        <pt x="405" y="74" on="0"/>
        <pt x="479" y="160" on="1"/>
        <pt x="553" y="248" on="0"/>
        <pt x="553" y="397" on="1"/>
        <pt x="553" y="515" on="0"/>
        <pt x="493" y="607" on="1"/>
        <pt x="462" y="655" on="0"/>
        <pt x="307" y="819" on="0"/>
        <pt x="275" y="869" on="1"/>
        <pt x="213" y="967" on="0"/>
        <pt x="213" y="1200" on="0"/>
        <pt x="310" y="1384" on="0"/>
        <pt x="485" y="1483" on="0"/>
        <pt x="602" y="1483" on="1"/>
        <pt x="668" y="1483" on="0"/>
        <pt x="810" y="1447" on="0"/>
        <pt x="844" y="1423" on="1"/>
        <pt x="791" y="1329" on="1"/>
        <pt x="699" y="1386" on="0"/>
        <pt x="592" y="1386" on="1"/>
        <pt x="588" y="1386" on="0"/>
      </contour>
    </TTGlyph>
    <TTGlyph name="T" xMin="190" yMin="0" xMax="856" yMax="1462">
      <contour>
        <pt x="190" y="0" on="1"/>
        <pt x="479" y="1366" on="1"/>
        <pt x="223" y="1366" on="1"/>
        <pt x="244" y="1462" on="1"/>
        <pt x="856" y="1462" on="1"/>
        <pt x="836" y="1366" on="1"/>
        <pt x="580" y="1366" on="1"/>
        <pt x="291" y="0" on="1"/>
      </contour>
    </TTGlyph>
    <TTGlyph name="U" xMin="129" yMin="-20" xMax="1012" yMax="1462">
      <contour>
        <pt x="385" y="-20" on="1"/>
        <pt x="261" y="-20" on="0"/>
        <pt x="129" y="135" on="0"/>
        <pt x="129" y="276" on="1"/>
        <pt x="129" y="352" on="0"/>
        <pt x="147" y="440" on="1"/>
        <pt x="367" y="1462" on="1"/>
        <pt x="465" y="1462" on="1"/>
        <pt x="244" y="428" on="1"/>
        <pt x="225" y="351" on="0"/>
        <pt x="225" y="276" on="1"/>
        <pt x="225" y="74" on="0"/>
        <pt x="397" y="74" on="1"/>
        <pt x="512" y="74" on="0"/>
        <pt x="656" y="255" on="0"/>
        <pt x="698" y="457" on="1"/>
        <pt x="913" y="1462" on="1"/>
        <pt x="1012" y="1462" on="1"/>
        <pt x="797" y="459" on="1"/>
        <pt x="741" y="204" on="0"/>
        <pt x="549" y="-20" on="0"/>
      </contour>
    </TTGlyph>
    <TTGlyph name="Uacute" xMin="129" yMin="-20" xMax="1012" yMax="1907">
      <contour>
        <pt x="602" y="1579" on="1"/>
        <pt x="602" y="1595" on="1"/>
        <pt x="755" y="1779" on="0"/>
        <pt x="825" y="1907" on="1"/>
        <pt x="964" y="1907" on="1"/>
        <pt x="964" y="1890" on="1"/>
        <pt x="921" y="1826" on="0"/>
        <pt x="730" y="1637" on="0"/>
        <pt x="653" y="1579" on="1"/>
      </contour>
      <contour>
        <pt x="385" y="-20" on="1"/>
        <pt x="261" y="-20" on="0"/>
        <pt x="129" y="135" on="0"/>
        <pt x="129" y="276" on="1"/>
        <pt x="129" y="352" on="0"/>
        <pt x="147" y="440" on="1"/>
        <pt x="367" y="1462" on="1"/>
        <pt x="465" y="1462" on="1"/>
        <pt x="244" y="428" on="1"/>
        <pt x="225" y="351" on="0"/>
        <pt x="225" y="276" on="1"/>
        <pt x="225" y="74" on="0"/>
        <pt x="397" y="74" on="1"/>
        <pt x="512" y="74" on="0"/>
        <pt x="656" y="255" on="0"/>
        <pt x="698" y="457" on="1"/>
        <pt x="913" y="1462" on="1"/>
        <pt x="1012" y="1462" on="1"/>
        <pt x="797" y="459" on="1"/>
        <pt x="741" y="204" on="0"/>
        <pt x="549" y="-20" on="0"/>
      </contour>
    </TTGlyph>
    <TTGlyph name="Ucircumflex" xMin="129" yMin="-20" xMax="1012" yMax="1907">
      <contour>
        <pt x="918" y="1579" on="1"/>
        <pt x="871" y="1579" on="1"/>
        <pt x="805" y="1679" on="0"/>
        <pt x="746" y="1782" on="1"/>
        <pt x="611" y="1647" on="0"/>
        <pt x="527" y="1579" on="1"/>
        <pt x="482" y="1579" on="1"/>
        <pt x="486" y="1598" on="1"/>
        <pt x="643" y="1776" on="0"/>
        <pt x="725" y="1907" on="1"/>
        <pt x="811" y="1907" on="1"/>
        <pt x="821" y="1860" on="0"/>
        <pt x="858" y="1756" on="1"/>
        <pt x="899" y="1648" on="0"/>
        <pt x="922" y="1598" on="1"/>
      </contour>
      <contour>
        <pt x="385" y="-20" on="1"/>
        <pt x="261" y="-20" on="0"/>
        <pt x="129" y="135" on="0"/>
        <pt x="129" y="276" on="1"/>
        <pt x="129" y="352" on="0"/>
        <pt x="147" y="440" on="1"/>
        <pt x="367" y="1462" on="1"/>
        <pt x="465" y="1462" on="1"/>
        <pt x="244" y="428" on="1"/>
        <pt x="225" y="351" on="0"/>
        <pt x="225" y="276" on="1"/>
        <pt x="225" y="74" on="0"/>
        <pt x="397" y="74" on="1"/>
        <pt x="512" y="74" on="0"/>
        <pt x="656" y="255" on="0"/>
        <pt x="698" y="457" on="1"/>
        <pt x="913" y="1462" on="1"/>
        <pt x="1012" y="1462" on="1"/>
        <pt x="797" y="459" on="1"/>
        <pt x="741" y="204" on="0"/>
        <pt x="549" y="-20" on="0"/>
      </contour>
    </TTGlyph>
    <TTGlyph name="Udieresis" xMin="129" yMin="-20" xMax="1012" yMax="1813">
      <contour>
        <pt x="527" y="1700" on="1"/>
        <pt x="527" y="1749" on="0"/>
        <pt x="573" y="1813" on="0"/>
        <pt x="609" y="1813" on="1"/>
        <pt x="656" y="1813" on="0"/>
        <pt x="656" y="1701" on="0"/>
        <pt x="613" y="1636" on="0"/>
        <pt x="576" y="1636" on="1"/>
        <pt x="527" y="1636" on="0"/>
      </contour>
      <contour>
        <pt x="799" y="1700" on="1"/>
        <pt x="799" y="1749" on="0"/>
        <pt x="845" y="1813" on="0"/>
        <pt x="881" y="1813" on="1"/>
        <pt x="928" y="1813" on="0"/>
        <pt x="928" y="1701" on="0"/>
        <pt x="885" y="1636" on="0"/>
        <pt x="848" y="1636" on="1"/>
        <pt x="799" y="1636" on="0"/>
      </contour>
      <contour>
        <pt x="385" y="-20" on="1"/>
        <pt x="261" y="-20" on="0"/>
        <pt x="129" y="135" on="0"/>
        <pt x="129" y="276" on="1"/>
        <pt x="129" y="352" on="0"/>
        <pt x="147" y="440" on="1"/>
        <pt x="367" y="1462" on="1"/>
        <pt x="465" y="1462" on="1"/>
        <pt x="244" y="428" on="1"/>
        <pt x="225" y="351" on="0"/>
        <pt x="225" y="276" on="1"/>
        <pt x="225" y="74" on="0"/>
        <pt x="397" y="74" on="1"/>
        <pt x="512" y="74" on="0"/>
        <pt x="656" y="255" on="0"/>
        <pt x="698" y="457" on="1"/>
        <pt x="913" y="1462" on="1"/>
        <pt x="1012" y="1462" on="1"/>
        <pt x="797" y="459" on="1"/>
        <pt x="741" y="204" on="0"/>
        <pt x="549" y="-20" on="0"/>
      </contour>
    </TTGlyph>
    <TTGlyph name="Ugrave" xMin="129" yMin="-20" xMax="1012" yMax="1907">
      <contour>
        <pt x="756" y="1579" on="1"/>
        <pt x="717" y="1579" on="1"/>
        <pt x="668" y="1637" on="0"/>
        <pt x="560" y="1828" on="0"/>
        <pt x="545" y="1890" on="1"/>
        <pt x="545" y="1907" on="1"/>
        <pt x="672" y="1907" on="1"/>
        <pt x="698" y="1751" on="0"/>
        <pt x="756" y="1598" on="1"/>
      </contour>
      <contour>
        <pt x="385" y="-20" on="1"/>
        <pt x="261" y="-20" on="0"/>
        <pt x="129" y="135" on="0"/>
        <pt x="129" y="276" on="1"/>
        <pt x="129" y="352" on="0"/>
        <pt x="147" y="440" on="1"/>
        <pt x="367" y="1462" on="1"/>
        <pt x="465" y="1462" on="1"/>
        <pt x="244" y="428" on="1"/>
        <pt x="225" y="351" on="0"/>
        <pt x="225" y="276" on="1"/>
        <pt x="225" y="74" on="0"/>
        <pt x="397" y="74" on="1"/>
        <pt x="512" y="74" on="0"/>
        <pt x="656" y="255" on="0"/>
        <pt x="698" y="457" on="1"/>
        <pt x="913" y="1462" on="1"/>
        <pt x="1012" y="1462" on="1"/>
        <pt x="797" y="459" on="1"/>
        <pt x="741" y="204" on="0"/>
        <pt x="549" y="-20" on="0"/>
      </contour>
    </TTGlyph>
    <TTGlyph name="V" xMin="231" yMin="0" xMax="950" yMax="1462">
      <contour>
        <pt x="231" y="0" on="1"/>
        <pt x="231" y="1462" on="1"/>
        <pt x="330" y="1462" on="1"/>
        <pt x="330" y="553" on="1"/>
        <pt x="330" y="392" on="0"/>
        <pt x="307" y="121" on="1"/>
        <pt x="345" y="237" on="0"/>
        <pt x="432" y="455" on="1"/>
        <pt x="850" y="1462" on="1"/>
        <pt x="950" y="1462" on="1"/>
        <pt x="340" y="0" on="1"/>
      </contour>
    </TTGlyph>
    <TTGlyph name="W" xMin="205" yMin="0" xMax="1477" yMax="1462">
      <contour>
        <pt x="1477" y="1462" on="1"/>
        <pt x="889" y="0" on="1"/>
        <pt x="768" y="0" on="1"/>
        <pt x="815" y="1094" on="1"/>
        <pt x="831" y="1333" on="1"/>
        <pt x="752" y="1096" on="1"/>
        <pt x="326" y="0" on="1"/>
        <pt x="205" y="0" on="1"/>
        <pt x="231" y="1462" on="1"/>
        <pt x="332" y="1462" on="1"/>
        <pt x="305" y="455" on="1"/>
        <pt x="298" y="245" on="0"/>
        <pt x="287" y="111" on="1"/>
        <pt x="313" y="185" on="1"/>
        <pt x="412" y="451" on="1"/>
        <pt x="801" y="1462" on="1"/>
        <pt x="909" y="1462" on="1"/>
        <pt x="877" y="492" on="1"/>
        <pt x="867" y="254" on="0"/>
        <pt x="852" y="111" on="1"/>
        <pt x="938" y="354" on="0"/>
        <pt x="979" y="455" on="1"/>
        <pt x="1376" y="1462" on="1"/>
      </contour>
    </TTGlyph>
    <TTGlyph name="X" xMin="-57" yMin="0" xMax="856" yMax="1462">
      <contour>
        <pt x="446" y="0" on="1"/>
        <pt x="393" y="666" on="1"/>
        <pt x="45" y="0" on="1"/>
        <pt x="-57" y="0" on="1"/>
        <pt x="362" y="791" on="1"/>
        <pt x="281" y="1462" on="1"/>
        <pt x="381" y="1462" on="1"/>
        <pt x="449" y="856" on="1"/>
        <pt x="756" y="1462" on="1"/>
        <pt x="856" y="1462" on="1"/>
        <pt x="479" y="743" on="1"/>
        <pt x="547" y="0" on="1"/>
      </contour>
    </TTGlyph>
    <TTGlyph name="Y" xMin="180" yMin="0" xMax="848" yMax="1462">
      <contour>
        <pt x="745" y="1462" on="1"/>
        <pt x="848" y="1462" on="1"/>
        <pt x="401" y="571" on="1"/>
        <pt x="281" y="0" on="1"/>
        <pt x="180" y="0" on="1"/>
        <pt x="301" y="571" on="1"/>
        <pt x="227" y="1462" on="1"/>
        <pt x="328" y="1462" on="1"/>
        <pt x="379" y="707" on="1"/>
      </contour>
    </TTGlyph>
    <TTGlyph name="Ydieresis" xMin="180" yMin="0" xMax="848" yMax="1813">
      <contour>
        <pt x="372" y="1700" on="1"/>
        <pt x="372" y="1749" on="0"/>
        <pt x="418" y="1813" on="0"/>
        <pt x="454" y="1813" on="1"/>
        <pt x="501" y="1813" on="0"/>
        <pt x="501" y="1701" on="0"/>
        <pt x="458" y="1636" on="0"/>
        <pt x="421" y="1636" on="1"/>
        <pt x="372" y="1636" on="0"/>
      </contour>
      <contour>
        <pt x="644" y="1700" on="1"/>
        <pt x="644" y="1749" on="0"/>
        <pt x="690" y="1813" on="0"/>
        <pt x="726" y="1813" on="1"/>
        <pt x="773" y="1813" on="0"/>
        <pt x="773" y="1701" on="0"/>
        <pt x="730" y="1636" on="0"/>
        <pt x="693" y="1636" on="1"/>
        <pt x="644" y="1636" on="0"/>
      </contour>
      <contour>
        <pt x="848" y="1462" on="1"/>
        <pt x="401" y="571" on="1"/>
        <pt x="281" y="0" on="1"/>
        <pt x="180" y="0" on="1"/>
        <pt x="301" y="571" on="1"/>
        <pt x="227" y="1462" on="1"/>
        <pt x="328" y="1462" on="1"/>
        <pt x="379" y="707" on="1"/>
        <pt x="745" y="1462" on="1"/>
      </contour>
    </TTGlyph>
    <TTGlyph name="Z" xMin="-25" yMin="0" xMax="762" yMax="1462">
      <contour>
        <pt x="-25" y="0" on="1"/>
        <pt x="-6" y="88" on="1"/>
        <pt x="635" y="1366" on="1"/>
        <pt x="268" y="1366" on="1"/>
        <pt x="289" y="1462" on="1"/>
        <pt x="762" y="1462" on="1"/>
        <pt x="743" y="1372" on="1"/>
        <pt x="92" y="94" on="1"/>
        <pt x="483" y="94" on="1"/>
        <pt x="465" y="0" on="1"/>
      </contour>
    </TTGlyph>
    <TTGlyph name="a" xMin="119" yMin="-20" xMax="860" yMax="1106">
      <contour>
        <pt x="319" y="-20" on="1"/>
        <pt x="119" y="-20" on="0"/>
        <pt x="119" y="262" on="1"/>
        <pt x="119" y="469" on="0"/>
        <pt x="244" y="881" on="0"/>
        <pt x="443" y="1106" on="0"/>
        <pt x="561" y="1106" on="1"/>
        <pt x="694" y="1106" on="0"/>
        <pt x="735" y="956" on="1"/>
        <pt x="741" y="956" on="1"/>
        <pt x="780" y="1085" on="1"/>
        <pt x="860" y="1085" on="1"/>
        <pt x="631" y="0" on="1"/>
        <pt x="555" y="0" on="1"/>
        <pt x="573" y="156" on="1"/>
        <pt x="569" y="156" on="1"/>
        <pt x="455" y="-20" on="0"/>
      </contour>
      <contour>
        <pt x="338" y="63" on="1"/>
        <pt x="428" y="63" on="0"/>
        <pt x="584" y="270" on="0"/>
        <pt x="692" y="670" on="0"/>
        <pt x="692" y="848" on="1"/>
        <pt x="692" y="930" on="0"/>
        <pt x="622" y="1016" on="0"/>
        <pt x="557" y="1016" on="1"/>
        <pt x="469" y="1016" on="0"/>
        <pt x="319" y="814" on="0"/>
        <pt x="217" y="420" on="0"/>
        <pt x="217" y="248" on="1"/>
        <pt x="217" y="154" on="0"/>
        <pt x="272" y="63" on="0"/>
      </contour>
    </TTGlyph>
    <TTGlyph name="aacute" xMin="119" yMin="-20" xMax="860" yMax="1569">
      <contour>
        <pt x="468" y="1241" on="1"/>
        <pt x="468" y="1257" on="1"/>
        <pt x="621" y="1441" on="0"/>
        <pt x="691" y="1569" on="1"/>
        <pt x="830" y="1569" on="1"/>
        <pt x="830" y="1552" on="1"/>
        <pt x="787" y="1488" on="0"/>
        <pt x="596" y="1299" on="0"/>
        <pt x="519" y="1241" on="1"/>
      </contour>
      <contour>
        <pt x="319" y="-20" on="1"/>
        <pt x="119" y="-20" on="0"/>
        <pt x="119" y="262" on="1"/>
        <pt x="119" y="469" on="0"/>
        <pt x="244" y="881" on="0"/>
        <pt x="443" y="1106" on="0"/>
        <pt x="561" y="1106" on="1"/>
        <pt x="694" y="1106" on="0"/>
        <pt x="735" y="956" on="1"/>
        <pt x="741" y="956" on="1"/>
        <pt x="780" y="1085" on="1"/>
        <pt x="860" y="1085" on="1"/>
        <pt x="631" y="0" on="1"/>
        <pt x="555" y="0" on="1"/>
        <pt x="573" y="156" on="1"/>
        <pt x="569" y="156" on="1"/>
        <pt x="455" y="-20" on="0"/>
      </contour>
      <contour>
        <pt x="338" y="63" on="1"/>
        <pt x="428" y="63" on="0"/>
        <pt x="584" y="270" on="0"/>
        <pt x="692" y="670" on="0"/>
        <pt x="692" y="848" on="1"/>
        <pt x="692" y="930" on="0"/>
        <pt x="622" y="1016" on="0"/>
        <pt x="557" y="1016" on="1"/>
        <pt x="469" y="1016" on="0"/>
        <pt x="319" y="814" on="0"/>
        <pt x="217" y="420" on="0"/>
        <pt x="217" y="248" on="1"/>
        <pt x="217" y="154" on="0"/>
        <pt x="272" y="63" on="0"/>
      </contour>
    </TTGlyph>
    <TTGlyph name="acircumflex" xMin="119" yMin="-20" xMax="860" yMax="1571">
      <contour>
        <pt x="790" y="1243" on="1"/>
        <pt x="743" y="1243" on="1"/>
        <pt x="677" y="1343" on="0"/>
        <pt x="618" y="1446" on="1"/>
        <pt x="483" y="1311" on="0"/>
        <pt x="399" y="1243" on="1"/>
        <pt x="354" y="1243" on="1"/>
        <pt x="358" y="1262" on="1"/>
        <pt x="515" y="1440" on="0"/>
        <pt x="597" y="1571" on="1"/>
        <pt x="683" y="1571" on="1"/>
        <pt x="693" y="1524" on="0"/>
        <pt x="730" y="1420" on="1"/>
        <pt x="771" y="1312" on="0"/>
        <pt x="794" y="1262" on="1"/>
      </contour>
      <contour>
        <pt x="319" y="-20" on="1"/>
        <pt x="119" y="-20" on="0"/>
        <pt x="119" y="262" on="1"/>
        <pt x="119" y="469" on="0"/>
        <pt x="244" y="881" on="0"/>
        <pt x="443" y="1106" on="0"/>
        <pt x="561" y="1106" on="1"/>
        <pt x="694" y="1106" on="0"/>
        <pt x="735" y="956" on="1"/>
        <pt x="741" y="956" on="1"/>
        <pt x="780" y="1085" on="1"/>
        <pt x="860" y="1085" on="1"/>
        <pt x="631" y="0" on="1"/>
        <pt x="555" y="0" on="1"/>
        <pt x="573" y="156" on="1"/>
        <pt x="569" y="156" on="1"/>
        <pt x="455" y="-20" on="0"/>
      </contour>
      <contour>
        <pt x="338" y="63" on="1"/>
        <pt x="428" y="63" on="0"/>
        <pt x="584" y="270" on="0"/>
        <pt x="692" y="670" on="0"/>
        <pt x="692" y="848" on="1"/>
        <pt x="692" y="930" on="0"/>
        <pt x="622" y="1016" on="0"/>
        <pt x="557" y="1016" on="1"/>
        <pt x="469" y="1016" on="0"/>
        <pt x="319" y="814" on="0"/>
        <pt x="217" y="420" on="0"/>
        <pt x="217" y="248" on="1"/>
        <pt x="217" y="154" on="0"/>
        <pt x="272" y="63" on="0"/>
      </contour>
    </TTGlyph>
    <TTGlyph name="acute" xMin="500" yMin="1241" xMax="862" yMax="1569">
      <contour>
        <pt x="500" y="1241" on="1"/>
        <pt x="500" y="1257" on="1"/>
        <pt x="653" y="1441" on="0"/>
        <pt x="723" y="1569" on="1"/>
        <pt x="862" y="1569" on="1"/>
        <pt x="862" y="1552" on="1"/>
        <pt x="819" y="1488" on="0"/>
        <pt x="628" y="1299" on="0"/>
        <pt x="551" y="1241" on="1"/>
      </contour>
    </TTGlyph>
    <TTGlyph name="adieresis" xMin="119" yMin="-20" xMax="860" yMax="1475">
      <contour>
        <pt x="413" y="1362" on="1"/>
        <pt x="413" y="1411" on="0"/>
        <pt x="459" y="1475" on="0"/>
        <pt x="495" y="1475" on="1"/>
        <pt x="542" y="1475" on="0"/>
        <pt x="542" y="1363" on="0"/>
        <pt x="499" y="1298" on="0"/>
        <pt x="462" y="1298" on="1"/>
        <pt x="413" y="1298" on="0"/>
      </contour>
      <contour>
        <pt x="685" y="1362" on="1"/>
        <pt x="685" y="1411" on="0"/>
        <pt x="731" y="1475" on="0"/>
        <pt x="767" y="1475" on="1"/>
        <pt x="814" y="1475" on="0"/>
        <pt x="814" y="1363" on="0"/>
        <pt x="771" y="1298" on="0"/>
        <pt x="734" y="1298" on="1"/>
        <pt x="685" y="1298" on="0"/>
      </contour>
      <contour>
        <pt x="319" y="-20" on="1"/>
        <pt x="119" y="-20" on="0"/>
        <pt x="119" y="262" on="1"/>
        <pt x="119" y="469" on="0"/>
        <pt x="244" y="881" on="0"/>
        <pt x="443" y="1106" on="0"/>
        <pt x="561" y="1106" on="1"/>
        <pt x="694" y="1106" on="0"/>
        <pt x="735" y="956" on="1"/>
        <pt x="741" y="956" on="1"/>
        <pt x="780" y="1085" on="1"/>
        <pt x="860" y="1085" on="1"/>
        <pt x="631" y="0" on="1"/>
        <pt x="555" y="0" on="1"/>
        <pt x="573" y="156" on="1"/>
        <pt x="569" y="156" on="1"/>
        <pt x="455" y="-20" on="0"/>
      </contour>
      <contour>
        <pt x="338" y="63" on="1"/>
        <pt x="428" y="63" on="0"/>
        <pt x="584" y="270" on="0"/>
        <pt x="692" y="670" on="0"/>
        <pt x="692" y="848" on="1"/>
        <pt x="692" y="930" on="0"/>
        <pt x="622" y="1016" on="0"/>
        <pt x="557" y="1016" on="1"/>
        <pt x="469" y="1016" on="0"/>
        <pt x="319" y="814" on="0"/>
        <pt x="217" y="420" on="0"/>
        <pt x="217" y="248" on="1"/>
        <pt x="217" y="154" on="0"/>
        <pt x="272" y="63" on="0"/>
      </contour>
    </TTGlyph>
    <TTGlyph name="ae" xMin="119" yMin="-20" xMax="1212" yMax="1106">
      <contour>
        <pt x="319" y="-20" on="1"/>
        <pt x="119" y="-20" on="0"/>
        <pt x="119" y="262" on="1"/>
        <pt x="119" y="469" on="0"/>
        <pt x="244" y="881" on="0"/>
        <pt x="443" y="1106" on="0"/>
        <pt x="561" y="1106" on="1"/>
        <pt x="622" y="1106" on="0"/>
        <pt x="695" y="1035" on="0"/>
        <pt x="715" y="952" on="1"/>
        <pt x="754" y="1085" on="1"/>
        <pt x="834" y="1085" on="1"/>
        <pt x="801" y="944" on="1"/>
        <pt x="910" y="1106" on="0"/>
        <pt x="1030" y="1106" on="1"/>
        <pt x="1118" y="1106" on="0"/>
        <pt x="1212" y="1004" on="0"/>
        <pt x="1212" y="900" on="1"/>
        <pt x="1212" y="715" on="0"/>
        <pt x="952" y="506" on="0"/>
        <pt x="735" y="506" on="1"/>
        <pt x="727" y="506" on="0"/>
        <pt x="719" y="506" on="1"/>
        <pt x="707" y="506" on="1"/>
        <pt x="686" y="407" on="0"/>
        <pt x="686" y="307" on="1"/>
        <pt x="686" y="66" on="0"/>
        <pt x="874" y="66" on="1"/>
        <pt x="964" y="66" on="0"/>
        <pt x="1059" y="121" on="1"/>
        <pt x="1059" y="35" on="1"/>
        <pt x="963" y="-20" on="0"/>
        <pt x="770" y="-20" on="0"/>
        <pt x="654" y="76" on="0"/>
        <pt x="637" y="164" on="1"/>
        <pt x="604" y="0" on="1"/>
        <pt x="528" y="0" on="1"/>
        <pt x="551" y="156" on="1"/>
        <pt x="462" y="-20" on="0"/>
      </contour>
      <contour>
        <pt x="1014" y="1018" on="1"/>
        <pt x="929" y="1018" on="0"/>
        <pt x="777" y="799" on="0"/>
        <pt x="721" y="588" on="1"/>
        <pt x="917" y="588" on="0"/>
        <pt x="1118" y="747" on="0"/>
        <pt x="1118" y="905" on="1"/>
        <pt x="1118" y="961" on="0"/>
        <pt x="1071" y="1018" on="0"/>
      </contour>
      <contour>
        <pt x="338" y="63" on="1"/>
        <pt x="426" y="63" on="0"/>
        <pt x="569" y="264" on="0"/>
        <pt x="659" y="658" on="0"/>
        <pt x="659" y="848" on="1"/>
        <pt x="659" y="929" on="0"/>
        <pt x="606" y="1016" on="0"/>
        <pt x="557" y="1016" on="1"/>
        <pt x="469" y="1016" on="0"/>
        <pt x="319" y="814" on="0"/>
        <pt x="217" y="420" on="0"/>
        <pt x="217" y="248" on="1"/>
        <pt x="217" y="154" on="0"/>
        <pt x="272" y="63" on="0"/>
      </contour>
    </TTGlyph>
    <TTGlyph name="agrave" xMin="119" yMin="-20" xMax="860" yMax="1569">
      <contour>
        <pt x="625" y="1241" on="1"/>
        <pt x="586" y="1241" on="1"/>
        <pt x="537" y="1299" on="0"/>
        <pt x="429" y="1490" on="0"/>
        <pt x="414" y="1552" on="1"/>
        <pt x="414" y="1569" on="1"/>
        <pt x="541" y="1569" on="1"/>
        <pt x="566" y="1413" on="0"/>
        <pt x="625" y="1260" on="1"/>
      </contour>
      <contour>
        <pt x="319" y="-20" on="1"/>
        <pt x="119" y="-20" on="0"/>
        <pt x="119" y="262" on="1"/>
        <pt x="119" y="469" on="0"/>
        <pt x="244" y="881" on="0"/>
        <pt x="443" y="1106" on="0"/>
        <pt x="561" y="1106" on="1"/>
        <pt x="694" y="1106" on="0"/>
        <pt x="735" y="956" on="1"/>
        <pt x="741" y="956" on="1"/>
        <pt x="780" y="1085" on="1"/>
        <pt x="860" y="1085" on="1"/>
        <pt x="631" y="0" on="1"/>
        <pt x="555" y="0" on="1"/>
        <pt x="573" y="156" on="1"/>
        <pt x="569" y="156" on="1"/>
        <pt x="455" y="-20" on="0"/>
      </contour>
      <contour>
        <pt x="338" y="63" on="1"/>
        <pt x="428" y="63" on="0"/>
        <pt x="584" y="270" on="0"/>
        <pt x="692" y="670" on="0"/>
        <pt x="692" y="848" on="1"/>
        <pt x="692" y="930" on="0"/>
        <pt x="622" y="1016" on="0"/>
        <pt x="557" y="1016" on="1"/>
        <pt x="469" y="1016" on="0"/>
        <pt x="319" y="814" on="0"/>
        <pt x="217" y="420" on="0"/>
        <pt x="217" y="248" on="1"/>
        <pt x="217" y="154" on="0"/>
        <pt x="272" y="63" on="0"/>
      </contour>
    </TTGlyph>
    <TTGlyph name="alefdageshhb" xMin="-65" yMin="0" xMax="829" yMax="1290">
      <contour>
        <pt x="829" y="1290" on="1"/>
        <pt x="730" y="822" on="1"/>
        <pt x="696" y="658" on="0"/>
        <pt x="632" y="568" on="1"/>
        <pt x="607" y="531" on="0"/>
        <pt x="527" y="462" on="0"/>
        <pt x="478" y="440" on="1"/>
        <pt x="566" y="0" on="1"/>
        <pt x="463" y="0" on="1"/>
        <pt x="311" y="771" on="1"/>
        <pt x="237" y="729" on="0"/>
        <pt x="148" y="576" on="0"/>
        <pt x="122" y="452" on="1"/>
        <pt x="26" y="0" on="1"/>
        <pt x="-65" y="0" on="1"/>
        <pt x="31" y="453" on="1"/>
        <pt x="56" y="571" on="0"/>
        <pt x="106" y="672" on="1"/>
        <pt x="136" y="732" on="0"/>
        <pt x="232" y="827" on="0"/>
        <pt x="295" y="855" on="1"/>
        <pt x="209" y="1290" on="1"/>
        <pt x="311" y="1290" on="1"/>
        <pt x="461" y="528" on="1"/>
        <pt x="532" y="567" on="0"/>
        <pt x="613" y="704" on="0"/>
        <pt x="639" y="823" on="1"/>
        <pt x="738" y="1290" on="1"/>
      </contour>
      <contour>
        <pt x="257" y="382" on="1"/>
        <pt x="308" y="382" on="0"/>
        <pt x="308" y="333" on="1"/>
        <pt x="308" y="321" on="0"/>
        <pt x="305" y="306" on="1"/>
        <pt x="288" y="232" on="0"/>
        <pt x="225" y="232" on="1"/>
        <pt x="176" y="232" on="0"/>
        <pt x="176" y="278" on="1"/>
        <pt x="176" y="290" on="0"/>
        <pt x="180" y="306" on="1"/>
        <pt x="196" y="382" on="0"/>
      </contour>
    </TTGlyph>
    <TTGlyph name="alefpatahhb" xMin="-65" yMin="-293" xMax="829" yMax="1290">
      <contour>
        <pt x="829" y="1290" on="1"/>
        <pt x="730" y="822" on="1"/>
        <pt x="696" y="658" on="0"/>
        <pt x="632" y="568" on="1"/>
        <pt x="607" y="531" on="0"/>
        <pt x="527" y="462" on="0"/>
        <pt x="478" y="440" on="1"/>
        <pt x="566" y="0" on="1"/>
        <pt x="463" y="0" on="1"/>
        <pt x="311" y="771" on="1"/>
        <pt x="237" y="729" on="0"/>
        <pt x="148" y="576" on="0"/>
        <pt x="122" y="452" on="1"/>
        <pt x="26" y="0" on="1"/>
        <pt x="-65" y="0" on="1"/>
        <pt x="31" y="453" on="1"/>
        <pt x="56" y="571" on="0"/>
        <pt x="106" y="672" on="1"/>
        <pt x="136" y="732" on="0"/>
        <pt x="232" y="827" on="0"/>
        <pt x="295" y="855" on="1"/>
        <pt x="209" y="1290" on="1"/>
        <pt x="311" y="1290" on="1"/>
        <pt x="461" y="528" on="1"/>
        <pt x="532" y="567" on="0"/>
        <pt x="613" y="704" on="0"/>
        <pt x="639" y="823" on="1"/>
        <pt x="738" y="1290" on="1"/>
      </contour>
      <contour>
        <pt x="352" y="-293" on="1"/>
        <pt x="-5" y="-293" on="1"/>
        <pt x="11" y="-221" on="1"/>
        <pt x="368" y="-221" on="1"/>
      </contour>
    </TTGlyph>
    <TTGlyph name="alefqamatshb" xMin="-65" yMin="-494" xMax="829" yMax="1290">
      <contour>
        <pt x="829" y="1290" on="1"/>
        <pt x="730" y="822" on="1"/>
        <pt x="696" y="658" on="0"/>
        <pt x="632" y="568" on="1"/>
        <pt x="607" y="531" on="0"/>
        <pt x="527" y="462" on="0"/>
        <pt x="478" y="440" on="1"/>
        <pt x="566" y="0" on="1"/>
        <pt x="463" y="0" on="1"/>
        <pt x="311" y="771" on="1"/>
        <pt x="237" y="729" on="0"/>
        <pt x="148" y="576" on="0"/>
        <pt x="122" y="452" on="1"/>
        <pt x="26" y="0" on="1"/>
        <pt x="-65" y="0" on="1"/>
        <pt x="31" y="453" on="1"/>
        <pt x="56" y="571" on="0"/>
        <pt x="106" y="672" on="1"/>
        <pt x="136" y="732" on="0"/>
        <pt x="232" y="827" on="0"/>
        <pt x="295" y="855" on="1"/>
        <pt x="209" y="1290" on="1"/>
        <pt x="311" y="1290" on="1"/>
        <pt x="461" y="528" on="1"/>
        <pt x="532" y="567" on="0"/>
        <pt x="613" y="704" on="0"/>
        <pt x="639" y="823" on="1"/>
        <pt x="738" y="1290" on="1"/>
      </contour>
      <contour>
        <pt x="353" y="-293" on="1"/>
        <pt x="210" y="-293" on="1"/>
        <pt x="167" y="-494" on="1"/>
        <pt x="96" y="-494" on="1"/>
        <pt x="139" y="-293" on="1"/>
        <pt x="-4" y="-293" on="1"/>
        <pt x="11" y="-221" on="1"/>
        <pt x="368" y="-221" on="1"/>
      </contour>
    </TTGlyph>
    <TTGlyph name="ampersand" xMin="41" yMin="-20" xMax="766" yMax="1483">
      <contour>
        <pt x="262" y="-20" on="1"/>
        <pt x="158" y="-20" on="0"/>
        <pt x="41" y="118" on="0"/>
        <pt x="41" y="236" on="1"/>
        <pt x="41" y="401" on="0"/>
        <pt x="185" y="670" on="0"/>
        <pt x="350" y="795" on="1"/>
        <pt x="309" y="939" on="0"/>
        <pt x="309" y="1063" on="1"/>
        <pt x="309" y="1259" on="0"/>
        <pt x="438" y="1483" on="0"/>
        <pt x="553" y="1483" on="1"/>
        <pt x="617" y="1483" on="0"/>
        <pt x="692" y="1389" on="0"/>
        <pt x="692" y="1303" on="1"/>
        <pt x="692" y="1159" on="0"/>
        <pt x="565" y="877" on="0"/>
        <pt x="451" y="770" on="1"/>
        <pt x="569" y="350" on="1"/>
        <pt x="637" y="475" on="0"/>
        <pt x="682" y="645" on="1"/>
        <pt x="766" y="645" on="1"/>
        <pt x="747" y="553" on="0"/>
        <pt x="641" y="313" on="0"/>
        <pt x="598" y="252" on="1"/>
        <pt x="680" y="0" on="1"/>
        <pt x="582" y="0" on="1"/>
        <pt x="535" y="166" on="1"/>
        <pt x="458" y="58" on="0"/>
        <pt x="336" y="-20" on="0"/>
      </contour>
      <contour>
        <pt x="606" y="1286" on="1"/>
        <pt x="606" y="1393" on="0"/>
        <pt x="537" y="1393" on="1"/>
        <pt x="472" y="1393" on="0"/>
        <pt x="433" y="1309" on="1"/>
        <pt x="395" y="1224" on="0"/>
        <pt x="395" y="959" on="0"/>
        <pt x="428" y="852" on="1"/>
        <pt x="513" y="932" on="0"/>
        <pt x="606" y="1160" on="0"/>
      </contour>
      <contour>
        <pt x="135" y="254" on="1"/>
        <pt x="135" y="72" on="0"/>
        <pt x="268" y="72" on="1"/>
        <pt x="329" y="72" on="0"/>
        <pt x="432" y="147" on="0"/>
        <pt x="508" y="260" on="1"/>
        <pt x="373" y="717" on="1"/>
        <pt x="135" y="527" on="0"/>
      </contour>
    </TTGlyph>
    <TTGlyph name="aring" xMin="119" yMin="-20" xMax="860" yMax="1624">
      <contour>
        <pt x="392" y="1523" on="0"/>
        <pt x="494" y="1624" on="0"/>
        <pt x="668" y="1624" on="0"/>
        <pt x="773" y="1522" on="0"/>
        <pt x="773" y="1354" on="0"/>
        <pt x="671" y="1251" on="0"/>
        <pt x="494" y="1251" on="0"/>
        <pt x="392" y="1352" on="0"/>
      </contour>
      <contour>
        <pt x="636" y="1319" on="0"/>
        <pt x="702" y="1384" on="0"/>
        <pt x="702" y="1491" on="0"/>
        <pt x="638" y="1559" on="0"/>
        <pt x="528" y="1559" on="0"/>
        <pt x="464" y="1491" on="0"/>
        <pt x="464" y="1438" on="1"/>
        <pt x="464" y="1319" on="0"/>
        <pt x="583" y="1319" on="1"/>
      </contour>
      <contour>
        <pt x="319" y="-20" on="1"/>
        <pt x="119" y="-20" on="0"/>
        <pt x="119" y="262" on="1"/>
        <pt x="119" y="469" on="0"/>
        <pt x="244" y="881" on="0"/>
        <pt x="443" y="1106" on="0"/>
        <pt x="561" y="1106" on="1"/>
        <pt x="694" y="1106" on="0"/>
        <pt x="735" y="956" on="1"/>
        <pt x="741" y="956" on="1"/>
        <pt x="780" y="1085" on="1"/>
        <pt x="860" y="1085" on="1"/>
        <pt x="631" y="0" on="1"/>
        <pt x="555" y="0" on="1"/>
        <pt x="573" y="156" on="1"/>
        <pt x="569" y="156" on="1"/>
        <pt x="455" y="-20" on="0"/>
      </contour>
      <contour>
        <pt x="338" y="63" on="1"/>
        <pt x="428" y="63" on="0"/>
        <pt x="584" y="270" on="0"/>
        <pt x="692" y="670" on="0"/>
        <pt x="692" y="848" on="1"/>
        <pt x="692" y="930" on="0"/>
        <pt x="622" y="1016" on="0"/>
        <pt x="557" y="1016" on="1"/>
        <pt x="469" y="1016" on="0"/>
        <pt x="319" y="814" on="0"/>
        <pt x="217" y="420" on="0"/>
        <pt x="217" y="248" on="1"/>
        <pt x="217" y="154" on="0"/>
        <pt x="272" y="63" on="0"/>
      </contour>
    </TTGlyph>
    <TTGlyph name="asciicircum" xMin="111" yMin="758" xMax="784" yMax="1462">
      <contour>
        <pt x="569" y="1348" on="1"/>
        <pt x="217" y="758" on="1"/>
        <pt x="111" y="758" on="1"/>
        <pt x="543" y="1462" on="1"/>
        <pt x="625" y="1462" on="1"/>
        <pt x="784" y="758" on="1"/>
        <pt x="692" y="758" on="1"/>
      </contour>
    </TTGlyph>
    <TTGlyph name="asciitilde" xMin="111" yMin="618" xMax="788" yMax="827">
      <contour>
        <pt x="602" y="625" on="1"/>
        <pt x="520" y="625" on="0"/>
        <pt x="434" y="680" on="1"/>
        <pt x="430" y="682" on="0"/>
        <pt x="396" y="702" on="0"/>
        <pt x="385" y="707" on="0"/>
        <pt x="356" y="723" on="0"/>
        <pt x="341" y="728" on="0"/>
        <pt x="328" y="732" on="1"/>
        <pt x="305" y="739" on="0"/>
        <pt x="281" y="739" on="1"/>
        <pt x="210" y="739" on="0"/>
        <pt x="111" y="618" on="1"/>
        <pt x="111" y="717" on="1"/>
        <pt x="196" y="823" on="0"/>
        <pt x="299" y="823" on="1"/>
        <pt x="377" y="823" on="0"/>
        <pt x="490" y="755" on="1"/>
        <pt x="564" y="711" on="0"/>
        <pt x="621" y="711" on="1"/>
        <pt x="698" y="711" on="0"/>
        <pt x="788" y="827" on="1"/>
        <pt x="788" y="729" on="1"/>
        <pt x="705" y="625" on="0"/>
      </contour>
    </TTGlyph>
    <TTGlyph name="asterisk" xMin="221" yMin="993" xMax="743" yMax="1563">
      <contour>
        <pt x="520" y="1315" on="1"/>
        <pt x="743" y="1339" on="1"/>
        <pt x="743" y="1235" on="1"/>
        <pt x="528" y="1257" on="1"/>
        <pt x="645" y="1024" on="1"/>
        <pt x="549" y="993" on="1"/>
        <pt x="479" y="1231" on="1"/>
        <pt x="338" y="1020" on="1"/>
        <pt x="256" y="1075" on="1"/>
        <pt x="426" y="1270" on="1"/>
        <pt x="221" y="1307" on="1"/>
        <pt x="250" y="1405" on="1"/>
        <pt x="461" y="1323" on="1"/>
        <pt x="465" y="1563" on="1"/>
        <pt x="578" y="1546" on="1"/>
      </contour>
    </TTGlyph>
    <TTGlyph name="at" xMin="111" yMin="-180" xMax="1137" yMax="1473">
      <contour>
        <pt x="446" y="-180" on="1"/>
        <pt x="294" y="-180" on="0"/>
        <pt x="111" y="64" on="0"/>
        <pt x="111" y="279" on="1"/>
        <pt x="111" y="607" on="0"/>
        <pt x="311" y="1158" on="0"/>
        <pt x="478" y="1314" on="1"/>
        <pt x="646" y="1473" on="0"/>
        <pt x="834" y="1473" on="1"/>
        <pt x="974" y="1473" on="0"/>
        <pt x="1137" y="1236" on="0"/>
        <pt x="1137" y="1024" on="1"/>
        <pt x="1137" y="858" on="0"/>
        <pt x="1035" y="460" on="0"/>
        <pt x="883" y="236" on="0"/>
        <pt x="799" y="236" on="1"/>
        <pt x="743" y="236" on="0"/>
        <pt x="686" y="299" on="0"/>
        <pt x="686" y="398" on="0"/>
        <pt x="696" y="444" on="1"/>
        <pt x="622" y="231" on="0"/>
        <pt x="504" y="231" on="1"/>
        <pt x="393" y="231" on="0"/>
        <pt x="393" y="410" on="1"/>
        <pt x="393" y="552" on="0"/>
        <pt x="500" y="889" on="0"/>
        <pt x="655" y="1061" on="0"/>
        <pt x="750" y="1061" on="1"/>
        <pt x="828" y="1061" on="0"/>
        <pt x="891" y="1032" on="1"/>
        <pt x="773" y="561" on="1"/>
        <pt x="748" y="465" on="0"/>
        <pt x="748" y="412" on="1"/>
        <pt x="748" y="315" on="0"/>
        <pt x="813" y="315" on="1"/>
        <pt x="864" y="315" on="0"/>
        <pt x="918" y="423" on="1"/>
        <pt x="973" y="531" on="0"/>
        <pt x="1055" y="891" on="0"/>
        <pt x="1055" y="1012" on="1"/>
        <pt x="1055" y="1197" on="0"/>
        <pt x="933" y="1389" on="0"/>
        <pt x="813" y="1389" on="1"/>
        <pt x="657" y="1389" on="0"/>
        <pt x="515" y="1244" on="1"/>
        <pt x="375" y="1099" on="0"/>
        <pt x="199" y="584" on="0"/>
        <pt x="199" y="291" on="1"/>
        <pt x="199" y="107" on="0"/>
        <pt x="267" y="3" on="1"/>
        <pt x="336" y="-100" on="0"/>
        <pt x="571" y="-100" on="0"/>
        <pt x="657" y="-47" on="1"/>
        <pt x="668" y="-125" on="1"/>
        <pt x="565" y="-180" on="0"/>
      </contour>
      <contour>
        <pt x="725" y="981" on="1"/>
        <pt x="665" y="981" on="0"/>
        <pt x="608" y="902" on="1"/>
        <pt x="550" y="819" on="0"/>
        <pt x="477" y="552" on="0"/>
        <pt x="477" y="319" on="0"/>
        <pt x="535" y="319" on="1"/>
        <pt x="578" y="319" on="0"/>
        <pt x="658" y="482" on="0"/>
        <pt x="707" y="666" on="1"/>
        <pt x="788" y="973" on="1"/>
        <pt x="762" y="981" on="0"/>
      </contour>
    </TTGlyph>
    <TTGlyph name="atilde" xMin="119" yMin="-20" xMax="871" yMax="1483">
      <contour>
        <pt x="713" y="1251" on="1"/>
        <pt x="682" y="1251" on="0"/>
        <pt x="615" y="1292" on="0"/>
        <pt x="591" y="1316" on="1"/>
        <pt x="527" y="1382" on="0"/>
        <pt x="450" y="1382" on="0"/>
        <pt x="405" y="1317" on="0"/>
        <pt x="386" y="1249" on="1"/>
        <pt x="316" y="1249" on="1"/>
        <pt x="375" y="1479" on="0"/>
        <pt x="496" y="1479" on="1"/>
        <pt x="528" y="1479" on="0"/>
        <pt x="594" y="1438" on="0"/>
        <pt x="616" y="1414" on="1"/>
        <pt x="675" y="1348" on="0"/>
        <pt x="744" y="1348" on="0"/>
        <pt x="760" y="1370" on="1"/>
        <pt x="779" y="1393" on="0"/>
        <pt x="801" y="1483" on="1"/>
        <pt x="871" y="1483" on="1"/>
        <pt x="842" y="1350" on="0"/>
        <pt x="769" y="1251" on="0"/>
      </contour>
      <contour>
        <pt x="319" y="-20" on="1"/>
        <pt x="119" y="-20" on="0"/>
        <pt x="119" y="262" on="1"/>
        <pt x="119" y="469" on="0"/>
        <pt x="244" y="881" on="0"/>
        <pt x="443" y="1106" on="0"/>
        <pt x="561" y="1106" on="1"/>
        <pt x="694" y="1106" on="0"/>
        <pt x="735" y="956" on="1"/>
        <pt x="741" y="956" on="1"/>
        <pt x="780" y="1085" on="1"/>
        <pt x="860" y="1085" on="1"/>
        <pt x="631" y="0" on="1"/>
        <pt x="555" y="0" on="1"/>
        <pt x="573" y="156" on="1"/>
        <pt x="569" y="156" on="1"/>
        <pt x="455" y="-20" on="0"/>
      </contour>
      <contour>
        <pt x="338" y="63" on="1"/>
        <pt x="428" y="63" on="0"/>
        <pt x="584" y="270" on="0"/>
        <pt x="692" y="670" on="0"/>
        <pt x="692" y="848" on="1"/>
        <pt x="692" y="930" on="0"/>
        <pt x="622" y="1016" on="0"/>
        <pt x="557" y="1016" on="1"/>
        <pt x="469" y="1016" on="0"/>
        <pt x="319" y="814" on="0"/>
        <pt x="217" y="420" on="0"/>
        <pt x="217" y="248" on="1"/>
        <pt x="217" y="154" on="0"/>
        <pt x="272" y="63" on="0"/>
      </contour>
    </TTGlyph>
    <TTGlyph name="b" xMin="72" yMin="-20" xMax="813" yMax="1556">
      <contour>
        <pt x="612" y="1106" on="1"/>
        <pt x="813" y="1106" on="0"/>
        <pt x="813" y="823" on="1"/>
        <pt x="813" y="612" on="0"/>
        <pt x="687" y="203" on="0"/>
        <pt x="488" y="-20" on="0"/>
        <pt x="371" y="-20" on="1"/>
        <pt x="303" y="-20" on="0"/>
        <pt x="209" y="62" on="0"/>
        <pt x="197" y="131" on="1"/>
        <pt x="190" y="131" on="1"/>
        <pt x="145" y="0" on="1"/>
        <pt x="72" y="0" on="1"/>
        <pt x="399" y="1556" on="1"/>
        <pt x="494" y="1556" on="1"/>
        <pt x="375" y="1001" on="1"/>
        <pt x="354" y="920" on="1"/>
        <pt x="358" y="920" on="1"/>
        <pt x="409" y="1010" on="0"/>
        <pt x="542" y="1106" on="0"/>
      </contour>
      <contour>
        <pt x="594" y="1022" on="1"/>
        <pt x="501" y="1022" on="0"/>
        <pt x="342" y="814" on="0"/>
        <pt x="240" y="434" on="0"/>
        <pt x="240" y="66" on="0"/>
        <pt x="375" y="66" on="1"/>
        <pt x="463" y="66" on="0"/>
        <pt x="614" y="272" on="0"/>
        <pt x="664" y="469" on="1"/>
        <pt x="715" y="666" on="0"/>
        <pt x="715" y="838" on="1"/>
        <pt x="715" y="932" on="0"/>
        <pt x="660" y="1022" on="0"/>
      </contour>
    </TTGlyph>
    <TTGlyph name="backslash" xMin="270" yMin="0" xMax="528" yMax="1462">
      <contour>
        <pt x="528" y="0" on="1"/>
        <pt x="432" y="0" on="1"/>
        <pt x="270" y="1462" on="1"/>
        <pt x="365" y="1462" on="1"/>
      </contour>
    </TTGlyph>
    <TTGlyph name="bar" xMin="133" yMin="-492" xMax="659" yMax="1556">
      <contour>
        <pt x="133" y="-492" on="1"/>
        <pt x="567" y="1556" on="1"/>
        <pt x="659" y="1556" on="1"/>
        <pt x="225" y="-492" on="1"/>
      </contour>
    </TTGlyph>
    <TTGlyph name="betdageshhb" xMin="-40" yMin="0" xMax="716" yMax="1310">
      <contour>
        <pt x="235" y="1300" on="1"/>
        <pt x="339" y="1310" on="0"/>
        <pt x="497" y="1310" on="0"/>
        <pt x="576" y="1298" on="0"/>
        <pt x="612" y="1284" on="1"/>
        <pt x="679" y="1257" on="0"/>
        <pt x="704" y="1177" on="1"/>
        <pt x="716" y="1142" on="0"/>
        <pt x="716" y="1087" on="0"/>
        <pt x="714" y="1024" on="0"/>
        <pt x="698" y="950" on="1"/>
        <pt x="514" y="84" on="1"/>
        <pt x="600" y="84" on="1"/>
        <pt x="582" y="0" on="1"/>
        <pt x="-40" y="0" on="1"/>
        <pt x="-22" y="84" on="1"/>
        <pt x="419" y="84" on="1"/>
        <pt x="603" y="950" on="1"/>
        <pt x="619" y="1023" on="0"/>
        <pt x="619" y="1121" on="0"/>
        <pt x="598" y="1180" on="0"/>
        <pt x="544" y="1213" on="0"/>
        <pt x="478" y="1224" on="0"/>
        <pt x="430" y="1224" on="1"/>
        <pt x="351" y="1224" on="0"/>
        <pt x="248" y="1216" on="1"/>
        <pt x="217" y="1213" on="1"/>
      </contour>
      <contour>
        <pt x="306" y="745" on="1"/>
        <pt x="357" y="745" on="0"/>
        <pt x="357" y="696" on="1"/>
        <pt x="357" y="684" on="0"/>
        <pt x="354" y="669" on="1"/>
        <pt x="337" y="595" on="0"/>
        <pt x="274" y="595" on="1"/>
        <pt x="225" y="595" on="0"/>
        <pt x="225" y="641" on="1"/>
        <pt x="225" y="653" on="0"/>
        <pt x="229" y="669" on="1"/>
        <pt x="245" y="745" on="0"/>
      </contour>
    </TTGlyph>
    <TTGlyph name="braceleft" xMin="125" yMin="-324" xMax="838" yMax="1462">
      <contour>
        <pt x="406" y="395" on="1"/>
        <pt x="406" y="365" on="0"/>
        <pt x="395" y="307" on="1"/>
        <pt x="328" y="-8" on="1"/>
        <pt x="317" y="-66" on="0"/>
        <pt x="317" y="-94" on="1"/>
        <pt x="317" y="-170" on="0"/>
        <pt x="389" y="-242" on="0"/>
        <pt x="469" y="-244" on="1"/>
        <pt x="469" y="-324" on="1"/>
        <pt x="342" y="-320" on="0"/>
        <pt x="223" y="-209" on="0"/>
        <pt x="223" y="-100" on="1"/>
        <pt x="223" y="-53" on="0"/>
        <pt x="236" y="-4" on="1"/>
        <pt x="303" y="319" on="1"/>
        <pt x="311" y="353" on="0"/>
        <pt x="311" y="389" on="1"/>
        <pt x="311" y="535" on="0"/>
        <pt x="125" y="535" on="1"/>
        <pt x="141" y="604" on="1"/>
        <pt x="258" y="604" on="0"/>
        <pt x="386" y="711" on="0"/>
        <pt x="410" y="819" on="1"/>
        <pt x="489" y="1190" on="1"/>
        <pt x="519" y="1335" on="0"/>
        <pt x="680" y="1462" on="0"/>
        <pt x="838" y="1462" on="1"/>
        <pt x="819" y="1382" on="1"/>
        <pt x="706" y="1380" on="0"/>
        <pt x="603" y="1288" on="0"/>
        <pt x="582" y="1184" on="1"/>
        <pt x="506" y="831" on="1"/>
        <pt x="482" y="719" on="0"/>
        <pt x="363" y="593" on="0"/>
        <pt x="256" y="571" on="1"/>
        <pt x="256" y="567" on="1"/>
        <pt x="333" y="550" on="0"/>
        <pt x="406" y="466" on="0"/>
      </contour>
    </TTGlyph>
    <TTGlyph name="braceright" xMin="-59" yMin="-324" xMax="653" yMax="1462">
      <contour>
        <pt x="373" y="743" on="1"/>
        <pt x="373" y="785" on="0"/>
        <pt x="383" y="831" on="1"/>
        <pt x="451" y="1147" on="1"/>
        <pt x="461" y="1194" on="0"/>
        <pt x="461" y="1233" on="1"/>
        <pt x="461" y="1308" on="0"/>
        <pt x="389" y="1380" on="0"/>
        <pt x="309" y="1382" on="1"/>
        <pt x="309" y="1462" on="1"/>
        <pt x="436" y="1459" on="0"/>
        <pt x="555" y="1348" on="0"/>
        <pt x="555" y="1239" on="1"/>
        <pt x="555" y="1196" on="0"/>
        <pt x="543" y="1143" on="1"/>
        <pt x="475" y="819" on="1"/>
        <pt x="467" y="785" on="0"/>
        <pt x="467" y="750" on="1"/>
        <pt x="467" y="604" on="0"/>
        <pt x="653" y="604" on="1"/>
        <pt x="637" y="535" on="1"/>
        <pt x="520" y="535" on="0"/>
        <pt x="393" y="429" on="0"/>
        <pt x="369" y="319" on="1"/>
        <pt x="289" y="-51" on="1"/>
        <pt x="259" y="-198" on="0"/>
        <pt x="177" y="-260" on="1"/>
        <pt x="97" y="-324" on="0"/>
        <pt x="-59" y="-324" on="1"/>
        <pt x="-41" y="-244" on="1"/>
        <pt x="70" y="-243" on="0"/>
        <pt x="174" y="-153" on="0"/>
        <pt x="197" y="-45" on="1"/>
        <pt x="272" y="307" on="1"/>
        <pt x="296" y="420" on="0"/>
        <pt x="415" y="546" on="0"/>
        <pt x="522" y="567" on="1"/>
        <pt x="522" y="571" on="1"/>
        <pt x="445" y="588" on="0"/>
        <pt x="373" y="672" on="0"/>
      </contour>
    </TTGlyph>
    <TTGlyph name="bracketleft" xMin="25" yMin="-324" xMax="764" yMax="1462">
      <contour>
        <pt x="25" y="-324" on="1"/>
        <pt x="406" y="1462" on="1"/>
        <pt x="764" y="1462" on="1"/>
        <pt x="743" y="1372" on="1"/>
        <pt x="481" y="1372" on="1"/>
        <pt x="139" y="-233" on="1"/>
        <pt x="403" y="-233" on="1"/>
        <pt x="383" y="-324" on="1"/>
      </contour>
    </TTGlyph>
    <TTGlyph name="bracketright" xMin="-63" yMin="-324" xMax="674" yMax="1462">
      <contour>
        <pt x="217" y="-233" on="1"/>
        <pt x="559" y="1372" on="1"/>
        <pt x="295" y="1372" on="1"/>
        <pt x="315" y="1462" on="1"/>
        <pt x="674" y="1462" on="1"/>
        <pt x="293" y="-324" on="1"/>
        <pt x="-63" y="-324" on="1"/>
        <pt x="-43" y="-233" on="1"/>
      </contour>
    </TTGlyph>
    <TTGlyph name="breve" xMin="487" yMin="1241" xMax="883" yMax="1479">
      <contour>
        <pt x="883" y="1479" on="1"/>
        <pt x="836" y="1241" on="0"/>
        <pt x="666" y="1241" on="1"/>
        <pt x="578" y="1241" on="0"/>
        <pt x="487" y="1335" on="0"/>
        <pt x="487" y="1421" on="1"/>
        <pt x="487" y="1457" on="0"/>
        <pt x="492" y="1479" on="1"/>
        <pt x="559" y="1479" on="1"/>
        <pt x="557" y="1464" on="1"/>
        <pt x="557" y="1448" on="1"/>
        <pt x="557" y="1388" on="0"/>
        <pt x="616" y="1331" on="0"/>
        <pt x="720" y="1331" on="0"/>
        <pt x="788" y="1400" on="0"/>
        <pt x="813" y="1479" on="1"/>
      </contour>
    </TTGlyph>
    <TTGlyph name="bullet" xMin="211" yMin="506" xMax="645" yMax="989">
      <contour>
        <pt x="325" y="506" on="0"/>
        <pt x="211" y="631" on="0"/>
        <pt x="211" y="867" on="0"/>
        <pt x="323" y="989" on="0"/>
        <pt x="533" y="989" on="0"/>
        <pt x="645" y="867" on="0"/>
        <pt x="645" y="631" on="0"/>
        <pt x="533" y="506" on="0"/>
      </contour>
    </TTGlyph>
    <TTGlyph name="c" xMin="119" yMin="-20" xMax="713" yMax="1106">
      <contour>
        <pt x="358" y="-20" on="1"/>
        <pt x="242" y="-20" on="0"/>
        <pt x="119" y="140" on="0"/>
        <pt x="119" y="291" on="1"/>
        <pt x="119" y="508" on="0"/>
        <pt x="245" y="900" on="0"/>
        <pt x="444" y="1106" on="0"/>
        <pt x="569" y="1106" on="1"/>
        <pt x="654" y="1106" on="0"/>
        <pt x="713" y="1073" on="1"/>
        <pt x="674" y="987" on="1"/>
        <pt x="621" y="1016" on="0"/>
        <pt x="561" y="1016" on="1"/>
        <pt x="468" y="1016" on="0"/>
        <pt x="315" y="821" on="0"/>
        <pt x="217" y="464" on="0"/>
        <pt x="217" y="289" on="1"/>
        <pt x="217" y="66" on="0"/>
        <pt x="377" y="66" on="1"/>
        <pt x="441" y="66" on="0"/>
        <pt x="520" y="106" on="1"/>
        <pt x="520" y="20" on="1"/>
        <pt x="446" y="-20" on="0"/>
      </contour>
    </TTGlyph>
    <TTGlyph name="caron" xMin="481" yMin="1241" xMax="922" yMax="1569">
      <contour>
        <pt x="485" y="1569" on="1"/>
        <pt x="532" y="1569" on="1"/>
        <pt x="566" y="1517" on="0"/>
        <pt x="657" y="1366" on="1"/>
        <pt x="796" y="1505" on="0"/>
        <pt x="877" y="1569" on="1"/>
        <pt x="922" y="1569" on="1"/>
        <pt x="918" y="1550" on="1"/>
        <pt x="866" y="1493" on="0"/>
        <pt x="711" y="1295" on="0"/>
        <pt x="678" y="1241" on="1"/>
        <pt x="592" y="1241" on="1"/>
        <pt x="581" y="1288" on="0"/>
        <pt x="508" y="1492" on="0"/>
        <pt x="481" y="1550" on="1"/>
      </contour>
    </TTGlyph>
    <TTGlyph name="ccedilla" xMin="71" yMin="-492" xMax="713" yMax="1106">
      <contour>
        <pt x="119" y="291" on="1"/>
        <pt x="119" y="508" on="0"/>
        <pt x="245" y="900" on="0"/>
        <pt x="444" y="1106" on="0"/>
        <pt x="569" y="1106" on="1"/>
        <pt x="654" y="1106" on="0"/>
        <pt x="713" y="1073" on="1"/>
        <pt x="674" y="987" on="1"/>
        <pt x="621" y="1016" on="0"/>
        <pt x="561" y="1016" on="1"/>
        <pt x="468" y="1016" on="0"/>
        <pt x="315" y="821" on="0"/>
        <pt x="217" y="464" on="0"/>
        <pt x="217" y="289" on="1"/>
        <pt x="217" y="66" on="0"/>
        <pt x="377" y="66" on="1"/>
        <pt x="441" y="66" on="0"/>
        <pt x="520" y="106" on="1"/>
        <pt x="520" y="20" on="1"/>
        <pt x="446" y="-20" on="0"/>
        <pt x="358" y="-20" on="1"/>
        <pt x="293" y="-115" on="1"/>
        <pt x="357" y="-133" on="0"/>
        <pt x="428" y="-213" on="0"/>
        <pt x="428" y="-266" on="1"/>
        <pt x="428" y="-366" on="0"/>
        <pt x="291" y="-492" on="0"/>
        <pt x="180" y="-492" on="1"/>
        <pt x="152" y="-492" on="0"/>
        <pt x="83" y="-485" on="0"/>
        <pt x="71" y="-481" on="1"/>
        <pt x="71" y="-403" on="1"/>
        <pt x="98" y="-414" on="0"/>
        <pt x="252" y="-414" on="0"/>
        <pt x="340" y="-342" on="0"/>
        <pt x="340" y="-279" on="1"/>
        <pt x="340" y="-233" on="0"/>
        <pt x="268" y="-175" on="0"/>
        <pt x="188" y="-160" on="1"/>
        <pt x="284" y="-10" on="1"/>
        <pt x="204" y="13" on="0"/>
        <pt x="119" y="167" on="0"/>
      </contour>
    </TTGlyph>
    <TTGlyph name="cedilla" xMin="-27" yMin="-492" xMax="330" yMax="0">
      <contour>
        <pt x="330" y="-266" on="1"/>
        <pt x="330" y="-366" on="0"/>
        <pt x="194" y="-492" on="0"/>
        <pt x="82" y="-492" on="1"/>
        <pt x="54" y="-492" on="0"/>
        <pt x="-15" y="-485" on="0"/>
        <pt x="-27" y="-481" on="1"/>
        <pt x="-27" y="-403" on="1"/>
        <pt x="0" y="-414" on="0"/>
        <pt x="154" y="-414" on="0"/>
        <pt x="242" y="-342" on="0"/>
        <pt x="242" y="-279" on="1"/>
        <pt x="242" y="-233" on="0"/>
        <pt x="170" y="-175" on="0"/>
        <pt x="90" y="-160" on="1"/>
        <pt x="193" y="0" on="1"/>
        <pt x="274" y="0" on="1"/>
        <pt x="195" y="-115" on="1"/>
        <pt x="259" y="-133" on="0"/>
        <pt x="330" y="-213" on="0"/>
      </contour>
    </TTGlyph>
    <TTGlyph name="cent" xMin="193" yMin="-20" xMax="786" yMax="1483">
      <contour>
        <pt x="193" y="487" on="1"/>
        <pt x="193" y="685" on="0"/>
        <pt x="298" y="1055" on="0"/>
        <pt x="473" y="1283" on="0"/>
        <pt x="584" y="1309" on="1"/>
        <pt x="621" y="1483" on="1"/>
        <pt x="705" y="1483" on="1"/>
        <pt x="670" y="1313" on="1"/>
        <pt x="740" y="1307" on="0"/>
        <pt x="786" y="1282" on="1"/>
        <pt x="748" y="1196" on="1"/>
        <pt x="695" y="1225" on="0"/>
        <pt x="635" y="1225" on="1"/>
        <pt x="541" y="1225" on="0"/>
        <pt x="390" y="1026" on="0"/>
        <pt x="291" y="662" on="0"/>
        <pt x="291" y="489" on="1"/>
        <pt x="291" y="377" on="0"/>
        <pt x="364" y="274" on="0"/>
        <pt x="438" y="274" on="1"/>
        <pt x="495" y="274" on="0"/>
        <pt x="571" y="313" on="1"/>
        <pt x="594" y="229" on="1"/>
        <pt x="534" y="193" on="0"/>
        <pt x="430" y="188" on="1"/>
        <pt x="385" y="-20" on="1"/>
        <pt x="301" y="-20" on="1"/>
        <pt x="348" y="199" on="1"/>
        <pt x="193" y="243" on="0"/>
      </contour>
    </TTGlyph>
    <TTGlyph name="circumflex" xMin="414" yMin="1241" xMax="854" yMax="1569">
      <contour>
        <pt x="850" y="1241" on="1"/>
        <pt x="803" y="1241" on="1"/>
        <pt x="737" y="1341" on="0"/>
        <pt x="678" y="1444" on="1"/>
        <pt x="543" y="1309" on="0"/>
        <pt x="459" y="1241" on="1"/>
        <pt x="414" y="1241" on="1"/>
        <pt x="418" y="1260" on="1"/>
        <pt x="575" y="1438" on="0"/>
        <pt x="657" y="1569" on="1"/>
        <pt x="743" y="1569" on="1"/>
        <pt x="753" y="1522" on="0"/>
        <pt x="790" y="1418" on="1"/>
        <pt x="831" y="1310" on="0"/>
        <pt x="854" y="1260" on="1"/>
      </contour>
    </TTGlyph>
    <TTGlyph name="colon" xMin="70" yMin="-16" xMax="420" yMax="1087">
      <contour>
        <pt x="260" y="944" on="1"/>
        <pt x="260" y="1006" on="0"/>
        <pt x="317" y="1087" on="0"/>
        <pt x="362" y="1087" on="1"/>
        <pt x="391" y="1087" on="0"/>
        <pt x="420" y="1043" on="0"/>
        <pt x="420" y="1012" on="1"/>
        <pt x="420" y="951" on="0"/>
        <pt x="366" y="874" on="0"/>
        <pt x="322" y="874" on="1"/>
        <pt x="296" y="874" on="0"/>
        <pt x="260" y="912" on="0"/>
      </contour>
      <contour>
        <pt x="70" y="53" on="1"/>
        <pt x="70" y="115" on="0"/>
        <pt x="125" y="197" on="0"/>
        <pt x="172" y="197" on="1"/>
        <pt x="199" y="197" on="0"/>
        <pt x="229" y="155" on="0"/>
        <pt x="229" y="121" on="1"/>
        <pt x="229" y="60" on="0"/>
        <pt x="174" y="-16" on="0"/>
        <pt x="131" y="-16" on="1"/>
        <pt x="105" y="-16" on="0"/>
        <pt x="70" y="21" on="0"/>
      </contour>
    </TTGlyph>
    <TTGlyph name="comma" xMin="-20" yMin="-264" xMax="289" yMax="205">
      <contour>
        <pt x="281" y="205" on="1"/>
        <pt x="289" y="182" on="1"/>
        <pt x="187" y="-32" on="0"/>
        <pt x="45" y="-264" on="1"/>
        <pt x="-20" y="-264" on="1"/>
        <pt x="103" y="4" on="0"/>
        <pt x="166" y="205" on="1"/>
      </contour>
    </TTGlyph>
    <TTGlyph name="copyright" xMin="174" yMin="-20" xMax="1677" yMax="1483">
      <contour>
        <pt x="719" y="-20" on="0"/>
        <pt x="369" y="186" on="0"/>
        <pt x="174" y="532" on="0"/>
        <pt x="174" y="931" on="0"/>
        <pt x="375" y="1282" on="0"/>
        <pt x="725" y="1483" on="0"/>
        <pt x="1125" y="1483" on="0"/>
        <pt x="1474" y="1285" on="0"/>
        <pt x="1575" y="1108" on="1"/>
        <pt x="1677" y="932" on="0"/>
        <pt x="1677" y="532" on="0"/>
        <pt x="1578" y="358" on="1"/>
        <pt x="1481" y="184" on="0"/>
        <pt x="1132" y="-20" on="0"/>
      </contour>
      <contour>
        <pt x="444" y="1213" on="0"/>
        <pt x="266" y="909" on="0"/>
        <pt x="266" y="550" on="0"/>
        <pt x="450" y="242" on="0"/>
        <pt x="752" y="72" on="0"/>
        <pt x="1104" y="72" on="0"/>
        <pt x="1407" y="249" on="0"/>
        <pt x="1585" y="553" on="0"/>
        <pt x="1585" y="904" on="0"/>
        <pt x="1413" y="1208" on="0"/>
        <pt x="1106" y="1391" on="0"/>
        <pt x="748" y="1391" on="0"/>
      </contour>
      <contour>
        <pt x="971" y="1092" on="1"/>
        <pt x="829" y="1092" on="0"/>
        <pt x="668" y="902" on="0"/>
        <pt x="668" y="733" on="1"/>
        <pt x="668" y="369" on="0"/>
        <pt x="963" y="369" on="1"/>
        <pt x="1048" y="369" on="0"/>
        <pt x="1161" y="412" on="1"/>
        <pt x="1161" y="324" on="1"/>
        <pt x="1059" y="279" on="0"/>
        <pt x="952" y="279" on="1"/>
        <pt x="765" y="279" on="0"/>
        <pt x="563" y="511" on="0"/>
        <pt x="563" y="932" on="0"/>
        <pt x="785" y="1182" on="0"/>
        <pt x="971" y="1182" on="1"/>
        <pt x="1091" y="1182" on="0"/>
        <pt x="1198" y="1130" on="1"/>
        <pt x="1161" y="1047" on="1"/>
        <pt x="1063" y="1092" on="0"/>
      </contour>
    </TTGlyph>
    <TTGlyph name="d" xMin="119" yMin="-20" xMax="961" yMax="1556">
      <contour>
        <pt x="319" y="-20" on="1"/>
        <pt x="119" y="-20" on="0"/>
        <pt x="119" y="262" on="1"/>
        <pt x="119" y="469" on="0"/>
        <pt x="244" y="881" on="0"/>
        <pt x="443" y="1106" on="0"/>
        <pt x="561" y="1106" on="1"/>
        <pt x="629" y="1106" on="0"/>
        <pt x="723" y="1023" on="0"/>
        <pt x="735" y="954" on="1"/>
        <pt x="741" y="954" on="1"/>
        <pt x="866" y="1556" on="1"/>
        <pt x="961" y="1556" on="1"/>
        <pt x="631" y="0" on="1"/>
        <pt x="555" y="0" on="1"/>
        <pt x="573" y="156" on="1"/>
        <pt x="569" y="156" on="1"/>
        <pt x="455" y="-20" on="0"/>
      </contour>
      <contour>
        <pt x="338" y="63" on="1"/>
        <pt x="428" y="63" on="0"/>
        <pt x="584" y="268" on="0"/>
        <pt x="692" y="663" on="0"/>
        <pt x="692" y="844" on="1"/>
        <pt x="692" y="930" on="0"/>
        <pt x="627" y="1016" on="0"/>
        <pt x="557" y="1016" on="1"/>
        <pt x="469" y="1016" on="0"/>
        <pt x="319" y="814" on="0"/>
        <pt x="217" y="420" on="0"/>
        <pt x="217" y="248" on="1"/>
        <pt x="217" y="154" on="0"/>
        <pt x="272" y="63" on="0"/>
      </contour>
    </TTGlyph>
    <TTGlyph name="dagger" xMin="250" yMin="0" xMax="844" yMax="1556">
      <contour>
        <pt x="567" y="1065" on="1"/>
        <pt x="362" y="0" on="1"/>
        <pt x="250" y="0" on="1"/>
        <pt x="500" y="1065" on="1"/>
        <pt x="252" y="1055" on="1"/>
        <pt x="270" y="1147" on="1"/>
        <pt x="512" y="1128" on="1"/>
        <pt x="582" y="1556" on="1"/>
        <pt x="694" y="1556" on="1"/>
        <pt x="580" y="1128" on="1"/>
        <pt x="844" y="1147" on="1"/>
        <pt x="825" y="1055" on="1"/>
      </contour>
    </TTGlyph>
    <TTGlyph name="daggerdbl" xMin="104" yMin="0" xMax="854" yMax="1556">
      <contour>
        <pt x="698" y="457" on="1"/>
        <pt x="678" y="365" on="1"/>
        <pt x="420" y="381" on="1"/>
        <pt x="360" y="0" on="1"/>
        <pt x="248" y="0" on="1"/>
        <pt x="352" y="381" on="1"/>
        <pt x="104" y="365" on="1"/>
        <pt x="125" y="457" on="1"/>
        <pt x="365" y="446" on="1"/>
        <pt x="426" y="786" on="1"/>
        <pt x="506" y="1110" on="1"/>
        <pt x="260" y="1100" on="1"/>
        <pt x="281" y="1192" on="1"/>
        <pt x="520" y="1174" on="1"/>
        <pt x="580" y="1556" on="1"/>
        <pt x="692" y="1556" on="1"/>
        <pt x="588" y="1174" on="1"/>
        <pt x="854" y="1192" on="1"/>
        <pt x="834" y="1100" on="1"/>
        <pt x="573" y="1110" on="1"/>
        <pt x="516" y="786" on="1"/>
        <pt x="432" y="446" on="1"/>
      </contour>
    </TTGlyph>
    <TTGlyph name="daletdageshhb" xMin="136" yMin="0" xMax="784" yMax="1290">
      <contour>
        <pt x="784" y="1290" on="1"/>
        <pt x="769" y="1217" on="1"/>
        <pt x="721" y="1201" on="0"/>
        <pt x="648" y="1164" on="0"/>
        <pt x="607" y="1132" on="1"/>
        <pt x="523" y="1065" on="0"/>
        <pt x="493" y="928" on="1"/>
        <pt x="296" y="0" on="1"/>
        <pt x="201" y="0" on="1"/>
        <pt x="398" y="928" on="1"/>
        <pt x="411" y="987" on="0"/>
        <pt x="460" y="1088" on="0"/>
        <pt x="486" y="1118" on="1"/>
        <pt x="541" y="1180" on="0"/>
        <pt x="576" y="1198" on="1"/>
        <pt x="591" y="1206" on="1"/>
        <pt x="136" y="1206" on="1"/>
        <pt x="154" y="1290" on="1"/>
      </contour>
      <contour>
        <pt x="241" y="745" on="1"/>
        <pt x="292" y="745" on="0"/>
        <pt x="292" y="696" on="1"/>
        <pt x="292" y="684" on="0"/>
        <pt x="289" y="669" on="1"/>
        <pt x="272" y="595" on="0"/>
        <pt x="209" y="595" on="1"/>
        <pt x="160" y="595" on="0"/>
        <pt x="160" y="641" on="1"/>
        <pt x="160" y="653" on="0"/>
        <pt x="164" y="669" on="1"/>
        <pt x="180" y="745" on="0"/>
      </contour>
    </TTGlyph>
    <TTGlyph name="degree" xMin="240" yMin="885" xMax="838" yMax="1483">
      <contour>
        <pt x="838" y="1312" on="0"/>
        <pt x="838" y="1056" on="0"/>
        <pt x="667" y="885" on="0"/>
        <pt x="410" y="885" on="0"/>
        <pt x="240" y="1050" on="0"/>
        <pt x="240" y="1316" on="0"/>
        <pt x="413" y="1483" on="0"/>
        <pt x="667" y="1483" on="0"/>
      </contour>
      <contour>
        <pt x="754" y="1088" on="0"/>
        <pt x="754" y="1280" on="0"/>
        <pt x="628" y="1407" on="0"/>
        <pt x="447" y="1407" on="0"/>
        <pt x="324" y="1278" on="0"/>
        <pt x="324" y="1090" on="0"/>
        <pt x="450" y="961" on="0"/>
        <pt x="626" y="961" on="0"/>
      </contour>
    </TTGlyph>
    <TTGlyph name="dieresis" xMin="453" yMin="1298" xMax="854" yMax="1475">
      <contour>
        <pt x="453" y="1362" on="1"/>
        <pt x="453" y="1411" on="0"/>
        <pt x="499" y="1475" on="0"/>
        <pt x="535" y="1475" on="1"/>
        <pt x="582" y="1475" on="0"/>
        <pt x="582" y="1363" on="0"/>
        <pt x="539" y="1298" on="0"/>
        <pt x="502" y="1298" on="1"/>
        <pt x="453" y="1298" on="0"/>
      </contour>
      <contour>
        <pt x="725" y="1362" on="1"/>
        <pt x="725" y="1411" on="0"/>
        <pt x="771" y="1475" on="0"/>
        <pt x="807" y="1475" on="1"/>
        <pt x="854" y="1475" on="0"/>
        <pt x="854" y="1363" on="0"/>
        <pt x="811" y="1298" on="0"/>
        <pt x="774" y="1298" on="1"/>
        <pt x="725" y="1298" on="0"/>
      </contour>
    </TTGlyph>
    <TTGlyph name="divide" xMin="131" yMin="311" xMax="764" yMax="1133">
      <contour>
        <pt x="446" y="940" on="1"/>
        <pt x="377" y="940" on="0"/>
        <pt x="377" y="1133" on="0"/>
        <pt x="516" y="1133" on="0"/>
        <pt x="516" y="1036" on="1"/>
        <pt x="516" y="988" on="0"/>
        <pt x="477" y="940" on="0"/>
      </contour>
      <contour>
        <pt x="764" y="686" on="1"/>
        <pt x="131" y="686" on="1"/>
        <pt x="131" y="760" on="1"/>
        <pt x="764" y="760" on="1"/>
      </contour>
      <contour>
        <pt x="377" y="408" on="1"/>
        <pt x="377" y="504" on="0"/>
        <pt x="446" y="504" on="1"/>
        <pt x="477" y="504" on="0"/>
        <pt x="516" y="457" on="0"/>
        <pt x="516" y="359" on="0"/>
        <pt x="477" y="311" on="0"/>
        <pt x="414" y="311" on="0"/>
        <pt x="377" y="359" on="0"/>
      </contour>
    </TTGlyph>
    <TTGlyph name="dollar" xMin="53" yMin="-119" xMax="834" yMax="1556">
      <contour>
        <pt x="223" y="1034" on="1"/>
        <pt x="223" y="1177" on="0"/>
        <pt x="389" y="1353" on="0"/>
        <pt x="539" y="1370" on="1"/>
        <pt x="580" y="1556" on="1"/>
        <pt x="662" y="1556" on="1"/>
        <pt x="623" y="1374" on="1"/>
        <pt x="743" y="1371" on="0"/>
        <pt x="834" y="1317" on="1"/>
        <pt x="786" y="1227" on="1"/>
        <pt x="687" y="1281" on="0"/>
        <pt x="602" y="1284" on="1"/>
        <pt x="498" y="795" on="1"/>
        <pt x="581" y="727" on="0"/>
        <pt x="611" y="683" on="1"/>
        <pt x="682" y="586" on="0"/>
        <pt x="682" y="312" on="0"/>
        <pt x="513" y="141" on="0"/>
        <pt x="356" y="125" on="1"/>
        <pt x="305" y="-119" on="1"/>
        <pt x="223" y="-119" on="1"/>
        <pt x="274" y="123" on="1"/>
        <pt x="123" y="127" on="0"/>
        <pt x="53" y="176" on="1"/>
        <pt x="53" y="279" on="1"/>
        <pt x="134" y="219" on="0"/>
        <pt x="293" y="215" on="1"/>
        <pt x="406" y="743" on="1"/>
        <pt x="323" y="805" on="0"/>
        <pt x="290" y="845" on="1"/>
        <pt x="223" y="928" on="0"/>
      </contour>
      <contour>
        <pt x="319" y="1040" on="1"/>
        <pt x="319" y="988" on="0"/>
        <pt x="370" y="898" on="0"/>
        <pt x="428" y="850" on="1"/>
        <pt x="520" y="1278" on="1"/>
        <pt x="319" y="1251" on="0"/>
      </contour>
      <contour>
        <pt x="588" y="449" on="1"/>
        <pt x="588" y="591" on="0"/>
        <pt x="475" y="688" on="1"/>
        <pt x="377" y="219" on="1"/>
        <pt x="479" y="233" on="0"/>
        <pt x="588" y="351" on="0"/>
      </contour>
    </TTGlyph>
    <TTGlyph name="dotaccent" xMin="305" yMin="1292" xMax="434" yMax="1481">
      <contour>
        <pt x="305" y="1356" on="1"/>
        <pt x="305" y="1408" on="0"/>
        <pt x="352" y="1481" on="0"/>
        <pt x="387" y="1481" on="1"/>
        <pt x="434" y="1481" on="0"/>
        <pt x="434" y="1366" on="0"/>
        <pt x="390" y="1292" on="0"/>
        <pt x="354" y="1292" on="1"/>
        <pt x="305" y="1292" on="0"/>
      </contour>
    </TTGlyph>
    <TTGlyph name="dotlessi" xMin="68" yMin="0" xMax="393" yMax="1085">
      <contour>
        <pt x="68" y="0" on="1"/>
        <pt x="299" y="1085" on="1"/>
        <pt x="393" y="1085" on="1"/>
        <pt x="162" y="0" on="1"/>
      </contour>
    </TTGlyph>
    <TTGlyph name="e" xMin="119" yMin="-20" xMax="743" yMax="1106">
      <contour>
        <pt x="584" y="27" on="1"/>
        <pt x="499" y="-20" on="0"/>
        <pt x="253" y="-20" on="0"/>
        <pt x="119" y="147" on="0"/>
        <pt x="119" y="297" on="1"/>
        <pt x="119" y="511" on="0"/>
        <pt x="242" y="889" on="0"/>
        <pt x="447" y="1106" on="0"/>
        <pt x="561" y="1106" on="1"/>
        <pt x="649" y="1106" on="0"/>
        <pt x="743" y="1004" on="0"/>
        <pt x="743" y="900" on="1"/>
        <pt x="743" y="715" on="0"/>
        <pt x="483" y="506" on="0"/>
        <pt x="266" y="506" on="1"/>
        <pt x="258" y="506" on="0"/>
        <pt x="250" y="506" on="1"/>
        <pt x="238" y="506" on="1"/>
        <pt x="217" y="407" on="0"/>
        <pt x="217" y="307" on="1"/>
        <pt x="217" y="66" on="0"/>
        <pt x="401" y="66" on="1"/>
        <pt x="485" y="66" on="0"/>
        <pt x="584" y="123" on="1"/>
      </contour>
      <contour>
        <pt x="545" y="1018" on="1"/>
        <pt x="455" y="1018" on="0"/>
        <pt x="296" y="782" on="0"/>
        <pt x="250" y="588" on="1"/>
        <pt x="649" y="588" on="0"/>
        <pt x="649" y="905" on="1"/>
        <pt x="649" y="961" on="0"/>
        <pt x="602" y="1018" on="0"/>
      </contour>
    </TTGlyph>
    <TTGlyph name="eacute" xMin="119" yMin="-20" xMax="840" yMax="1569">
      <contour>
        <pt x="478" y="1241" on="1"/>
        <pt x="478" y="1257" on="1"/>
        <pt x="631" y="1441" on="0"/>
        <pt x="701" y="1569" on="1"/>
        <pt x="840" y="1569" on="1"/>
        <pt x="840" y="1552" on="1"/>
        <pt x="797" y="1488" on="0"/>
        <pt x="606" y="1299" on="0"/>
        <pt x="529" y="1241" on="1"/>
      </contour>
      <contour>
        <pt x="584" y="27" on="1"/>
        <pt x="499" y="-20" on="0"/>
        <pt x="253" y="-20" on="0"/>
        <pt x="119" y="147" on="0"/>
        <pt x="119" y="297" on="1"/>
        <pt x="119" y="511" on="0"/>
        <pt x="242" y="889" on="0"/>
        <pt x="447" y="1106" on="0"/>
        <pt x="561" y="1106" on="1"/>
        <pt x="649" y="1106" on="0"/>
        <pt x="743" y="1004" on="0"/>
        <pt x="743" y="900" on="1"/>
        <pt x="743" y="715" on="0"/>
        <pt x="483" y="506" on="0"/>
        <pt x="266" y="506" on="1"/>
        <pt x="258" y="506" on="0"/>
        <pt x="250" y="506" on="1"/>
        <pt x="238" y="506" on="1"/>
        <pt x="217" y="407" on="0"/>
        <pt x="217" y="307" on="1"/>
        <pt x="217" y="66" on="0"/>
        <pt x="401" y="66" on="1"/>
        <pt x="485" y="66" on="0"/>
        <pt x="584" y="123" on="1"/>
      </contour>
      <contour>
        <pt x="545" y="1018" on="1"/>
        <pt x="455" y="1018" on="0"/>
        <pt x="296" y="782" on="0"/>
        <pt x="250" y="588" on="1"/>
        <pt x="649" y="588" on="0"/>
        <pt x="649" y="905" on="1"/>
        <pt x="649" y="961" on="0"/>
        <pt x="602" y="1018" on="0"/>
      </contour>
    </TTGlyph>
    <TTGlyph name="ecircumflex" xMin="119" yMin="-20" xMax="796" yMax="1569">
      <contour>
        <pt x="792" y="1241" on="1"/>
        <pt x="745" y="1241" on="1"/>
        <pt x="679" y="1341" on="0"/>
        <pt x="620" y="1444" on="1"/>
        <pt x="485" y="1309" on="0"/>
        <pt x="401" y="1241" on="1"/>
        <pt x="356" y="1241" on="1"/>
        <pt x="360" y="1260" on="1"/>
        <pt x="517" y="1438" on="0"/>
        <pt x="599" y="1569" on="1"/>
        <pt x="685" y="1569" on="1"/>
        <pt x="695" y="1522" on="0"/>
        <pt x="732" y="1418" on="1"/>
        <pt x="773" y="1310" on="0"/>
        <pt x="796" y="1260" on="1"/>
      </contour>
      <contour>
        <pt x="584" y="27" on="1"/>
        <pt x="499" y="-20" on="0"/>
        <pt x="253" y="-20" on="0"/>
        <pt x="119" y="147" on="0"/>
        <pt x="119" y="297" on="1"/>
        <pt x="119" y="511" on="0"/>
        <pt x="242" y="889" on="0"/>
        <pt x="447" y="1106" on="0"/>
        <pt x="561" y="1106" on="1"/>
        <pt x="649" y="1106" on="0"/>
        <pt x="743" y="1004" on="0"/>
        <pt x="743" y="900" on="1"/>
        <pt x="743" y="715" on="0"/>
        <pt x="483" y="506" on="0"/>
        <pt x="266" y="506" on="1"/>
        <pt x="258" y="506" on="0"/>
        <pt x="250" y="506" on="1"/>
        <pt x="238" y="506" on="1"/>
        <pt x="217" y="407" on="0"/>
        <pt x="217" y="307" on="1"/>
        <pt x="217" y="66" on="0"/>
        <pt x="401" y="66" on="1"/>
        <pt x="485" y="66" on="0"/>
        <pt x="584" y="123" on="1"/>
      </contour>
      <contour>
        <pt x="545" y="1018" on="1"/>
        <pt x="455" y="1018" on="0"/>
        <pt x="296" y="782" on="0"/>
        <pt x="250" y="588" on="1"/>
        <pt x="649" y="588" on="0"/>
        <pt x="649" y="905" on="1"/>
        <pt x="649" y="961" on="0"/>
        <pt x="602" y="1018" on="0"/>
      </contour>
    </TTGlyph>
    <TTGlyph name="edieresis" xMin="119" yMin="-20" xMax="814" yMax="1475">
      <contour>
        <pt x="413" y="1362" on="1"/>
        <pt x="413" y="1411" on="0"/>
        <pt x="459" y="1475" on="0"/>
        <pt x="495" y="1475" on="1"/>
        <pt x="542" y="1475" on="0"/>
        <pt x="542" y="1363" on="0"/>
        <pt x="499" y="1298" on="0"/>
        <pt x="462" y="1298" on="1"/>
        <pt x="413" y="1298" on="0"/>
      </contour>
      <contour>
        <pt x="685" y="1362" on="1"/>
        <pt x="685" y="1411" on="0"/>
        <pt x="731" y="1475" on="0"/>
        <pt x="767" y="1475" on="1"/>
        <pt x="814" y="1475" on="0"/>
        <pt x="814" y="1363" on="0"/>
        <pt x="771" y="1298" on="0"/>
        <pt x="734" y="1298" on="1"/>
        <pt x="685" y="1298" on="0"/>
      </contour>
      <contour>
        <pt x="584" y="27" on="1"/>
        <pt x="499" y="-20" on="0"/>
        <pt x="253" y="-20" on="0"/>
        <pt x="119" y="147" on="0"/>
        <pt x="119" y="297" on="1"/>
        <pt x="119" y="511" on="0"/>
        <pt x="242" y="889" on="0"/>
        <pt x="447" y="1106" on="0"/>
        <pt x="561" y="1106" on="1"/>
        <pt x="649" y="1106" on="0"/>
        <pt x="743" y="1004" on="0"/>
        <pt x="743" y="900" on="1"/>
        <pt x="743" y="715" on="0"/>
        <pt x="483" y="506" on="0"/>
        <pt x="266" y="506" on="1"/>
        <pt x="258" y="506" on="0"/>
        <pt x="250" y="506" on="1"/>
        <pt x="238" y="506" on="1"/>
        <pt x="217" y="407" on="0"/>
        <pt x="217" y="307" on="1"/>
        <pt x="217" y="66" on="0"/>
        <pt x="401" y="66" on="1"/>
        <pt x="485" y="66" on="0"/>
        <pt x="584" y="123" on="1"/>
      </contour>
      <contour>
        <pt x="545" y="1018" on="1"/>
        <pt x="455" y="1018" on="0"/>
        <pt x="296" y="782" on="0"/>
        <pt x="250" y="588" on="1"/>
        <pt x="649" y="588" on="0"/>
        <pt x="649" y="905" on="1"/>
        <pt x="649" y="961" on="0"/>
        <pt x="602" y="1018" on="0"/>
      </contour>
    </TTGlyph>
    <TTGlyph name="egrave" xMin="119" yMin="-20" xMax="743" yMax="1569">
      <contour>
        <pt x="611" y="1241" on="1"/>
        <pt x="572" y="1241" on="1"/>
        <pt x="523" y="1299" on="0"/>
        <pt x="415" y="1490" on="0"/>
        <pt x="400" y="1552" on="1"/>
        <pt x="400" y="1569" on="1"/>
        <pt x="527" y="1569" on="1"/>
        <pt x="552" y="1413" on="0"/>
        <pt x="611" y="1260" on="1"/>
      </contour>
      <contour>
        <pt x="584" y="27" on="1"/>
        <pt x="499" y="-20" on="0"/>
        <pt x="253" y="-20" on="0"/>
        <pt x="119" y="147" on="0"/>
        <pt x="119" y="297" on="1"/>
        <pt x="119" y="511" on="0"/>
        <pt x="242" y="889" on="0"/>
        <pt x="447" y="1106" on="0"/>
        <pt x="561" y="1106" on="1"/>
        <pt x="649" y="1106" on="0"/>
        <pt x="743" y="1004" on="0"/>
        <pt x="743" y="900" on="1"/>
        <pt x="743" y="715" on="0"/>
        <pt x="483" y="506" on="0"/>
        <pt x="266" y="506" on="1"/>
        <pt x="258" y="506" on="0"/>
        <pt x="250" y="506" on="1"/>
        <pt x="238" y="506" on="1"/>
        <pt x="217" y="407" on="0"/>
        <pt x="217" y="307" on="1"/>
        <pt x="217" y="66" on="0"/>
        <pt x="401" y="66" on="1"/>
        <pt x="485" y="66" on="0"/>
        <pt x="584" y="123" on="1"/>
      </contour>
      <contour>
        <pt x="545" y="1018" on="1"/>
        <pt x="455" y="1018" on="0"/>
        <pt x="296" y="782" on="0"/>
        <pt x="250" y="588" on="1"/>
        <pt x="649" y="588" on="0"/>
        <pt x="649" y="905" on="1"/>
        <pt x="649" y="961" on="0"/>
        <pt x="602" y="1018" on="0"/>
      </contour>
    </TTGlyph>
    <TTGlyph name="eight" xMin="35" yMin="-20" xMax="821" yMax="1483">
      <contour>
        <pt x="35" y="287" on="1"/>
        <pt x="35" y="457" on="0"/>
        <pt x="200" y="688" on="0"/>
        <pt x="375" y="776" on="1"/>
        <pt x="238" y="927" on="0"/>
        <pt x="238" y="1122" on="1"/>
        <pt x="238" y="1278" on="0"/>
        <pt x="422" y="1483" on="0"/>
        <pt x="571" y="1483" on="1"/>
        <pt x="685" y="1483" on="0"/>
        <pt x="821" y="1336" on="0"/>
        <pt x="821" y="1069" on="0"/>
        <pt x="662" y="838" on="0"/>
        <pt x="514" y="760" on="1"/>
        <pt x="605" y="669" on="0"/>
        <pt x="686" y="483" on="0"/>
        <pt x="686" y="377" on="1"/>
        <pt x="686" y="204" on="0"/>
        <pt x="588" y="91" on="1"/>
        <pt x="490" y="-20" on="0"/>
        <pt x="191" y="-20" on="0"/>
        <pt x="35" y="142" on="0"/>
      </contour>
      <contour>
        <pt x="336" y="1116" on="1"/>
        <pt x="336" y="947" on="0"/>
        <pt x="459" y="815" on="1"/>
        <pt x="588" y="883" on="0"/>
        <pt x="725" y="1078" on="0"/>
        <pt x="725" y="1192" on="1"/>
        <pt x="725" y="1285" on="0"/>
        <pt x="640" y="1393" on="0"/>
        <pt x="565" y="1393" on="1"/>
        <pt x="456" y="1393" on="0"/>
        <pt x="336" y="1247" on="0"/>
      </contour>
      <contour>
        <pt x="588" y="373" on="1"/>
        <pt x="588" y="466" on="0"/>
        <pt x="518" y="627" on="0"/>
        <pt x="430" y="717" on="1"/>
        <pt x="267" y="633" on="0"/>
        <pt x="133" y="436" on="0"/>
        <pt x="133" y="293" on="1"/>
        <pt x="133" y="194" on="0"/>
        <pt x="187" y="132" on="1"/>
        <pt x="243" y="70" on="0"/>
        <pt x="332" y="70" on="1"/>
        <pt x="450" y="70" on="0"/>
        <pt x="588" y="234" on="0"/>
      </contour>
    </TTGlyph>
    <TTGlyph name="ellipsis" xMin="117" yMin="-16" xMax="1038" yMax="197">
      <contour>
        <pt x="117" y="53" on="1"/>
        <pt x="117" y="115" on="0"/>
        <pt x="172" y="197" on="0"/>
        <pt x="219" y="197" on="1"/>
        <pt x="246" y="197" on="0"/>
        <pt x="276" y="155" on="0"/>
        <pt x="276" y="121" on="1"/>
        <pt x="276" y="60" on="0"/>
        <pt x="221" y="-16" on="0"/>
        <pt x="178" y="-16" on="1"/>
        <pt x="152" y="-16" on="0"/>
        <pt x="117" y="21" on="0"/>
      </contour>
      <contour>
        <pt x="498" y="53" on="1"/>
        <pt x="498" y="115" on="0"/>
        <pt x="553" y="197" on="0"/>
        <pt x="600" y="197" on="1"/>
        <pt x="627" y="197" on="0"/>
        <pt x="657" y="155" on="0"/>
        <pt x="657" y="121" on="1"/>
        <pt x="657" y="60" on="0"/>
        <pt x="602" y="-16" on="0"/>
        <pt x="559" y="-16" on="1"/>
        <pt x="533" y="-16" on="0"/>
        <pt x="498" y="21" on="0"/>
      </contour>
      <contour>
        <pt x="879" y="53" on="1"/>
        <pt x="879" y="115" on="0"/>
        <pt x="934" y="197" on="0"/>
        <pt x="981" y="197" on="1"/>
        <pt x="1008" y="197" on="0"/>
        <pt x="1038" y="155" on="0"/>
        <pt x="1038" y="121" on="1"/>
        <pt x="1038" y="60" on="0"/>
        <pt x="983" y="-16" on="0"/>
        <pt x="940" y="-16" on="1"/>
        <pt x="914" y="-16" on="0"/>
        <pt x="879" y="21" on="0"/>
      </contour>
    </TTGlyph>
    <TTGlyph name="emdash" xMin="123" yMin="512" xMax="1835" yMax="594">
      <contour>
        <pt x="139" y="594" on="1"/>
        <pt x="1835" y="594" on="1"/>
        <pt x="1819" y="512" on="1"/>
        <pt x="123" y="512" on="1"/>
      </contour>
    </TTGlyph>
    <TTGlyph name="endash" xMin="123" yMin="512" xMax="913" yMax="594">
      <contour>
        <pt x="139" y="594" on="1"/>
        <pt x="913" y="594" on="1"/>
        <pt x="897" y="512" on="1"/>
        <pt x="123" y="512" on="1"/>
      </contour>
    </TTGlyph>
    <TTGlyph name="equal" xMin="135" yMin="465" xMax="768" yMax="977">
      <contour>
        <pt x="768" y="895" on="1"/>
        <pt x="135" y="895" on="1"/>
        <pt x="135" y="977" on="1"/>
        <pt x="768" y="977" on="1"/>
      </contour>
      <contour>
        <pt x="768" y="465" on="1"/>
        <pt x="135" y="465" on="1"/>
        <pt x="135" y="547" on="1"/>
        <pt x="768" y="547" on="1"/>
      </contour>
    </TTGlyph>
    <TTGlyph name="exclam" xMin="96" yMin="-16" xMax="530" yMax="1462">
      <contour>
        <pt x="205" y="367" on="1"/>
        <pt x="408" y="1462" on="1"/>
        <pt x="530" y="1462" on="1"/>
        <pt x="266" y="367" on="1"/>
      </contour>
      <contour>
        <pt x="96" y="53" on="1"/>
        <pt x="96" y="115" on="0"/>
        <pt x="153" y="197" on="0"/>
        <pt x="199" y="197" on="1"/>
        <pt x="226" y="197" on="0"/>
        <pt x="256" y="155" on="0"/>
        <pt x="256" y="121" on="1"/>
        <pt x="256" y="60" on="0"/>
        <pt x="201" y="-16" on="0"/>
        <pt x="158" y="-16" on="1"/>
        <pt x="132" y="-16" on="0"/>
        <pt x="96" y="21" on="0"/>
      </contour>
    </TTGlyph>
    <TTGlyph name="exclamdown" xMin="53" yMin="-391" xMax="487" yMax="1087">
      <contour>
        <pt x="487" y="1018" on="1"/>
        <pt x="487" y="956" on="0"/>
        <pt x="432" y="874" on="0"/>
        <pt x="385" y="874" on="1"/>
        <pt x="358" y="874" on="0"/>
        <pt x="328" y="916" on="0"/>
        <pt x="328" y="950" on="1"/>
        <pt x="328" y="1011" on="0"/>
        <pt x="383" y="1087" on="0"/>
        <pt x="426" y="1087" on="1"/>
        <pt x="452" y="1087" on="0"/>
        <pt x="487" y="1050" on="0"/>
      </contour>
      <contour>
        <pt x="379" y="705" on="1"/>
        <pt x="176" y="-391" on="1"/>
        <pt x="53" y="-391" on="1"/>
        <pt x="317" y="705" on="1"/>
      </contour>
    </TTGlyph>
    <TTGlyph name="f" xMin="-201" yMin="-492" xMax="709" yMax="1567">
      <contour>
        <pt x="-113" y="-492" on="1"/>
        <pt x="-162" y="-492" on="0"/>
        <pt x="-201" y="-481" on="1"/>
        <pt x="-201" y="-389" on="1"/>
        <pt x="-164" y="-401" on="0"/>
        <pt x="-70" y="-401" on="0"/>
        <pt x="-18" y="-348" on="0"/>
        <pt x="26" y="-224" on="0"/>
        <pt x="51" y="-100" on="1"/>
        <pt x="287" y="1001" on="1"/>
        <pt x="166" y="1001" on="1"/>
        <pt x="176" y="1055" on="1"/>
        <pt x="307" y="1096" on="1"/>
        <pt x="328" y="1194" on="1"/>
        <pt x="377" y="1414" on="0"/>
        <pt x="482" y="1564" on="0"/>
        <pt x="598" y="1567" on="1"/>
        <pt x="665" y="1567" on="0"/>
        <pt x="709" y="1542" on="1"/>
        <pt x="668" y="1454" on="1"/>
        <pt x="626" y="1475" on="0"/>
        <pt x="538" y="1475" on="0"/>
        <pt x="489" y="1424" on="0"/>
        <pt x="443" y="1291" on="0"/>
        <pt x="401" y="1085" on="1"/>
        <pt x="545" y="1085" on="1"/>
        <pt x="526" y="1001" on="1"/>
        <pt x="383" y="1001" on="1"/>
        <pt x="143" y="-106" on="1"/>
        <pt x="108" y="-270" on="0"/>
        <pt x="47" y="-425" on="0"/>
        <pt x="-38" y="-492" on="0"/>
      </contour>
    </TTGlyph>
    <TTGlyph name="finalkafdageshhb" xMin="130" yMin="-492" xMax="586" yMax="1310">
      <contour>
        <pt x="340" y="1310" on="1"/>
        <pt x="586" y="1310" on="0"/>
        <pt x="586" y="997" on="1"/>
        <pt x="586" y="881" on="0"/>
        <pt x="552" y="721" on="1"/>
        <pt x="294" y="-492" on="1"/>
        <pt x="197" y="-492" on="1"/>
        <pt x="455" y="721" on="1"/>
        <pt x="487" y="873" on="0"/>
        <pt x="487" y="979" on="1"/>
        <pt x="487" y="1220" on="0"/>
        <pt x="319" y="1220" on="1"/>
        <pt x="238" y="1220" on="0"/>
        <pt x="150" y="1170" on="1"/>
        <pt x="172" y="1273" on="1"/>
        <pt x="251" y="1310" on="0"/>
      </contour>
      <contour>
        <pt x="211" y="745" on="1"/>
        <pt x="262" y="745" on="0"/>
        <pt x="262" y="696" on="1"/>
        <pt x="262" y="684" on="0"/>
        <pt x="259" y="669" on="1"/>
        <pt x="242" y="595" on="0"/>
        <pt x="179" y="595" on="1"/>
        <pt x="130" y="595" on="0"/>
        <pt x="130" y="641" on="1"/>
        <pt x="130" y="653" on="0"/>
        <pt x="134" y="669" on="1"/>
        <pt x="150" y="745" on="0"/>
      </contour>
    </TTGlyph>
    <TTGlyph name="finalpedageshhb" xMin="119" yMin="-492" xMax="810" yMax="1310">
      <contour>
        <pt x="346" y="441" on="1"/>
        <pt x="244" y="441" on="0"/>
        <pt x="187" y="494" on="1"/>
        <pt x="119" y="558" on="0"/>
        <pt x="119" y="692" on="1"/>
        <pt x="119" y="766" on="0"/>
        <pt x="137" y="859" on="1"/>
        <pt x="179" y="1059" on="0"/>
        <pt x="413" y="1310" on="0"/>
        <pt x="563" y="1310" on="1"/>
        <pt x="810" y="1310" on="0"/>
        <pt x="810" y="974" on="1"/>
        <pt x="810" y="837" on="0"/>
        <pt x="769" y="645" on="1"/>
        <pt x="527" y="-492" on="1"/>
        <pt x="432" y="-492" on="1"/>
        <pt x="674" y="645" on="1"/>
        <pt x="714" y="832" on="0"/>
        <pt x="714" y="958" on="1"/>
        <pt x="714" y="1220" on="0"/>
        <pt x="543" y="1220" on="1"/>
        <pt x="482" y="1220" on="0"/>
        <pt x="371" y="1150" on="0"/>
        <pt x="332" y="1094" on="1"/>
        <pt x="250" y="980" on="0"/>
        <pt x="225" y="859" on="1"/>
        <pt x="206" y="771" on="0"/>
        <pt x="206" y="656" on="0"/>
        <pt x="231" y="566" on="0"/>
        <pt x="307" y="516" on="0"/>
        <pt x="369" y="516" on="1"/>
        <pt x="383" y="516" on="1"/>
        <pt x="351" y="441" on="1"/>
      </contour>
      <contour>
        <pt x="463" y="922" on="1"/>
        <pt x="514" y="922" on="0"/>
        <pt x="514" y="873" on="1"/>
        <pt x="514" y="861" on="0"/>
        <pt x="511" y="846" on="1"/>
        <pt x="494" y="772" on="0"/>
        <pt x="431" y="772" on="1"/>
        <pt x="382" y="772" on="0"/>
        <pt x="382" y="818" on="1"/>
        <pt x="382" y="830" on="0"/>
        <pt x="386" y="846" on="1"/>
        <pt x="402" y="922" on="0"/>
      </contour>
    </TTGlyph>
    <TTGlyph name="five" xMin="16" yMin="-20" xMax="815" yMax="1462">
      <contour>
        <pt x="233" y="68" on="1"/>
        <pt x="395" y="68" on="0"/>
        <pt x="496" y="184" on="1"/>
        <pt x="596" y="300" on="0"/>
        <pt x="596" y="492" on="1"/>
        <pt x="596" y="636" on="0"/>
        <pt x="487" y="791" on="0"/>
        <pt x="379" y="791" on="1"/>
        <pt x="350" y="791" on="0"/>
        <pt x="290" y="782" on="0"/>
        <pt x="219" y="758" on="1"/>
        <pt x="180" y="821" on="1"/>
        <pt x="358" y="1462" on="1"/>
        <pt x="815" y="1462" on="1"/>
        <pt x="795" y="1368" on="1"/>
        <pt x="430" y="1368" on="1"/>
        <pt x="285" y="860" on="1"/>
        <pt x="343" y="874" on="0"/>
        <pt x="403" y="874" on="1"/>
        <pt x="543" y="874" on="0"/>
        <pt x="694" y="685" on="0"/>
        <pt x="694" y="508" on="1"/>
        <pt x="694" y="505" on="0"/>
        <pt x="694" y="501" on="1"/>
        <pt x="694" y="276" on="0"/>
        <pt x="440" y="-20" on="0"/>
        <pt x="240" y="-20" on="1"/>
        <pt x="234" y="-20" on="0"/>
        <pt x="229" y="-20" on="1"/>
        <pt x="168" y="-20" on="0"/>
        <pt x="50" y="7" on="0"/>
        <pt x="16" y="27" on="1"/>
        <pt x="16" y="137" on="1"/>
        <pt x="92" y="68" on="0"/>
      </contour>
    </TTGlyph>
    <TTGlyph name="florin" xMin="-61" yMin="-492" xMax="907" yMax="1483">
      <contour>
        <pt x="839" y="1368" on="1"/>
        <pt x="801" y="1391" on="0"/>
        <pt x="717" y="1391" on="0"/>
        <pt x="695" y="1378" on="1"/>
        <pt x="651" y="1353" on="0"/>
        <pt x="620" y="1242" on="1"/>
        <pt x="601" y="1176" on="0"/>
        <pt x="549" y="930" on="1"/>
        <pt x="721" y="930" on="1"/>
        <pt x="702" y="846" on="1"/>
        <pt x="530" y="846" on="1"/>
        <pt x="324" y="-117" on="1"/>
        <pt x="272" y="-336" on="0"/>
        <pt x="162" y="-489" on="0"/>
        <pt x="47" y="-492" on="1"/>
        <pt x="-8" y="-492" on="0"/>
        <pt x="-61" y="-473" on="1"/>
        <pt x="-61" y="-381" on="1"/>
        <pt x="4" y="-403" on="0"/>
        <pt x="55" y="-403" on="1"/>
        <pt x="128" y="-399" on="0"/>
        <pt x="191" y="-288" on="0"/>
        <pt x="233" y="-100" on="1"/>
        <pt x="434" y="846" on="1"/>
        <pt x="293" y="846" on="1"/>
        <pt x="303" y="899" on="1"/>
        <pt x="455" y="940" on="1"/>
        <pt x="492" y="1110" on="1"/>
        <pt x="541" y="1326" on="0"/>
        <pt x="653" y="1481" on="0"/>
        <pt x="772" y="1483" on="1"/>
        <pt x="836" y="1483" on="0"/>
        <pt x="885" y="1456" on="1"/>
        <pt x="907" y="1444" on="1"/>
        <pt x="856" y="1358" on="1"/>
      </contour>
    </TTGlyph>
    <TTGlyph name="four" xMin="16" yMin="0" xMax="809" yMax="1479">
      <contour>
        <pt x="565" y="332" on="1"/>
        <pt x="494" y="0" on="1"/>
        <pt x="399" y="0" on="1"/>
        <pt x="471" y="332" on="1"/>
        <pt x="16" y="332" on="1"/>
        <pt x="33" y="416" on="1"/>
        <pt x="684" y="1479" on="1"/>
        <pt x="809" y="1479" on="1"/>
        <pt x="584" y="422" on="1"/>
        <pt x="723" y="422" on="1"/>
        <pt x="705" y="332" on="1"/>
      </contour>
      <contour>
        <pt x="645" y="1142" on="1"/>
        <pt x="700" y="1366" on="1"/>
        <pt x="692" y="1366" on="1"/>
        <pt x="592" y="1178" on="1"/>
        <pt x="131" y="422" on="1"/>
        <pt x="489" y="422" on="1"/>
      </contour>
    </TTGlyph>
    <TTGlyph name="fraction" xMin="-414" yMin="0" xMax="805" yMax="1462">
      <contour>
        <pt x="-317" y="0" on="1"/>
        <pt x="-414" y="0" on="1"/>
        <pt x="709" y="1462" on="1"/>
        <pt x="805" y="1462" on="1"/>
      </contour>
    </TTGlyph>
    <TTGlyph name="g" xMin="-74" yMin="-492" xMax="821" yMax="1106">
      <contour>
        <pt x="670" y="1001" on="1"/>
        <pt x="700" y="944" on="0"/>
        <pt x="700" y="748" on="0"/>
        <pt x="610" y="517" on="0"/>
        <pt x="464" y="387" on="0"/>
        <pt x="375" y="387" on="1"/>
        <pt x="350" y="387" on="1"/>
        <pt x="328" y="389" on="1"/>
        <pt x="203" y="302" on="0"/>
        <pt x="203" y="231" on="1"/>
        <pt x="203" y="189" on="0"/>
        <pt x="236" y="169" on="1"/>
        <pt x="249" y="162" on="0"/>
        <pt x="480" y="90" on="0"/>
        <pt x="582" y="-28" on="0"/>
        <pt x="582" y="-129" on="1"/>
        <pt x="582" y="-291" on="0"/>
        <pt x="369" y="-492" on="0"/>
        <pt x="203" y="-492" on="1"/>
        <pt x="71" y="-492" on="0"/>
        <pt x="-74" y="-358" on="0"/>
        <pt x="-74" y="-131" on="0"/>
        <pt x="56" y="42" on="0"/>
        <pt x="176" y="96" on="1"/>
        <pt x="113" y="138" on="0"/>
        <pt x="113" y="209" on="1"/>
        <pt x="113" y="263" on="0"/>
        <pt x="179" y="361" on="0"/>
        <pt x="260" y="418" on="1"/>
        <pt x="174" y="490" on="0"/>
        <pt x="174" y="751" on="0"/>
        <pt x="273" y="984" on="0"/>
        <pt x="423" y="1106" on="0"/>
        <pt x="516" y="1106" on="1"/>
        <pt x="580" y="1106" on="0"/>
        <pt x="614" y="1085" on="1"/>
        <pt x="821" y="1085" on="1"/>
        <pt x="807" y="1018" on="1"/>
      </contour>
      <contour>
        <pt x="266" y="612" on="1"/>
        <pt x="266" y="461" on="0"/>
        <pt x="377" y="461" on="1"/>
        <pt x="440" y="461" on="0"/>
        <pt x="489" y="513" on="1"/>
        <pt x="540" y="565" on="0"/>
        <pt x="606" y="777" on="0"/>
        <pt x="606" y="874" on="1"/>
        <pt x="606" y="1028" on="0"/>
        <pt x="498" y="1028" on="1"/>
        <pt x="438" y="1028" on="0"/>
        <pt x="385" y="972" on="1"/>
        <pt x="335" y="917" on="0"/>
        <pt x="266" y="701" on="0"/>
      </contour>
      <contour>
        <pt x="240" y="59" on="1"/>
        <pt x="145" y="28" on="0"/>
        <pt x="16" y="-134" on="0"/>
        <pt x="16" y="-325" on="0"/>
        <pt x="113" y="-414" on="0"/>
        <pt x="211" y="-414" on="1"/>
        <pt x="333" y="-414" on="0"/>
        <pt x="494" y="-266" on="0"/>
        <pt x="494" y="-147" on="1"/>
        <pt x="494" y="-12" on="0"/>
        <pt x="330" y="35" on="1"/>
      </contour>
    </TTGlyph>
    <TTGlyph name="gereshhb" xMin="100" yMin="821" xMax="409" yMax="1290">
      <contour>
        <pt x="401" y="1290" on="1"/>
        <pt x="409" y="1268" on="1"/>
        <pt x="318" y="1073" on="0"/>
        <pt x="165" y="821" on="1"/>
        <pt x="100" y="821" on="1"/>
        <pt x="222" y="1085" on="0"/>
        <pt x="290" y="1290" on="1"/>
      </contour>
    </TTGlyph>
    <TTGlyph name="germandbls" xMin="-219" yMin="-492" xMax="813" yMax="1567">
      <contour>
        <pt x="623" y="1567" on="1"/>
        <pt x="711" y="1567" on="0"/>
        <pt x="813" y="1453" on="0"/>
        <pt x="813" y="1281" on="0"/>
        <pt x="750" y="1142" on="0"/>
        <pt x="589" y="951" on="0"/>
        <pt x="545" y="851" on="0"/>
        <pt x="545" y="803" on="1"/>
        <pt x="545" y="737" on="0"/>
        <pt x="603" y="617" on="1"/>
        <pt x="688" y="441" on="0"/>
        <pt x="688" y="319" on="1"/>
        <pt x="688" y="168" on="0"/>
        <pt x="524" y="-20" on="0"/>
        <pt x="389" y="-20" on="1"/>
        <pt x="285" y="-20" on="0"/>
        <pt x="229" y="25" on="1"/>
        <pt x="229" y="125" on="1"/>
        <pt x="305" y="70" on="0"/>
        <pt x="484" y="70" on="0"/>
        <pt x="592" y="198" on="0"/>
        <pt x="592" y="407" on="0"/>
        <pt x="541" y="524" on="1"/>
        <pt x="510" y="592" on="1"/>
        <pt x="449" y="713" on="0"/>
        <pt x="449" y="865" on="0"/>
        <pt x="504" y="989" on="0"/>
        <pt x="563" y="1055" on="1"/>
        <pt x="647" y="1146" on="0"/>
        <pt x="717" y="1277" on="0"/>
        <pt x="717" y="1416" on="0"/>
        <pt x="659" y="1473" on="0"/>
        <pt x="606" y="1473" on="1"/>
        <pt x="463" y="1473" on="0"/>
        <pt x="410" y="1214" on="1"/>
        <pt x="125" y="-106" on="1"/>
        <pt x="88" y="-274" on="0"/>
        <pt x="27" y="-426" on="0"/>
        <pt x="-58" y="-492" on="0"/>
        <pt x="-180" y="-492" on="0"/>
        <pt x="-219" y="-481" on="1"/>
        <pt x="-219" y="-389" on="1"/>
        <pt x="-183" y="-401" on="0"/>
        <pt x="-88" y="-401" on="0"/>
        <pt x="-37" y="-349" on="0"/>
        <pt x="8" y="-221" on="0"/>
        <pt x="33" y="-100" on="1"/>
        <pt x="311" y="1204" on="1"/>
        <pt x="350" y="1387" on="0"/>
        <pt x="501" y="1567" on="0"/>
      </contour>
    </TTGlyph>
    <TTGlyph name="gershayimhb" xMin="122" yMin="821" xMax="684" yMax="1290">
      <contour>
        <pt x="421" y="1290" on="1"/>
        <pt x="430" y="1268" on="1"/>
        <pt x="339" y="1073" on="0"/>
        <pt x="186" y="821" on="1"/>
        <pt x="122" y="821" on="1"/>
        <pt x="232" y="1048" on="0"/>
        <pt x="313" y="1290" on="1"/>
      </contour>
      <contour>
        <pt x="677" y="1290" on="1"/>
        <pt x="684" y="1268" on="1"/>
        <pt x="593" y="1073" on="0"/>
        <pt x="440" y="821" on="1"/>
        <pt x="376" y="821" on="1"/>
        <pt x="486" y="1048" on="0"/>
        <pt x="567" y="1290" on="1"/>
      </contour>
    </TTGlyph>
    <TTGlyph name="gimeldageshhb" xMin="-22" yMin="-4" xMax="606" yMax="1310">
      <contour>
        <pt x="418" y="1310" on="1"/>
        <pt x="606" y="1310" on="0"/>
        <pt x="606" y="1127" on="1"/>
        <pt x="606" y="1079" on="0"/>
        <pt x="593" y="1019" on="1"/>
        <pt x="376" y="0" on="1"/>
        <pt x="296" y="0" on="1"/>
        <pt x="331" y="213" on="1"/>
        <pt x="324" y="213" on="1"/>
        <pt x="275" y="123" on="0"/>
        <pt x="242" y="85" on="1"/>
        <pt x="161" y="-4" on="0"/>
        <pt x="38" y="-4" on="1"/>
        <pt x="9" y="-4" on="0"/>
        <pt x="-22" y="7" on="1"/>
        <pt x="16" y="101" on="1"/>
        <pt x="36" y="88" on="0"/>
        <pt x="67" y="88" on="1"/>
        <pt x="184" y="88" on="0"/>
        <pt x="347" y="309" on="0"/>
        <pt x="390" y="511" on="1"/>
        <pt x="498" y="1019" on="1"/>
        <pt x="510" y="1081" on="0"/>
        <pt x="510" y="1168" on="0"/>
        <pt x="452" y="1224" on="0"/>
        <pt x="391" y="1224" on="1"/>
        <pt x="356" y="1224" on="0"/>
        <pt x="291" y="1207" on="1"/>
        <pt x="309" y="1295" on="1"/>
        <pt x="369" y="1310" on="0"/>
      </contour>
      <contour>
        <pt x="273" y="745" on="1"/>
        <pt x="324" y="745" on="0"/>
        <pt x="324" y="696" on="1"/>
        <pt x="324" y="684" on="0"/>
        <pt x="321" y="669" on="1"/>
        <pt x="304" y="595" on="0"/>
        <pt x="241" y="595" on="1"/>
        <pt x="192" y="595" on="0"/>
        <pt x="192" y="641" on="1"/>
        <pt x="192" y="653" on="0"/>
        <pt x="196" y="669" on="1"/>
        <pt x="212" y="745" on="0"/>
      </contour>
    </TTGlyph>
    <TTGlyph name="grave" xMin="571" yMin="1241" xMax="782" yMax="1569">
      <contour>
        <pt x="782" y="1241" on="1"/>
        <pt x="743" y="1241" on="1"/>
        <pt x="694" y="1299" on="0"/>
        <pt x="586" y="1490" on="0"/>
        <pt x="571" y="1552" on="1"/>
        <pt x="571" y="1569" on="1"/>
        <pt x="698" y="1569" on="1"/>
        <pt x="724" y="1413" on="0"/>
        <pt x="782" y="1260" on="1"/>
      </contour>
    </TTGlyph>
    <TTGlyph name="greater" xMin="170" yMin="287" xMax="803" yMax="1157">
      <contour>
        <pt x="711" y="723" on="1"/>
        <pt x="170" y="1057" on="1"/>
        <pt x="170" y="1157" on="1"/>
        <pt x="803" y="758" on="1"/>
        <pt x="803" y="690" on="1"/>
        <pt x="170" y="287" on="1"/>
        <pt x="170" y="389" on="1"/>
      </contour>
    </TTGlyph>
    <TTGlyph name="guillemotleft" xMin="127" yMin="147" xMax="831" yMax="907">
      <contour>
        <pt x="522" y="866" on="1"/>
        <pt x="246" y="526" on="1"/>
        <pt x="371" y="176" on="1"/>
        <pt x="307" y="147" on="1"/>
        <pt x="127" y="514" on="1"/>
        <pt x="131" y="541" on="1"/>
        <pt x="465" y="907" on="1"/>
      </contour>
      <contour>
        <pt x="831" y="866" on="1"/>
        <pt x="557" y="526" on="1"/>
        <pt x="680" y="176" on="1"/>
        <pt x="618" y="147" on="1"/>
        <pt x="436" y="514" on="1"/>
        <pt x="440" y="541" on="1"/>
        <pt x="776" y="907" on="1"/>
      </contour>
    </TTGlyph>
    <TTGlyph name="guillemotright" xMin="49" yMin="147" xMax="754" yMax="907">
      <contour>
        <pt x="49" y="188" on="1"/>
        <pt x="324" y="528" on="1"/>
        <pt x="201" y="879" on="1"/>
        <pt x="262" y="907" on="1"/>
        <pt x="444" y="541" on="1"/>
        <pt x="440" y="514" on="1"/>
        <pt x="104" y="147" on="1"/>
      </contour>
      <contour>
        <pt x="358" y="188" on="1"/>
        <pt x="635" y="528" on="1"/>
        <pt x="510" y="879" on="1"/>
        <pt x="573" y="907" on="1"/>
        <pt x="754" y="541" on="1"/>
        <pt x="750" y="514" on="1"/>
        <pt x="416" y="147" on="1"/>
      </contour>
    </TTGlyph>
    <TTGlyph name="guilsinglleft" xMin="127" yMin="147" xMax="522" yMax="907">
      <contour>
        <pt x="522" y="866" on="1"/>
        <pt x="246" y="526" on="1"/>
        <pt x="371" y="176" on="1"/>
        <pt x="307" y="147" on="1"/>
        <pt x="127" y="514" on="1"/>
        <pt x="131" y="541" on="1"/>
        <pt x="465" y="907" on="1"/>
      </contour>
    </TTGlyph>
    <TTGlyph name="guilsinglright" xMin="49" yMin="147" xMax="444" yMax="907">
      <contour>
        <pt x="49" y="188" on="1"/>
        <pt x="326" y="528" on="1"/>
        <pt x="201" y="879" on="1"/>
        <pt x="264" y="907" on="1"/>
        <pt x="444" y="541" on="1"/>
        <pt x="440" y="514" on="1"/>
        <pt x="106" y="147" on="1"/>
      </contour>
    </TTGlyph>
    <TTGlyph name="h" xMin="74" yMin="0" xMax="780" yMax="1556">
      <contour>
        <pt x="686" y="899" on="1"/>
        <pt x="686" y="1012" on="0"/>
        <pt x="586" y="1012" on="1"/>
        <pt x="481" y="1012" on="0"/>
        <pt x="339" y="810" on="0"/>
        <pt x="295" y="596" on="1"/>
        <pt x="168" y="0" on="1"/>
        <pt x="74" y="0" on="1"/>
        <pt x="403" y="1556" on="1"/>
        <pt x="498" y="1556" on="1"/>
        <pt x="399" y="1102" on="1"/>
        <pt x="358" y="934" on="1"/>
        <pt x="362" y="934" on="1"/>
        <pt x="455" y="1106" on="0"/>
        <pt x="604" y="1106" on="1"/>
        <pt x="688" y="1106" on="0"/>
        <pt x="780" y="1008" on="0"/>
        <pt x="780" y="918" on="1"/>
        <pt x="780" y="864" on="0"/>
        <pt x="766" y="797" on="1"/>
        <pt x="598" y="0" on="1"/>
        <pt x="504" y="0" on="1"/>
        <pt x="676" y="815" on="1"/>
        <pt x="686" y="854" on="0"/>
      </contour>
    </TTGlyph>
    <TTGlyph name="hedageshhb" xMin="6" yMin="0" xMax="856" yMax="1310">
      <contour>
        <pt x="280" y="1290" on="1"/>
        <pt x="488" y="1310" on="0"/>
        <pt x="609" y="1310" on="0"/>
        <pt x="702" y="1298" on="0"/>
        <pt x="783" y="1269" on="0"/>
        <pt x="806" y="1243" on="1"/>
        <pt x="856" y="1189" on="0"/>
        <pt x="856" y="1093" on="1"/>
        <pt x="856" y="1033" on="0"/>
        <pt x="838" y="950" on="1"/>
        <pt x="636" y="0" on="1"/>
        <pt x="540" y="0" on="1"/>
        <pt x="742" y="950" on="1"/>
        <pt x="758" y="1024" on="0"/>
        <pt x="758" y="1120" on="0"/>
        <pt x="733" y="1181" on="0"/>
        <pt x="670" y="1213" on="0"/>
        <pt x="591" y="1224" on="0"/>
        <pt x="500" y="1224" on="0"/>
        <pt x="261" y="1203" on="1"/>
      </contour>
      <contour>
        <pt x="6" y="0" on="1"/>
        <pt x="179" y="813" on="1"/>
        <pt x="274" y="813" on="1"/>
        <pt x="101" y="0" on="1"/>
      </contour>
      <contour>
        <pt x="477" y="745" on="1"/>
        <pt x="528" y="745" on="0"/>
        <pt x="528" y="696" on="1"/>
        <pt x="528" y="684" on="0"/>
        <pt x="525" y="669" on="1"/>
        <pt x="508" y="595" on="0"/>
        <pt x="445" y="595" on="1"/>
        <pt x="396" y="595" on="0"/>
        <pt x="396" y="641" on="1"/>
        <pt x="396" y="653" on="0"/>
        <pt x="400" y="669" on="1"/>
        <pt x="416" y="745" on="0"/>
      </contour>
    </TTGlyph>
    <TTGlyph name="hungarumlaut" xMin="342" yMin="1241" xMax="979" yMax="1569">
      <contour>
        <pt x="342" y="1241" on="1"/>
        <pt x="346" y="1260" on="1"/>
        <pt x="493" y="1438" on="0"/>
        <pt x="565" y="1569" on="1"/>
        <pt x="705" y="1569" on="1"/>
        <pt x="702" y="1552" on="1"/>
        <pt x="659" y="1486" on="0"/>
        <pt x="475" y="1304" on="0"/>
        <pt x="393" y="1241" on="1"/>
      </contour>
      <contour>
        <pt x="616" y="1241" on="1"/>
        <pt x="621" y="1260" on="1"/>
        <pt x="768" y="1438" on="0"/>
        <pt x="840" y="1569" on="1"/>
        <pt x="979" y="1569" on="1"/>
        <pt x="977" y="1552" on="1"/>
        <pt x="933" y="1488" on="0"/>
        <pt x="749" y="1304" on="0"/>
        <pt x="668" y="1241" on="1"/>
      </contour>
    </TTGlyph>
    <TTGlyph name="hyphen" xMin="94" yMin="502" xMax="485" yMax="604">
      <contour>
        <pt x="117" y="604" on="1"/>
        <pt x="485" y="604" on="1"/>
        <pt x="463" y="502" on="1"/>
        <pt x="94" y="502" on="1"/>
      </contour>
    </TTGlyph>
    <TTGlyph name="i" xMin="68" yMin="0" xMax="475" yMax="1481">
      <contour>
        <pt x="346" y="1356" on="1"/>
        <pt x="346" y="1408" on="0"/>
        <pt x="393" y="1481" on="0"/>
        <pt x="428" y="1481" on="1"/>
        <pt x="475" y="1481" on="0"/>
        <pt x="475" y="1366" on="0"/>
        <pt x="431" y="1292" on="0"/>
        <pt x="395" y="1292" on="1"/>
        <pt x="346" y="1292" on="0"/>
      </contour>
      <contour>
        <pt x="68" y="0" on="1"/>
        <pt x="299" y="1085" on="1"/>
        <pt x="393" y="1085" on="1"/>
        <pt x="162" y="0" on="1"/>
      </contour>
    </TTGlyph>
    <TTGlyph name="iacute" xMin="68" yMin="0" xMax="660" yMax="1569">
      <contour>
        <pt x="298" y="1241" on="1"/>
        <pt x="298" y="1257" on="1"/>
        <pt x="451" y="1441" on="0"/>
        <pt x="521" y="1569" on="1"/>
        <pt x="660" y="1569" on="1"/>
        <pt x="660" y="1552" on="1"/>
        <pt x="617" y="1488" on="0"/>
        <pt x="426" y="1299" on="0"/>
        <pt x="349" y="1241" on="1"/>
      </contour>
      <contour>
        <pt x="299" y="1085" on="1"/>
        <pt x="393" y="1085" on="1"/>
        <pt x="162" y="0" on="1"/>
        <pt x="68" y="0" on="1"/>
      </contour>
    </TTGlyph>
    <TTGlyph name="icircumflex" xMin="68" yMin="0" xMax="566" yMax="1569">
      <contour>
        <pt x="562" y="1241" on="1"/>
        <pt x="515" y="1241" on="1"/>
        <pt x="449" y="1341" on="0"/>
        <pt x="390" y="1444" on="1"/>
        <pt x="255" y="1309" on="0"/>
        <pt x="171" y="1241" on="1"/>
        <pt x="126" y="1241" on="1"/>
        <pt x="130" y="1260" on="1"/>
        <pt x="287" y="1438" on="0"/>
        <pt x="369" y="1569" on="1"/>
        <pt x="455" y="1569" on="1"/>
        <pt x="465" y="1522" on="0"/>
        <pt x="502" y="1418" on="1"/>
        <pt x="543" y="1310" on="0"/>
        <pt x="566" y="1260" on="1"/>
      </contour>
      <contour>
        <pt x="299" y="1085" on="1"/>
        <pt x="393" y="1085" on="1"/>
        <pt x="162" y="0" on="1"/>
        <pt x="68" y="0" on="1"/>
      </contour>
    </TTGlyph>
    <TTGlyph name="idieresis" xMin="68" yMin="0" xMax="583" yMax="1475">
      <contour>
        <pt x="182" y="1362" on="1"/>
        <pt x="182" y="1411" on="0"/>
        <pt x="228" y="1475" on="0"/>
        <pt x="264" y="1475" on="1"/>
        <pt x="311" y="1475" on="0"/>
        <pt x="311" y="1363" on="0"/>
        <pt x="268" y="1298" on="0"/>
        <pt x="231" y="1298" on="1"/>
        <pt x="182" y="1298" on="0"/>
      </contour>
      <contour>
        <pt x="454" y="1362" on="1"/>
        <pt x="454" y="1411" on="0"/>
        <pt x="500" y="1475" on="0"/>
        <pt x="536" y="1475" on="1"/>
        <pt x="583" y="1475" on="0"/>
        <pt x="583" y="1363" on="0"/>
        <pt x="540" y="1298" on="0"/>
        <pt x="503" y="1298" on="1"/>
        <pt x="454" y="1298" on="0"/>
      </contour>
      <contour>
        <pt x="299" y="1085" on="1"/>
        <pt x="393" y="1085" on="1"/>
        <pt x="162" y="0" on="1"/>
        <pt x="68" y="0" on="1"/>
      </contour>
    </TTGlyph>
    <TTGlyph name="igrave" xMin="68" yMin="0" xMax="441" yMax="1569">
      <contour>
        <pt x="441" y="1241" on="1"/>
        <pt x="402" y="1241" on="1"/>
        <pt x="353" y="1299" on="0"/>
        <pt x="245" y="1490" on="0"/>
        <pt x="230" y="1552" on="1"/>
        <pt x="230" y="1569" on="1"/>
        <pt x="357" y="1569" on="1"/>
        <pt x="382" y="1413" on="0"/>
        <pt x="441" y="1260" on="1"/>
      </contour>
      <contour>
        <pt x="68" y="0" on="1"/>
        <pt x="299" y="1085" on="1"/>
        <pt x="393" y="1085" on="1"/>
        <pt x="162" y="0" on="1"/>
      </contour>
    </TTGlyph>
    <TTGlyph name="integral" xMin="137" yMin="-492" xMax="735" yMax="1567">
      <contour>
        <pt x="483" y="-102" on="1"/>
        <pt x="483" y="-310" on="0"/>
        <pt x="384" y="-492" on="0"/>
        <pt x="264" y="-492" on="1"/>
        <pt x="193" y="-492" on="0"/>
        <pt x="137" y="-467" on="1"/>
        <pt x="170" y="-379" on="1"/>
        <pt x="218" y="-399" on="0"/>
        <pt x="266" y="-399" on="1"/>
        <pt x="338" y="-398" on="0"/>
        <pt x="386" y="-272" on="0"/>
        <pt x="389" y="-100" on="1"/>
        <pt x="389" y="1210" on="1"/>
        <pt x="389" y="1400" on="0"/>
        <pt x="490" y="1567" on="0"/>
        <pt x="608" y="1567" on="1"/>
        <pt x="679" y="1567" on="0"/>
        <pt x="735" y="1542" on="1"/>
        <pt x="702" y="1454" on="1"/>
        <pt x="656" y="1475" on="0"/>
        <pt x="606" y="1475" on="1"/>
        <pt x="534" y="1474" on="0"/>
        <pt x="485" y="1348" on="0"/>
        <pt x="483" y="1176" on="1"/>
      </contour>
    </TTGlyph>
    <TTGlyph name="j" xMin="-205" yMin="-492" xMax="475" yMax="1481">
      <contour>
        <pt x="346" y="1356" on="1"/>
        <pt x="346" y="1408" on="0"/>
        <pt x="393" y="1481" on="0"/>
        <pt x="428" y="1481" on="1"/>
        <pt x="475" y="1481" on="0"/>
        <pt x="475" y="1366" on="0"/>
        <pt x="431" y="1292" on="0"/>
        <pt x="395" y="1292" on="1"/>
        <pt x="346" y="1292" on="0"/>
      </contour>
      <contour>
        <pt x="-117" y="-492" on="1"/>
        <pt x="-166" y="-492" on="0"/>
        <pt x="-205" y="-481" on="1"/>
        <pt x="-205" y="-389" on="1"/>
        <pt x="-168" y="-401" on="0"/>
        <pt x="-74" y="-401" on="0"/>
        <pt x="-23" y="-349" on="0"/>
        <pt x="22" y="-221" on="0"/>
        <pt x="47" y="-100" on="1"/>
        <pt x="299" y="1085" on="1"/>
        <pt x="393" y="1085" on="1"/>
        <pt x="139" y="-106" on="1"/>
        <pt x="104" y="-271" on="0"/>
        <pt x="43" y="-424" on="0"/>
        <pt x="-43" y="-492" on="0"/>
      </contour>
    </TTGlyph>
    <TTGlyph name="k" xMin="72" yMin="0" xMax="778" yMax="1556">
      <contour>
        <pt x="324" y="608" on="1"/>
        <pt x="406" y="713" on="1"/>
        <pt x="676" y="1085" on="1"/>
        <pt x="778" y="1085" on="1"/>
        <pt x="471" y="655" on="1"/>
        <pt x="567" y="0" on="1"/>
        <pt x="469" y="0" on="1"/>
        <pt x="385" y="573" on="1"/>
        <pt x="258" y="434" on="1"/>
        <pt x="166" y="0" on="1"/>
        <pt x="72" y="0" on="1"/>
        <pt x="403" y="1556" on="1"/>
        <pt x="498" y="1556" on="1"/>
        <pt x="319" y="739" on="1"/>
        <pt x="312" y="700" on="0"/>
        <pt x="274" y="549" on="1"/>
        <pt x="276" y="549" on="1"/>
      </contour>
    </TTGlyph>
    <TTGlyph name="kafdageshhb" xMin="-89" yMin="-20" xMax="589" yMax="1310">
      <contour>
        <pt x="342" y="1310" on="1"/>
        <pt x="589" y="1310" on="0"/>
        <pt x="589" y="997" on="1"/>
        <pt x="589" y="881" on="0"/>
        <pt x="555" y="721" on="1"/>
        <pt x="515" y="532" on="1"/>
        <pt x="439" y="172" on="0"/>
        <pt x="270" y="46" on="1"/>
        <pt x="181" y="-20" on="0"/>
        <pt x="60" y="-20" on="1"/>
        <pt x="-10" y="-20" on="0"/>
        <pt x="-89" y="7" on="1"/>
        <pt x="-69" y="99" on="1"/>
        <pt x="-19" y="66" on="0"/>
        <pt x="77" y="66" on="1"/>
        <pt x="127" y="66" on="0"/>
        <pt x="216" y="110" on="0"/>
        <pt x="279" y="175" on="0"/>
        <pt x="335" y="272" on="0"/>
        <pt x="369" y="352" on="0"/>
        <pt x="384" y="403" on="1"/>
        <pt x="407" y="477" on="0"/>
        <pt x="418" y="532" on="1"/>
        <pt x="458" y="721" on="1"/>
        <pt x="490" y="873" on="0"/>
        <pt x="490" y="979" on="1"/>
        <pt x="490" y="1220" on="0"/>
        <pt x="322" y="1220" on="1"/>
        <pt x="241" y="1220" on="0"/>
        <pt x="153" y="1170" on="1"/>
        <pt x="174" y="1273" on="1"/>
        <pt x="253" y="1310" on="0"/>
      </contour>
      <contour>
        <pt x="214" y="745" on="1"/>
        <pt x="265" y="745" on="0"/>
        <pt x="265" y="696" on="1"/>
        <pt x="265" y="684" on="0"/>
        <pt x="262" y="669" on="1"/>
        <pt x="245" y="595" on="0"/>
        <pt x="182" y="595" on="1"/>
        <pt x="133" y="595" on="0"/>
        <pt x="133" y="641" on="1"/>
        <pt x="133" y="653" on="0"/>
        <pt x="137" y="669" on="1"/>
        <pt x="153" y="745" on="0"/>
      </contour>
    </TTGlyph>
    <TTGlyph name="l" xMin="72" yMin="0" xMax="498" yMax="1556">
      <contour>
        <pt x="72" y="0" on="1"/>
        <pt x="403" y="1556" on="1"/>
        <pt x="498" y="1556" on="1"/>
        <pt x="166" y="0" on="1"/>
      </contour>
    </TTGlyph>
    <TTGlyph name="lameddageshhb" xMin="89" yMin="0" xMax="714" yMax="1569">
      <contour>
        <pt x="714" y="1296" on="1"/>
        <pt x="690" y="1186" on="1"/>
        <pt x="388" y="507" on="1"/>
        <pt x="189" y="0" on="1"/>
        <pt x="92" y="0" on="1"/>
        <pt x="287" y="496" on="1"/>
        <pt x="606" y="1204" on="1"/>
        <pt x="165" y="1204" on="1"/>
        <pt x="243" y="1569" on="1"/>
        <pt x="338" y="1569" on="1"/>
        <pt x="280" y="1296" on="1"/>
      </contour>
      <contour>
        <pt x="170" y="745" on="1"/>
        <pt x="221" y="745" on="0"/>
        <pt x="221" y="696" on="1"/>
        <pt x="221" y="684" on="0"/>
        <pt x="218" y="669" on="1"/>
        <pt x="201" y="595" on="0"/>
        <pt x="138" y="595" on="1"/>
        <pt x="89" y="595" on="0"/>
        <pt x="89" y="641" on="1"/>
        <pt x="89" y="653" on="0"/>
        <pt x="93" y="669" on="1"/>
        <pt x="109" y="745" on="0"/>
      </contour>
    </TTGlyph>
    <TTGlyph name="less" xMin="76" yMin="307" xMax="709" yMax="1178">
      <contour>
        <pt x="76" y="711" on="1"/>
        <pt x="76" y="778" on="1"/>
        <pt x="709" y="1178" on="1"/>
        <pt x="709" y="1077" on="1"/>
        <pt x="168" y="743" on="1"/>
        <pt x="709" y="410" on="1"/>
        <pt x="709" y="307" on="1"/>
      </contour>
    </TTGlyph>
    <TTGlyph name="logicalnot" xMin="104" yMin="315" xMax="737" yMax="776">
      <contour>
        <pt x="737" y="315" on="1"/>
        <pt x="664" y="315" on="1"/>
        <pt x="664" y="694" on="1"/>
        <pt x="104" y="694" on="1"/>
        <pt x="104" y="776" on="1"/>
        <pt x="737" y="776" on="1"/>
      </contour>
    </TTGlyph>
    <TTGlyph name="m" xMin="72" yMin="0" xMax="1165" yMax="1106">
      <contour>
        <pt x="1073" y="897" on="1"/>
        <pt x="1073" y="1012" on="0"/>
        <pt x="979" y="1012" on="1"/>
        <pt x="898" y="1012" on="0"/>
        <pt x="769" y="870" on="0"/>
        <pt x="745" y="752" on="1"/>
        <pt x="588" y="0" on="1"/>
        <pt x="494" y="0" on="1"/>
        <pt x="662" y="799" on="1"/>
        <pt x="674" y="858" on="0"/>
        <pt x="674" y="897" on="1"/>
        <pt x="674" y="1012" on="0"/>
        <pt x="474" y="1012" on="0"/>
        <pt x="340" y="820" on="0"/>
        <pt x="293" y="596" on="1"/>
        <pt x="166" y="0" on="1"/>
        <pt x="72" y="0" on="1"/>
        <pt x="301" y="1085" on="1"/>
        <pt x="381" y="1085" on="1"/>
        <pt x="356" y="934" on="1"/>
        <pt x="360" y="934" on="1"/>
        <pt x="451" y="1106" on="0"/>
        <pt x="747" y="1106" on="0"/>
        <pt x="766" y="956" on="1"/>
        <pt x="818" y="1033" on="0"/>
        <pt x="931" y="1106" on="0"/>
        <pt x="1082" y="1106" on="0"/>
        <pt x="1165" y="1005" on="0"/>
        <pt x="1165" y="907" on="1"/>
        <pt x="1165" y="853" on="0"/>
        <pt x="1151" y="786" on="1"/>
        <pt x="985" y="0" on="1"/>
        <pt x="891" y="0" on="1"/>
        <pt x="1063" y="813" on="1"/>
        <pt x="1073" y="857" on="0"/>
      </contour>
    </TTGlyph>
    <TTGlyph name="memdageshhb" xMin="-80" yMin="0" xMax="798" yMax="1310">
      <contour>
        <pt x="343" y="1155" on="1"/>
        <pt x="349" y="1155" on="1"/>
        <pt x="365" y="1179" on="0"/>
        <pt x="422" y="1236" on="0"/>
        <pt x="481" y="1276" on="0"/>
        <pt x="575" y="1310" on="0"/>
        <pt x="683" y="1310" on="0"/>
        <pt x="758" y="1269" on="0"/>
        <pt x="776" y="1234" on="1"/>
        <pt x="798" y="1193" on="0"/>
        <pt x="798" y="1072" on="0"/>
        <pt x="784" y="966" on="0"/>
        <pt x="766" y="883" on="1"/>
        <pt x="579" y="0" on="1"/>
        <pt x="262" y="0" on="1"/>
        <pt x="280" y="84" on="1"/>
        <pt x="502" y="84" on="1"/>
        <pt x="671" y="883" on="1"/>
        <pt x="680" y="927" on="0"/>
        <pt x="692" y="983" on="0"/>
        <pt x="704" y="1055" on="0"/>
        <pt x="705" y="1101" on="0"/>
        <pt x="703" y="1153" on="0"/>
        <pt x="689" y="1184" on="0"/>
        <pt x="678" y="1198" on="1"/>
        <pt x="658" y="1224" on="0"/>
        <pt x="556" y="1224" on="0"/>
        <pt x="461" y="1179" on="0"/>
        <pt x="428" y="1146" on="1"/>
        <pt x="362" y="1080" on="0"/>
        <pt x="334" y="1028" on="1"/>
        <pt x="322" y="1005" on="1"/>
        <pt x="16" y="0" on="1"/>
        <pt x="-80" y="0" on="1"/>
        <pt x="226" y="1005" on="1"/>
        <pt x="246" y="1071" on="0"/>
        <pt x="246" y="1175" on="0"/>
        <pt x="235" y="1245" on="1"/>
        <pt x="228" y="1290" on="1"/>
        <pt x="329" y="1290" on="1"/>
        <pt x="343" y="1226" on="0"/>
      </contour>
      <contour>
        <pt x="449" y="745" on="1"/>
        <pt x="500" y="745" on="0"/>
        <pt x="500" y="696" on="1"/>
        <pt x="500" y="684" on="0"/>
        <pt x="497" y="669" on="1"/>
        <pt x="480" y="595" on="0"/>
        <pt x="417" y="595" on="1"/>
        <pt x="368" y="595" on="0"/>
        <pt x="368" y="641" on="1"/>
        <pt x="368" y="653" on="0"/>
        <pt x="372" y="669" on="1"/>
        <pt x="388" y="745" on="0"/>
      </contour>
    </TTGlyph>
    <TTGlyph name="n" xMin="72" yMin="0" xMax="778" yMax="1106">
      <contour>
        <pt x="684" y="899" on="1"/>
        <pt x="684" y="1012" on="0"/>
        <pt x="584" y="1012" on="1"/>
        <pt x="479" y="1012" on="0"/>
        <pt x="337" y="810" on="0"/>
        <pt x="293" y="596" on="1"/>
        <pt x="166" y="0" on="1"/>
        <pt x="72" y="0" on="1"/>
        <pt x="301" y="1085" on="1"/>
        <pt x="381" y="1085" on="1"/>
        <pt x="356" y="934" on="1"/>
        <pt x="360" y="934" on="1"/>
        <pt x="453" y="1106" on="0"/>
        <pt x="602" y="1106" on="1"/>
        <pt x="686" y="1106" on="0"/>
        <pt x="778" y="1008" on="0"/>
        <pt x="778" y="918" on="1"/>
        <pt x="778" y="864" on="0"/>
        <pt x="764" y="797" on="1"/>
        <pt x="596" y="0" on="1"/>
        <pt x="502" y="0" on="1"/>
        <pt x="674" y="815" on="1"/>
        <pt x="684" y="854" on="0"/>
      </contour>
    </TTGlyph>
    <TTGlyph name="nine" xMin="49" yMin="-20" xMax="784" yMax="1483">
      <contour>
        <pt x="381" y="559" on="1"/>
        <pt x="286" y="559" on="0"/>
        <pt x="170" y="729" on="0"/>
        <pt x="170" y="866" on="1"/>
        <pt x="170" y="1032" on="0"/>
        <pt x="278" y="1332" on="0"/>
        <pt x="450" y="1483" on="0"/>
        <pt x="670" y="1483" on="0"/>
        <pt x="784" y="1319" on="0"/>
        <pt x="784" y="1163" on="1"/>
        <pt x="784" y="851" on="0"/>
        <pt x="705" y="565" on="1"/>
        <pt x="628" y="279" on="0"/>
        <pt x="368" y="-20" on="0"/>
        <pt x="203" y="-20" on="1"/>
        <pt x="103" y="-20" on="0"/>
        <pt x="49" y="2" on="1"/>
        <pt x="49" y="96" on="1"/>
        <pt x="97" y="74" on="0"/>
        <pt x="203" y="74" on="1"/>
        <pt x="356" y="74" on="0"/>
        <pt x="583" y="404" on="0"/>
        <pt x="651" y="723" on="1"/>
        <pt x="645" y="723" on="1"/>
        <pt x="599" y="648" on="0"/>
        <pt x="457" y="559" on="0"/>
      </contour>
      <contour>
        <pt x="692" y="1265" on="0"/>
        <pt x="618" y="1391" on="0"/>
        <pt x="470" y="1391" on="0"/>
        <pt x="343" y="1255" on="0"/>
        <pt x="262" y="996" on="0"/>
        <pt x="262" y="769" on="0"/>
        <pt x="336" y="651" on="0"/>
        <pt x="403" y="651" on="1"/>
        <pt x="487" y="651" on="0"/>
        <pt x="555" y="713" on="1"/>
        <pt x="692" y="837" on="0"/>
        <pt x="692" y="1151" on="1"/>
      </contour>
    </TTGlyph>
    <TTGlyph name="notequal" xMin="123" yMin="178" xMax="784" yMax="1262">
      <contour>
        <pt x="784" y="977" on="1"/>
        <pt x="784" y="895" on="1"/>
        <pt x="578" y="895" on="1"/>
        <pt x="414" y="547" on="1"/>
        <pt x="784" y="547" on="1"/>
        <pt x="784" y="465" on="1"/>
        <pt x="375" y="465" on="1"/>
        <pt x="242" y="178" on="1"/>
        <pt x="176" y="213" on="1"/>
        <pt x="293" y="465" on="1"/>
        <pt x="123" y="465" on="1"/>
        <pt x="123" y="547" on="1"/>
        <pt x="332" y="547" on="1"/>
        <pt x="494" y="895" on="1"/>
        <pt x="123" y="895" on="1"/>
        <pt x="123" y="977" on="1"/>
        <pt x="532" y="977" on="1"/>
        <pt x="666" y="1262" on="1"/>
        <pt x="735" y="1227" on="1"/>
        <pt x="616" y="977" on="1"/>
      </contour>
    </TTGlyph>
    <TTGlyph name="ntilde" xMin="72" yMin="0" xMax="875" yMax="1483">
      <contour>
        <pt x="717" y="1251" on="1"/>
        <pt x="686" y="1251" on="0"/>
        <pt x="619" y="1292" on="0"/>
        <pt x="595" y="1316" on="1"/>
        <pt x="531" y="1382" on="0"/>
        <pt x="454" y="1382" on="0"/>
        <pt x="409" y="1317" on="0"/>
        <pt x="390" y="1249" on="1"/>
        <pt x="320" y="1249" on="1"/>
        <pt x="379" y="1479" on="0"/>
        <pt x="500" y="1479" on="1"/>
        <pt x="532" y="1479" on="0"/>
        <pt x="598" y="1438" on="0"/>
        <pt x="620" y="1414" on="1"/>
        <pt x="679" y="1348" on="0"/>
        <pt x="748" y="1348" on="0"/>
        <pt x="764" y="1370" on="1"/>
        <pt x="783" y="1393" on="0"/>
        <pt x="805" y="1483" on="1"/>
        <pt x="875" y="1483" on="1"/>
        <pt x="846" y="1350" on="0"/>
        <pt x="773" y="1251" on="0"/>
      </contour>
      <contour>
        <pt x="684" y="899" on="1"/>
        <pt x="684" y="1012" on="0"/>
        <pt x="584" y="1012" on="1"/>
        <pt x="479" y="1012" on="0"/>
        <pt x="337" y="810" on="0"/>
        <pt x="293" y="596" on="1"/>
        <pt x="166" y="0" on="1"/>
        <pt x="72" y="0" on="1"/>
        <pt x="301" y="1085" on="1"/>
        <pt x="381" y="1085" on="1"/>
        <pt x="356" y="934" on="1"/>
        <pt x="360" y="934" on="1"/>
        <pt x="453" y="1106" on="0"/>
        <pt x="602" y="1106" on="1"/>
        <pt x="686" y="1106" on="0"/>
        <pt x="778" y="1008" on="0"/>
        <pt x="778" y="918" on="1"/>
        <pt x="778" y="864" on="0"/>
        <pt x="764" y="797" on="1"/>
        <pt x="596" y="0" on="1"/>
        <pt x="502" y="0" on="1"/>
        <pt x="674" y="815" on="1"/>
        <pt x="684" y="854" on="0"/>
      </contour>
    </TTGlyph>
    <TTGlyph name="numbersign" xMin="51" yMin="0" xMax="889" yMax="1462">
      <contour>
        <pt x="72" y="557" on="1"/>
        <pt x="223" y="557" on="1"/>
        <pt x="350" y="956" on="1"/>
        <pt x="199" y="956" on="1"/>
        <pt x="217" y="1042" on="1"/>
        <pt x="379" y="1042" on="1"/>
        <pt x="508" y="1462" on="1"/>
        <pt x="590" y="1462" on="1"/>
        <pt x="459" y="1042" on="1"/>
        <pt x="662" y="1042" on="1"/>
        <pt x="795" y="1462" on="1"/>
        <pt x="870" y="1462" on="1"/>
        <pt x="741" y="1042" on="1"/>
        <pt x="889" y="1042" on="1"/>
        <pt x="870" y="956" on="1"/>
        <pt x="713" y="956" on="1"/>
        <pt x="586" y="557" on="1"/>
        <pt x="743" y="557" on="1"/>
        <pt x="725" y="467" on="1"/>
        <pt x="559" y="467" on="1"/>
        <pt x="412" y="0" on="1"/>
        <pt x="330" y="0" on="1"/>
        <pt x="479" y="467" on="1"/>
        <pt x="276" y="467" on="1"/>
        <pt x="131" y="0" on="1"/>
        <pt x="51" y="0" on="1"/>
        <pt x="197" y="467" on="1"/>
        <pt x="53" y="467" on="1"/>
      </contour>
      <contour>
        <pt x="506" y="557" on="1"/>
        <pt x="635" y="956" on="1"/>
        <pt x="430" y="956" on="1"/>
        <pt x="305" y="557" on="1"/>
      </contour>
    </TTGlyph>
    <TTGlyph name="nundageshhb" xMin="-91" yMin="0" xMax="528" yMax="1310">
      <contour>
        <pt x="340" y="1310" on="1"/>
        <pt x="528" y="1310" on="0"/>
        <pt x="528" y="1127" on="1"/>
        <pt x="528" y="1079" on="0"/>
        <pt x="515" y="1019" on="1"/>
        <pt x="369" y="329" on="1"/>
        <pt x="354" y="261" on="0"/>
        <pt x="300" y="97" on="0"/>
        <pt x="280" y="48" on="1"/>
        <pt x="260" y="0" on="1"/>
        <pt x="-91" y="0" on="1"/>
        <pt x="-73" y="84" on="1"/>
        <pt x="195" y="84" on="1"/>
        <pt x="249" y="211" on="0"/>
        <pt x="274" y="329" on="1"/>
        <pt x="420" y="1019" on="1"/>
        <pt x="432" y="1081" on="0"/>
        <pt x="432" y="1168" on="0"/>
        <pt x="375" y="1224" on="0"/>
        <pt x="314" y="1224" on="1"/>
        <pt x="281" y="1224" on="0"/>
        <pt x="213" y="1207" on="1"/>
        <pt x="232" y="1295" on="1"/>
        <pt x="289" y="1310" on="0"/>
      </contour>
      <contour>
        <pt x="195" y="745" on="1"/>
        <pt x="246" y="745" on="0"/>
        <pt x="246" y="696" on="1"/>
        <pt x="246" y="684" on="0"/>
        <pt x="243" y="669" on="1"/>
        <pt x="226" y="595" on="0"/>
        <pt x="163" y="595" on="1"/>
        <pt x="114" y="595" on="0"/>
        <pt x="114" y="641" on="1"/>
        <pt x="114" y="653" on="0"/>
        <pt x="118" y="669" on="1"/>
        <pt x="134" y="745" on="0"/>
      </contour>
    </TTGlyph>
    <TTGlyph name="o" xMin="119" yMin="-20" xMax="784" yMax="1106">
      <contour>
        <pt x="340" y="-20" on="1"/>
        <pt x="233" y="-20" on="0"/>
        <pt x="119" y="140" on="0"/>
        <pt x="119" y="429" on="0"/>
        <pt x="191" y="757" on="0"/>
        <pt x="249" y="868" on="1"/>
        <pt x="370" y="1106" on="0"/>
        <pt x="559" y="1106" on="1"/>
        <pt x="665" y="1106" on="0"/>
        <pt x="784" y="941" on="0"/>
        <pt x="784" y="650" on="0"/>
        <pt x="712" y="336" on="0"/>
        <pt x="652" y="218" on="1"/>
        <pt x="528" y="-20" on="0"/>
      </contour>
      <contour>
        <pt x="217" y="268" on="1"/>
        <pt x="217" y="66" on="0"/>
        <pt x="352" y="66" on="1"/>
        <pt x="441" y="66" on="0"/>
        <pt x="592" y="270" on="0"/>
        <pt x="686" y="638" on="0"/>
        <pt x="686" y="811" on="1"/>
        <pt x="686" y="1016" on="0"/>
        <pt x="547" y="1016" on="1"/>
        <pt x="463" y="1016" on="0"/>
        <pt x="316" y="821" on="0"/>
        <pt x="217" y="446" on="0"/>
      </contour>
    </TTGlyph>
    <TTGlyph name="oacute" xMin="119" yMin="-20" xMax="851" yMax="1569">
      <contour>
        <pt x="489" y="1241" on="1"/>
        <pt x="489" y="1257" on="1"/>
        <pt x="642" y="1441" on="0"/>
        <pt x="712" y="1569" on="1"/>
        <pt x="851" y="1569" on="1"/>
        <pt x="851" y="1552" on="1"/>
        <pt x="808" y="1488" on="0"/>
        <pt x="617" y="1299" on="0"/>
        <pt x="540" y="1241" on="1"/>
      </contour>
      <contour>
        <pt x="340" y="-20" on="1"/>
        <pt x="233" y="-20" on="0"/>
        <pt x="119" y="140" on="0"/>
        <pt x="119" y="429" on="0"/>
        <pt x="191" y="757" on="0"/>
        <pt x="249" y="868" on="1"/>
        <pt x="370" y="1106" on="0"/>
        <pt x="559" y="1106" on="1"/>
        <pt x="665" y="1106" on="0"/>
        <pt x="784" y="941" on="0"/>
        <pt x="784" y="650" on="0"/>
        <pt x="712" y="336" on="0"/>
        <pt x="652" y="218" on="1"/>
        <pt x="528" y="-20" on="0"/>
      </contour>
      <contour>
        <pt x="217" y="268" on="1"/>
        <pt x="217" y="66" on="0"/>
        <pt x="352" y="66" on="1"/>
        <pt x="441" y="66" on="0"/>
        <pt x="592" y="270" on="0"/>
        <pt x="686" y="638" on="0"/>
        <pt x="686" y="811" on="1"/>
        <pt x="686" y="1016" on="0"/>
        <pt x="547" y="1016" on="1"/>
        <pt x="463" y="1016" on="0"/>
        <pt x="316" y="821" on="0"/>
        <pt x="217" y="446" on="0"/>
      </contour>
    </TTGlyph>
    <TTGlyph name="ocircumflex" xMin="119" yMin="-20" xMax="796" yMax="1569">
      <contour>
        <pt x="792" y="1241" on="1"/>
        <pt x="745" y="1241" on="1"/>
        <pt x="679" y="1341" on="0"/>
        <pt x="620" y="1444" on="1"/>
        <pt x="485" y="1309" on="0"/>
        <pt x="401" y="1241" on="1"/>
        <pt x="356" y="1241" on="1"/>
        <pt x="360" y="1260" on="1"/>
        <pt x="517" y="1438" on="0"/>
        <pt x="599" y="1569" on="1"/>
        <pt x="685" y="1569" on="1"/>
        <pt x="695" y="1522" on="0"/>
        <pt x="732" y="1418" on="1"/>
        <pt x="773" y="1310" on="0"/>
        <pt x="796" y="1260" on="1"/>
      </contour>
      <contour>
        <pt x="340" y="-20" on="1"/>
        <pt x="233" y="-20" on="0"/>
        <pt x="119" y="140" on="0"/>
        <pt x="119" y="429" on="0"/>
        <pt x="191" y="757" on="0"/>
        <pt x="249" y="868" on="1"/>
        <pt x="370" y="1106" on="0"/>
        <pt x="559" y="1106" on="1"/>
        <pt x="665" y="1106" on="0"/>
        <pt x="784" y="941" on="0"/>
        <pt x="784" y="650" on="0"/>
        <pt x="712" y="336" on="0"/>
        <pt x="652" y="218" on="1"/>
        <pt x="528" y="-20" on="0"/>
      </contour>
      <contour>
        <pt x="217" y="268" on="1"/>
        <pt x="217" y="66" on="0"/>
        <pt x="352" y="66" on="1"/>
        <pt x="441" y="66" on="0"/>
        <pt x="592" y="270" on="0"/>
        <pt x="686" y="638" on="0"/>
        <pt x="686" y="811" on="1"/>
        <pt x="686" y="1016" on="0"/>
        <pt x="547" y="1016" on="1"/>
        <pt x="463" y="1016" on="0"/>
        <pt x="316" y="821" on="0"/>
        <pt x="217" y="446" on="0"/>
      </contour>
    </TTGlyph>
    <TTGlyph name="odieresis" xMin="119" yMin="-20" xMax="810" yMax="1475">
      <contour>
        <pt x="409" y="1362" on="1"/>
        <pt x="409" y="1411" on="0"/>
        <pt x="455" y="1475" on="0"/>
        <pt x="491" y="1475" on="1"/>
        <pt x="538" y="1475" on="0"/>
        <pt x="538" y="1363" on="0"/>
        <pt x="495" y="1298" on="0"/>
        <pt x="458" y="1298" on="1"/>
        <pt x="409" y="1298" on="0"/>
      </contour>
      <contour>
        <pt x="681" y="1362" on="1"/>
        <pt x="681" y="1411" on="0"/>
        <pt x="727" y="1475" on="0"/>
        <pt x="763" y="1475" on="1"/>
        <pt x="810" y="1475" on="0"/>
        <pt x="810" y="1363" on="0"/>
        <pt x="767" y="1298" on="0"/>
        <pt x="730" y="1298" on="1"/>
        <pt x="681" y="1298" on="0"/>
      </contour>
      <contour>
        <pt x="340" y="-20" on="1"/>
        <pt x="233" y="-20" on="0"/>
        <pt x="119" y="140" on="0"/>
        <pt x="119" y="429" on="0"/>
        <pt x="191" y="757" on="0"/>
        <pt x="249" y="868" on="1"/>
        <pt x="370" y="1106" on="0"/>
        <pt x="559" y="1106" on="1"/>
        <pt x="665" y="1106" on="0"/>
        <pt x="784" y="941" on="0"/>
        <pt x="784" y="650" on="0"/>
        <pt x="712" y="336" on="0"/>
        <pt x="652" y="218" on="1"/>
        <pt x="528" y="-20" on="0"/>
      </contour>
      <contour>
        <pt x="217" y="268" on="1"/>
        <pt x="217" y="66" on="0"/>
        <pt x="352" y="66" on="1"/>
        <pt x="441" y="66" on="0"/>
        <pt x="592" y="270" on="0"/>
        <pt x="686" y="638" on="0"/>
        <pt x="686" y="811" on="1"/>
        <pt x="686" y="1016" on="0"/>
        <pt x="547" y="1016" on="1"/>
        <pt x="463" y="1016" on="0"/>
        <pt x="316" y="821" on="0"/>
        <pt x="217" y="446" on="0"/>
      </contour>
    </TTGlyph>
    <TTGlyph name="oe" xMin="119" yMin="-20" xMax="1251" yMax="1106">
      <contour>
        <pt x="885" y="-20" on="1"/>
        <pt x="672" y="-20" on="0"/>
        <pt x="645" y="231" on="1"/>
        <pt x="532" y="-20" on="0"/>
        <pt x="340" y="-20" on="1"/>
        <pt x="233" y="-20" on="0"/>
        <pt x="119" y="140" on="0"/>
        <pt x="119" y="429" on="0"/>
        <pt x="191" y="757" on="0"/>
        <pt x="249" y="868" on="1"/>
        <pt x="370" y="1106" on="0"/>
        <pt x="559" y="1106" on="1"/>
        <pt x="741" y="1106" on="0"/>
        <pt x="756" y="842" on="1"/>
        <pt x="816" y="968" on="0"/>
        <pt x="977" y="1106" on="0"/>
        <pt x="1067" y="1106" on="1"/>
        <pt x="1251" y="1106" on="0"/>
        <pt x="1251" y="900" on="1"/>
        <pt x="1251" y="715" on="0"/>
        <pt x="991" y="506" on="0"/>
        <pt x="774" y="506" on="1"/>
        <pt x="766" y="506" on="0"/>
        <pt x="758" y="506" on="1"/>
        <pt x="745" y="506" on="1"/>
        <pt x="725" y="400" on="0"/>
        <pt x="725" y="307" on="1"/>
        <pt x="725" y="66" on="0"/>
        <pt x="909" y="66" on="1"/>
        <pt x="1001" y="66" on="0"/>
        <pt x="1098" y="121" on="1"/>
        <pt x="1098" y="35" on="1"/>
        <pt x="1003" y="-20" on="0"/>
      </contour>
      <contour>
        <pt x="1053" y="1018" on="1"/>
        <pt x="963" y="1018" on="0"/>
        <pt x="804" y="782" on="0"/>
        <pt x="758" y="588" on="1"/>
        <pt x="1157" y="588" on="0"/>
        <pt x="1157" y="905" on="1"/>
        <pt x="1157" y="961" on="0"/>
        <pt x="1109" y="1018" on="0"/>
      </contour>
      <contour>
        <pt x="217" y="268" on="1"/>
        <pt x="217" y="66" on="0"/>
        <pt x="352" y="66" on="1"/>
        <pt x="441" y="66" on="0"/>
        <pt x="592" y="270" on="0"/>
        <pt x="686" y="638" on="0"/>
        <pt x="686" y="811" on="1"/>
        <pt x="686" y="1016" on="0"/>
        <pt x="547" y="1016" on="1"/>
        <pt x="463" y="1016" on="0"/>
        <pt x="316" y="821" on="0"/>
        <pt x="217" y="446" on="0"/>
      </contour>
    </TTGlyph>
    <TTGlyph name="ogonek" xMin="14" yMin="-446" xMax="285" yMax="0">
      <contour>
        <pt x="113" y="-289" on="1"/>
        <pt x="113" y="-369" on="0"/>
        <pt x="184" y="-369" on="1"/>
        <pt x="213" y="-369" on="0"/>
        <pt x="252" y="-358" on="1"/>
        <pt x="236" y="-430" on="1"/>
        <pt x="200" y="-446" on="0"/>
        <pt x="81" y="-446" on="0"/>
        <pt x="14" y="-369" on="0"/>
        <pt x="14" y="-228" on="0"/>
        <pt x="100" y="-83" on="0"/>
        <pt x="211" y="0" on="1"/>
        <pt x="285" y="0" on="1"/>
        <pt x="113" y="-151" on="0"/>
      </contour>
    </TTGlyph>
    <TTGlyph name="ograve" xMin="119" yMin="-20" xMax="784" yMax="1569">
      <contour>
        <pt x="631" y="1241" on="1"/>
        <pt x="592" y="1241" on="1"/>
        <pt x="543" y="1299" on="0"/>
        <pt x="435" y="1490" on="0"/>
        <pt x="420" y="1552" on="1"/>
        <pt x="420" y="1569" on="1"/>
        <pt x="547" y="1569" on="1"/>
        <pt x="572" y="1413" on="0"/>
        <pt x="631" y="1260" on="1"/>
      </contour>
      <contour>
        <pt x="340" y="-20" on="1"/>
        <pt x="233" y="-20" on="0"/>
        <pt x="119" y="140" on="0"/>
        <pt x="119" y="429" on="0"/>
        <pt x="191" y="757" on="0"/>
        <pt x="249" y="868" on="1"/>
        <pt x="370" y="1106" on="0"/>
        <pt x="559" y="1106" on="1"/>
        <pt x="665" y="1106" on="0"/>
        <pt x="784" y="941" on="0"/>
        <pt x="784" y="650" on="0"/>
        <pt x="712" y="336" on="0"/>
        <pt x="652" y="218" on="1"/>
        <pt x="528" y="-20" on="0"/>
      </contour>
      <contour>
        <pt x="217" y="268" on="1"/>
        <pt x="217" y="66" on="0"/>
        <pt x="352" y="66" on="1"/>
        <pt x="441" y="66" on="0"/>
        <pt x="592" y="270" on="0"/>
        <pt x="686" y="638" on="0"/>
        <pt x="686" y="811" on="1"/>
        <pt x="686" y="1016" on="0"/>
        <pt x="547" y="1016" on="1"/>
        <pt x="463" y="1016" on="0"/>
        <pt x="316" y="821" on="0"/>
        <pt x="217" y="446" on="0"/>
      </contour>
    </TTGlyph>
    <TTGlyph name="one" xMin="287" yMin="0" xMax="692" yMax="1462">
      <contour>
        <pt x="287" y="0" on="1"/>
        <pt x="512" y="1063" on="1"/>
        <pt x="545" y="1211" on="1"/>
        <pt x="578" y="1346" on="1"/>
        <pt x="523" y="1289" on="1"/>
        <pt x="492" y="1259" on="0"/>
        <pt x="332" y="1126" on="1"/>
        <pt x="287" y="1194" on="1"/>
        <pt x="600" y="1462" on="1"/>
        <pt x="692" y="1462" on="1"/>
        <pt x="383" y="0" on="1"/>
      </contour>
    </TTGlyph>
    <TTGlyph name="ordfeminine" xMin="143" yMin="805" xMax="592" yMax="1479">
      <contour>
        <pt x="385" y="849" on="0"/>
        <pt x="310" y="805" on="0"/>
        <pt x="212" y="805" on="0"/>
        <pt x="143" y="882" on="0"/>
        <pt x="143" y="944" on="1"/>
        <pt x="143" y="1050" on="0"/>
        <pt x="271" y="1178" on="0"/>
        <pt x="389" y="1190" on="1"/>
        <pt x="487" y="1200" on="1"/>
        <pt x="502" y="1270" on="1"/>
        <pt x="510" y="1304" on="0"/>
        <pt x="510" y="1377" on="0"/>
        <pt x="473" y="1409" on="0"/>
        <pt x="389" y="1409" on="0"/>
        <pt x="333" y="1381" on="1"/>
        <pt x="309" y="1370" on="1"/>
        <pt x="289" y="1436" on="1"/>
        <pt x="373" y="1479" on="0"/>
        <pt x="459" y="1479" on="1"/>
        <pt x="592" y="1479" on="0"/>
        <pt x="592" y="1360" on="1"/>
        <pt x="592" y="1324" on="0"/>
        <pt x="580" y="1272" on="1"/>
        <pt x="483" y="817" on="1"/>
        <pt x="426" y="817" on="1"/>
        <pt x="428" y="901" on="1"/>
        <pt x="422" y="901" on="1"/>
      </contour>
      <contour>
        <pt x="225" y="950" on="1"/>
        <pt x="225" y="874" on="0"/>
        <pt x="293" y="874" on="1"/>
        <pt x="348" y="874" on="0"/>
        <pt x="440" y="981" on="0"/>
        <pt x="459" y="1069" on="1"/>
        <pt x="473" y="1135" on="1"/>
        <pt x="414" y="1128" on="1"/>
        <pt x="225" y="1108" on="0"/>
      </contour>
    </TTGlyph>
    <TTGlyph name="ordmasculine" xMin="164" yMin="805" xMax="637" yMax="1479">
      <contour>
        <pt x="545" y="1479" on="0"/>
        <pt x="637" y="1379" on="0"/>
        <pt x="637" y="1164" on="0"/>
        <pt x="553" y="928" on="0"/>
        <pt x="423" y="805" on="0"/>
        <pt x="258" y="805" on="0"/>
        <pt x="164" y="907" on="0"/>
        <pt x="164" y="999" on="1"/>
        <pt x="164" y="1122" on="0"/>
        <pt x="247" y="1359" on="0"/>
        <pt x="381" y="1479" on="0"/>
      </contour>
      <contour>
        <pt x="549" y="1347" on="0"/>
        <pt x="505" y="1409" on="0"/>
        <pt x="399" y="1409" on="0"/>
        <pt x="309" y="1304" on="0"/>
        <pt x="252" y="1100" on="0"/>
        <pt x="252" y="933" on="0"/>
        <pt x="293" y="870" on="0"/>
        <pt x="399" y="870" on="0"/>
        <pt x="492" y="969" on="0"/>
        <pt x="549" y="1172" on="0"/>
        <pt x="549" y="1280" on="1"/>
      </contour>
    </TTGlyph>
    <TTGlyph name="oslash" xMin="10" yMin="-117" xMax="903" yMax="1171">
      <contour>
        <pt x="784" y="791" on="1"/>
        <pt x="784" y="650" on="0"/>
        <pt x="712" y="336" on="0"/>
        <pt x="652" y="218" on="1"/>
        <pt x="528" y="-20" on="0"/>
        <pt x="340" y="-20" on="1"/>
        <pt x="241" y="-20" on="0"/>
        <pt x="184" y="49" on="1"/>
        <pt x="74" y="-117" on="1"/>
        <pt x="10" y="-74" on="1"/>
        <pt x="141" y="125" on="1"/>
        <pt x="119" y="188" on="0"/>
        <pt x="119" y="429" on="0"/>
        <pt x="191" y="757" on="0"/>
        <pt x="249" y="868" on="1"/>
        <pt x="370" y="1106" on="0"/>
        <pt x="559" y="1106" on="1"/>
        <pt x="672" y="1106" on="0"/>
        <pt x="731" y="1014" on="1"/>
        <pt x="836" y="1171" on="1"/>
        <pt x="903" y="1128" on="1"/>
        <pt x="768" y="926" on="1"/>
        <pt x="784" y="869" on="0"/>
      </contour>
      <contour>
        <pt x="670" y="922" on="1"/>
        <pt x="639" y="1016" on="0"/>
        <pt x="461" y="1016" on="0"/>
        <pt x="312" y="811" on="0"/>
        <pt x="215" y="427" on="0"/>
        <pt x="215" y="240" on="1"/>
      </contour>
      <contour>
        <pt x="240" y="133" on="1"/>
        <pt x="273" y="66" on="0"/>
        <pt x="441" y="66" on="0"/>
        <pt x="588" y="262" on="0"/>
        <pt x="636" y="439" on="1"/>
        <pt x="685" y="616" on="0"/>
        <pt x="688" y="803" on="1"/>
      </contour>
    </TTGlyph>
    <TTGlyph name="otilde" xMin="119" yMin="-20" xMax="861" yMax="1483">
      <contour>
        <pt x="703" y="1251" on="1"/>
        <pt x="672" y="1251" on="0"/>
        <pt x="605" y="1292" on="0"/>
        <pt x="581" y="1316" on="1"/>
        <pt x="517" y="1382" on="0"/>
        <pt x="440" y="1382" on="0"/>
        <pt x="395" y="1317" on="0"/>
        <pt x="376" y="1249" on="1"/>
        <pt x="306" y="1249" on="1"/>
        <pt x="365" y="1479" on="0"/>
        <pt x="486" y="1479" on="1"/>
        <pt x="518" y="1479" on="0"/>
        <pt x="584" y="1438" on="0"/>
        <pt x="606" y="1414" on="1"/>
        <pt x="665" y="1348" on="0"/>
        <pt x="734" y="1348" on="0"/>
        <pt x="750" y="1370" on="1"/>
        <pt x="769" y="1393" on="0"/>
        <pt x="791" y="1483" on="1"/>
        <pt x="861" y="1483" on="1"/>
        <pt x="832" y="1350" on="0"/>
        <pt x="759" y="1251" on="0"/>
      </contour>
      <contour>
        <pt x="340" y="-20" on="1"/>
        <pt x="233" y="-20" on="0"/>
        <pt x="119" y="140" on="0"/>
        <pt x="119" y="429" on="0"/>
        <pt x="191" y="757" on="0"/>
        <pt x="249" y="868" on="1"/>
        <pt x="370" y="1106" on="0"/>
        <pt x="559" y="1106" on="1"/>
        <pt x="665" y="1106" on="0"/>
        <pt x="784" y="941" on="0"/>
        <pt x="784" y="650" on="0"/>
        <pt x="712" y="336" on="0"/>
        <pt x="652" y="218" on="1"/>
        <pt x="528" y="-20" on="0"/>
      </contour>
      <contour>
        <pt x="217" y="268" on="1"/>
        <pt x="217" y="66" on="0"/>
        <pt x="352" y="66" on="1"/>
        <pt x="441" y="66" on="0"/>
        <pt x="592" y="270" on="0"/>
        <pt x="686" y="638" on="0"/>
        <pt x="686" y="811" on="1"/>
        <pt x="686" y="1016" on="0"/>
        <pt x="547" y="1016" on="1"/>
        <pt x="463" y="1016" on="0"/>
        <pt x="316" y="821" on="0"/>
        <pt x="217" y="446" on="0"/>
      </contour>
    </TTGlyph>
    <TTGlyph name="overscore" xMin="227" yMin="1556" xMax="1018" yMax="1638">
      <contour>
        <pt x="227" y="1556" on="1"/>
        <pt x="246" y="1638" on="1"/>
        <pt x="1018" y="1638" on="1"/>
        <pt x="999" y="1556" on="1"/>
      </contour>
    </TTGlyph>
    <TTGlyph name="p" xMin="-27" yMin="-471" xMax="815" yMax="1106">
      <contour>
        <pt x="614" y="1106" on="1"/>
        <pt x="815" y="1106" on="0"/>
        <pt x="815" y="823" on="1"/>
        <pt x="815" y="614" on="0"/>
        <pt x="689" y="204" on="0"/>
        <pt x="491" y="-20" on="0"/>
        <pt x="373" y="-20" on="1"/>
        <pt x="305" y="-20" on="0"/>
        <pt x="211" y="62" on="0"/>
        <pt x="199" y="131" on="1"/>
        <pt x="193" y="131" on="1"/>
        <pt x="68" y="-471" on="1"/>
        <pt x="-27" y="-471" on="1"/>
        <pt x="303" y="1085" on="1"/>
        <pt x="385" y="1085" on="1"/>
        <pt x="360" y="930" on="1"/>
        <pt x="365" y="930" on="1"/>
        <pt x="479" y="1106" on="0"/>
      </contour>
      <contour>
        <pt x="596" y="1022" on="1"/>
        <pt x="503" y="1022" on="0"/>
        <pt x="344" y="814" on="0"/>
        <pt x="242" y="434" on="0"/>
        <pt x="242" y="66" on="0"/>
        <pt x="377" y="66" on="1"/>
        <pt x="465" y="66" on="0"/>
        <pt x="616" y="272" on="0"/>
        <pt x="666" y="469" on="1"/>
        <pt x="717" y="666" on="0"/>
        <pt x="717" y="838" on="1"/>
        <pt x="717" y="932" on="0"/>
        <pt x="662" y="1022" on="0"/>
      </contour>
    </TTGlyph>
    <TTGlyph name="paragraph" xMin="225" yMin="-260" xMax="950" yMax="1556">
      <contour>
        <pt x="362" y="541" on="1"/>
        <pt x="301" y="541" on="0"/>
        <pt x="225" y="665" on="0"/>
        <pt x="225" y="766" on="1"/>
        <pt x="225" y="974" on="0"/>
        <pt x="356" y="1355" on="0"/>
        <pt x="567" y="1556" on="0"/>
        <pt x="696" y="1556" on="1"/>
        <pt x="950" y="1556" on="1"/>
        <pt x="565" y="-260" on="1"/>
        <pt x="477" y="-260" on="1"/>
        <pt x="842" y="1460" on="1"/>
        <pt x="715" y="1460" on="1"/>
        <pt x="350" y="-260" on="1"/>
        <pt x="262" y="-260" on="1"/>
        <pt x="434" y="553" on="1"/>
        <pt x="412" y="541" on="0"/>
      </contour>
    </TTGlyph>
    <TTGlyph name="parenleft" xMin="102" yMin="-324" xMax="682" yMax="1462">
      <contour>
        <pt x="102" y="219" on="1"/>
        <pt x="102" y="556" on="0"/>
        <pt x="362" y="1195" on="0"/>
        <pt x="606" y="1462" on="1"/>
        <pt x="682" y="1462" on="1"/>
        <pt x="447" y="1175" on="0"/>
        <pt x="207" y="546" on="0"/>
        <pt x="207" y="219" on="1"/>
        <pt x="207" y="74" on="0"/>
        <pt x="255" y="-219" on="0"/>
        <pt x="301" y="-324" on="1"/>
        <pt x="225" y="-324" on="1"/>
        <pt x="171" y="-229" on="0"/>
        <pt x="102" y="71" on="0"/>
      </contour>
    </TTGlyph>
    <TTGlyph name="parenright" xMin="-82" yMin="-324" xMax="498" yMax="1462">
      <contour>
        <pt x="498" y="920" on="1"/>
        <pt x="498" y="586" on="0"/>
        <pt x="242" y="-52" on="0"/>
        <pt x="-6" y="-324" on="1"/>
        <pt x="-82" y="-324" on="1"/>
        <pt x="393" y="257" on="0"/>
        <pt x="393" y="920" on="1"/>
        <pt x="393" y="1070" on="0"/>
        <pt x="344" y="1360" on="0"/>
        <pt x="299" y="1462" on="1"/>
        <pt x="375" y="1462" on="1"/>
        <pt x="428" y="1368" on="0"/>
        <pt x="498" y="1069" on="0"/>
      </contour>
    </TTGlyph>
    <TTGlyph name="pedageshhb" xMin="49" yMin="-20" xMax="813" yMax="1310">
      <contour>
        <pt x="349" y="441" on="1"/>
        <pt x="247" y="441" on="0"/>
        <pt x="133" y="547" on="0"/>
        <pt x="124" y="640" on="1"/>
        <pt x="122" y="665" on="0"/>
        <pt x="122" y="767" on="0"/>
        <pt x="139" y="859" on="1"/>
        <pt x="182" y="1059" on="0"/>
        <pt x="415" y="1310" on="0"/>
        <pt x="565" y="1310" on="1"/>
        <pt x="813" y="1310" on="0"/>
        <pt x="813" y="973" on="1"/>
        <pt x="813" y="837" on="0"/>
        <pt x="772" y="645" on="1"/>
        <pt x="701" y="311" on="0"/>
        <pt x="439" y="-20" on="0"/>
        <pt x="266" y="-20" on="1"/>
        <pt x="161" y="-20" on="0"/>
        <pt x="77" y="-5" on="1"/>
        <pt x="49" y="0" on="1"/>
        <pt x="68" y="89" on="1"/>
        <pt x="167" y="70" on="0"/>
        <pt x="285" y="70" on="1"/>
        <pt x="340" y="70" on="0"/>
        <pt x="441" y="123" on="0"/>
        <pt x="545" y="247" on="0"/>
        <pt x="638" y="480" on="0"/>
        <pt x="673" y="645" on="1"/>
        <pt x="715" y="841" on="0"/>
        <pt x="715" y="1055" on="0"/>
        <pt x="694" y="1111" on="1"/>
        <pt x="655" y="1220" on="0"/>
        <pt x="546" y="1220" on="1"/>
        <pt x="485" y="1220" on="0"/>
        <pt x="374" y="1150" on="0"/>
        <pt x="334" y="1094" on="1"/>
        <pt x="255" y="985" on="0"/>
        <pt x="227" y="859" on="1"/>
        <pt x="208" y="762" on="0"/>
        <pt x="208" y="607" on="0"/>
        <pt x="290" y="516" on="0"/>
        <pt x="372" y="516" on="1"/>
        <pt x="386" y="516" on="1"/>
        <pt x="354" y="441" on="1"/>
      </contour>
      <contour>
        <pt x="492" y="922" on="1"/>
        <pt x="543" y="922" on="0"/>
        <pt x="543" y="873" on="1"/>
        <pt x="543" y="861" on="0"/>
        <pt x="540" y="846" on="1"/>
        <pt x="523" y="772" on="0"/>
        <pt x="460" y="772" on="1"/>
        <pt x="411" y="772" on="0"/>
        <pt x="411" y="818" on="1"/>
        <pt x="411" y="830" on="0"/>
        <pt x="415" y="846" on="1"/>
        <pt x="431" y="922" on="0"/>
      </contour>
    </TTGlyph>
    <TTGlyph name="percent" xMin="152" yMin="-20" xMax="1067" yMax="1483">
      <contour>
        <pt x="596" y="1282" on="1"/>
        <pt x="596" y="1117" on="0"/>
        <pt x="503" y="763" on="0"/>
        <pt x="359" y="565" on="0"/>
        <pt x="279" y="565" on="1"/>
        <pt x="218" y="565" on="0"/>
        <pt x="152" y="671" on="0"/>
        <pt x="152" y="768" on="1"/>
        <pt x="152" y="924" on="0"/>
        <pt x="241" y="1275" on="0"/>
        <pt x="313" y="1380" on="1"/>
        <pt x="385" y="1483" on="0"/>
        <pt x="467" y="1483" on="1"/>
        <pt x="528" y="1483" on="0"/>
        <pt x="596" y="1376" on="0"/>
      </contour>
      <contour>
        <pt x="279" y="0" on="1"/>
        <pt x="190" y="0" on="1"/>
        <pt x="930" y="1462" on="1"/>
        <pt x="1014" y="1462" on="1"/>
      </contour>
      <contour>
        <pt x="453" y="1405" on="1"/>
        <pt x="406" y="1405" on="0"/>
        <pt x="307" y="1213" on="0"/>
        <pt x="231" y="871" on="0"/>
        <pt x="231" y="649" on="0"/>
        <pt x="293" y="649" on="1"/>
        <pt x="345" y="649" on="0"/>
        <pt x="444" y="844" on="0"/>
        <pt x="514" y="1173" on="0"/>
        <pt x="514" y="1280" on="1"/>
        <pt x="514" y="1405" on="0"/>
      </contour>
      <contour>
        <pt x="1067" y="696" on="1"/>
        <pt x="1067" y="531" on="0"/>
        <pt x="974" y="179" on="0"/>
        <pt x="832" y="-20" on="0"/>
        <pt x="750" y="-20" on="1"/>
        <pt x="688" y="-20" on="0"/>
        <pt x="623" y="87" on="0"/>
        <pt x="623" y="182" on="1"/>
        <pt x="623" y="340" on="0"/>
        <pt x="714" y="696" on="0"/>
        <pt x="857" y="897" on="0"/>
        <pt x="938" y="897" on="1"/>
        <pt x="1000" y="897" on="0"/>
        <pt x="1067" y="789" on="0"/>
      </contour>
      <contour>
        <pt x="924" y="819" on="1"/>
        <pt x="876" y="819" on="0"/>
        <pt x="778" y="627" on="0"/>
        <pt x="702" y="285" on="0"/>
        <pt x="702" y="63" on="0"/>
        <pt x="764" y="63" on="1"/>
        <pt x="816" y="63" on="0"/>
        <pt x="915" y="258" on="0"/>
        <pt x="985" y="587" on="0"/>
        <pt x="985" y="694" on="1"/>
        <pt x="985" y="819" on="0"/>
      </contour>
    </TTGlyph>
    <TTGlyph name="period" xMin="42" yMin="-16" xMax="202" yMax="197">
      <contour>
        <pt x="42" y="53" on="1"/>
        <pt x="42" y="115" on="0"/>
        <pt x="99" y="197" on="0"/>
        <pt x="145" y="197" on="1"/>
        <pt x="172" y="197" on="0"/>
        <pt x="202" y="155" on="0"/>
        <pt x="202" y="121" on="1"/>
        <pt x="202" y="60" on="0"/>
        <pt x="147" y="-16" on="0"/>
        <pt x="104" y="-16" on="1"/>
        <pt x="78" y="-16" on="0"/>
        <pt x="42" y="21" on="0"/>
      </contour>
    </TTGlyph>
</ttFont>
